/* XPM */
static char *_ec539867c1e40b9dee95b4a71789093WeVuircAvisY61rz[] = {
/* columns rows colors chars-per-pixel */
"50 50 245 2 ",
"   c #38250E",
".  c #3A2917",
"X  c #2D2617",
"o  c #332E23",
"O  c #522E10",
"+  c #663A04",
"@  c #6C3B17",
"#  c #4A3427",
"$  c #583929",
"%  c #553935",
"&  c #4B2822",
"*  c #66392B",
"=  c #653D35",
"-  c #7A3B33",
";  c #74382D",
":  c #5C4917",
">  c #6C4608",
",  c #764705",
"<  c #684718",
"1  c #754B16",
"2  c #7E5610",
"3  c #594431",
"4  c #684627",
"5  c #7A5C26",
"6  c #684438",
"7  c #764938",
"8  c #7A573A",
"9  c #71492F",
"0  c #7C612C",
"q  c #5C4D47",
"w  c #664844",
"e  c #645649",
"r  c #795749",
"t  c #685A55",
"y  c #795C55",
"u  c #774B44",
"i  c #7A6656",
"p  c #71654F",
"a  c #656565",
"s  c #6B6A65",
"d  c #6C6C6C",
"f  c #686766",
"g  c #726D6C",
"h  c #766C64",
"j  c #6E726D",
"k  c #73736D",
"l  c #78746B",
"z  c #746D73",
"x  c #6F7272",
"c  c #747474",
"v  c #797574",
"b  c #757974",
"n  c #7C7A75",
"m  c #7C757A",
"M  c #7C7C7C",
"N  c #76777A",
"B  c #6E6E70",
"V  c #5E5F61",
"C  c #8B3D39",
"Z  c #895411",
"A  c #8C6A18",
"S  c #9A7119",
"D  c #956B13",
"F  c #A67418",
"G  c #91492C",
"H  c #845938",
"J  c #8E4C36",
"K  c #876525",
"L  c #946B27",
"P  c #9B7327",
"I  c #866937",
"U  c #99663A",
"Y  c #8C7336",
"T  c #977733",
"R  c #AD733A",
"E  c #885B48",
"W  c #975C4C",
"Q  c #8C5C53",
"!  c #995C53",
"~  c #904944",
"^  c #A15D48",
"/  c #8B6647",
"(  c #876857",
")  c #996757",
"_  c #96725A",
"`  c #8D7451",
"'  c #A67849",
"]  c #A66857",
"[  c #AA765A",
"{  c #B7775A",
"}  c #AE6D4D",
"|  c #887A68",
" . c #977767",
".. c #827E74",
"X. c #827E7C",
"o. c #877778",
"O. c #8A7570",
"+. c #A97765",
"@. c #B47C64",
"#. c #B87D66",
"$. c #A06962",
"%. c #C37858",
"&. c #C07F61",
"*. c #7E817E",
"=. c #B7851B",
"-. c #AA8536",
";. c #B88B39",
":. c #B8943C",
">. c #B88929",
",. c #DA9A09",
"<. c #CE9713",
"1. c #DAA40A",
"2. c #DBA61A",
"3. c #E7AA17",
"4. c #F3AD1B",
"5. c #ECB31C",
"6. c #EFB71C",
"7. c #F4B41D",
"8. c #E2AA0F",
"9. c #C99829",
"0. c #D39A25",
"q. c #C59937",
"w. c #CE923A",
"e. c #D7A537",
"r. c #D6A731",
"t. c #E7AC26",
"y. c #ECB224",
"u. c #ECB32B",
"i. c #E9B627",
"p. c #F3B423",
"a. c #F3B32A",
"s. c #F7B826",
"d. c #E4AC38",
"f. c #ECB434",
"g. c #E7B43B",
"h. c #F2B735",
"j. c #F1AE21",
"k. c #928355",
"l. c #BA8646",
"z. c #BC9547",
"x. c #A3855A",
"c. c #B98658",
"v. c #B79355",
"b. c #9A8969",
"n. c #82827D",
"m. c #87827B",
"M. c #988978",
"N. c #90886F",
"B. c #AA8464",
"V. c #B98367",
"C. c #B7957A",
"Z. c #A7936C",
"A. c #BFA254",
"S. c #C89A46",
"D. c #C99355",
"F. c #E49D5A",
"G. c #D8AB48",
"H. c #DBB348",
"J. c #D3AC56",
"K. c #CFA957",
"L. c #E6AE44",
"P. c #E6B546",
"I. c #E7B74F",
"U. c #C99867",
"Y. c #D99767",
"T. c #CA9A77",
"R. c #D39974",
"E. c #C08A66",
"W. c #E59E6F",
"Q. c #D5A36B",
"!. c #D7A676",
"~. c #D3A973",
"^. c #E3A46C",
"/. c #EAA569",
"(. c #E6A875",
"). c #EDB37D",
"_. c #7C7E82",
"`. c #827E81",
"'. c #887F84",
"]. c #7E8283",
"[. c #798088",
"{. c #838282",
"}. c #8A8584",
"|. c #8B8B85",
" X c #84848A",
".X c #8B8689",
"XX c #8C8C8B",
"oX c #858A86",
"OX c #938D8B",
"+X c #978885",
"@X c #8E918B",
"#X c #93918B",
"$X c #979288",
"%X c #8D8D91",
"&X c #918E92",
"*X c #939392",
"=X c #969695",
"-X c #8E9395",
";X c #A89790",
":X c #B9A98A",
">X c #BEB6AE",
",X c #CD9D82",
"<X c #D9BC98",
"1X c #D1A788",
"2X c #E8B687",
"3X c #E5B897",
"4X c #F1B98A",
"5X c #C5B7AA",
"6X c #C4B9B3",
"7X c #E2BFA4",
"8X c #EECA9C",
"9X c #ECC498",
"0X c #F3C494",
"qX c #F4C59B",
"wX c #F4CA9D",
"eX c #FBCB9C",
"rX c #F9C697",
"tX c #F7CD8E",
"yX c #FFE59B",
"uX c #D5CABC",
"iX c #EBC8A6",
"pX c #F4CCA3",
"aX c #FACCA2",
"sX c #F4CDAA",
"dX c #F7C7A8",
"fX c #FBD1A4",
"gX c #F6D2A8",
"hX c #E4D8BD",
"jX c #F4D1AF",
"kX c #FEE7B0",
"lX c #D2C29E",
"zX c #DBD1CB",
"xX c #E8DBC8",
"cX c #E7D9D5",
"vX c #EAE1DA",
"bX c #F4ECD4",
"nX c #ECE6E5",
"mX c #F6EAE8",
"MX c #F4F3ED",
"NX c #FCF4EA",
"BX c #FEFDF3",
"VX c #FEFCFB",
"CX c #FAF5F3",
"ZX c #F8EEEE",
"AX c #E8DBE2",
/* pixels */
"`.`.M VXMXMXZXZXl s n j M c z o.{.oX{.%X=X.Xk V k oX-XoXXX*X#Xm.X.M N c c N N N N c N N c N M M X.M ",
"{.{.VXCX+Xq t +XCXBXBXs c M k g X.M *.XX*XXXg t s #X*X-X=X*X|.}.M M N c c c c c d d N c c c N M M M ",
"M M VX+X% % = w i ..MXs b b k ..}.X.m.|.#X|.d d d {.XX|.XX*X&X{.M {.M N N N N N N c M N c N N M M M ",
"M g CXw $ u u u = 6 O.N.| k.k.` ` | N.bX$X|.k f k M N M _.N  X{.|.XX|.|.oXoX|.|.oX{.oX{.M M M M M M ",
"d CX;Xw = - J ~ ~ J * @ 5 A A A A A Y x.Z.xXm.d k b j s d c v .XXX=X=X*X*X*X=X=X=X*X=XXXoXM M M M M ",
"c nX% % * ; C ~ C ~ G R G.I.P.g.d.P.G.L 5 Z.:XzXl c k b c c v X.XX*XXX|.|.XX*XXX*XXX*XXX{.M M M M M ",
"*.nXl % = ; C ~ J G G F.L.h.u.u.s.y.h.P.H.S > ` xXl k j c k X.X.`.M M N M M M `.{.M `.M N c N M M {.",
"n.VXZXO.% * ; J J G G w.d.3.j.s.p.p.p.u.f.g.H.-.Y hXBXk M c g m N d a a s s d c c d d s a s d N {.{.",
"X.X.VXZXy $ ; - G G Z F <.,.3.4.s.j.p.y.p.u.h.g.>.I xXVXs c c c c N a d d s d N M N c d s s d N M M ",
"X.`.'.VXO.% * ; @ Z l.w.d.y.8.,.,.a.5.5.s.s.3.a.P.:.0 hXBXc M c x d B M M M M M M M M M M M M M M M ",
"X.X.M VXnXO.& O 1 ;.S.e.d.u.3.5.3.,.1.5.5.p.p.a.f.L.;.Y hXBXj b d a M n.oX{.{.{.M M M oXXXXX.X{._.].",
"{.{.b M N cX| 4 l.q.q.9.r.u.p.6.5.8.8.1.1.8.s.a.y.f.P.-.I hXn j d a M {.oX{.{.M oX{.M {.XX*X|.{.{.{.",
"m v k n.oX..;X4 v.q.q.q.9.0.3.5.5.p.p.8.8.1.3.p.5.s.t.G.> <Xl c d k b M M N N M oXoX{.oX*X*X|.{.{.{.",
"a g k n.@X$XuX .Y z.:.q.9.9.2.y.s.p.7.p.6.8.1.8.6.5.u.P.P x.hXk k b c N c c c c M XXXX*X=X&X|.{.M M ",
"d a c {.#XOXOXzX` Y A.:.9.9.0.0.t.a.p.4.7.7.8.1.5.y.h.f.I.> :Xh k N c c N N c c M XX&X*X*X|.|.{.M M ",
"x x a {.}..Xm }.xXi Y z.q.9.0.0.0.t.p.p.4.7.6.1.,.p.y.h.g.A Z.xXk c N N b M M c M XX}.{..XoXoX{.M M ",
"]._. XB a z z c BXhX: T :.q.9.9.0.<.y.s.4.7.6.3.,.4.s.y.i.H.5 M.l k M n.M X.{.M n n.m.M z z N b v c ",
"_.{.M c a d m c l xX: Y -.q.q.9.9.9.<.3.s.7.p.5.3.,.4.s.y.g.A x.bXBXM M X.{.M X.M X.n.M N c c c k g ",
"*.M g m '.m c M BXhX: T -.;.q.q.q.q.9.0.t.p.y.p.3.,.4.6.p.i.H.L b.BXk M |._.{.M _.M M M _._.M M n n ",
"s s g .X.X.X*X=XzXp / k.-.-.z.z.z.z.:.q.d.f.u.y.4.3.,.4.6.y.g.S I NXVX'.m  X_.].]._.M ].XX-X%X#X#X#X",
"f a g {.*X=X%X.XzX# $ 4 @ < 1 < 1 1 1 1 -.H.g.i.y.3.,.p.p.p.h.e.T Z.mX.X_. XN _. X].M ].@X=X*X=X=X=X",
"j c c {.%X%XoXcXO.u 9 9 7 9 4 7 H H 8 H Z Z >.P.f.u.y.,.3.p.a.d.-.5 NXX. X_.M *.`.`.*.{.oX|.|.oX X X",
"_.M x M oXM zXo.6 ) $.! W W ) [ c.{ V.[ K 1 A F =.h.t.,.5.p.y.P.q.Y :XNXc M b v M X.n.n.n.n.n.M _._.",
"].].oX*.M }.;X% ) ) W ! ] ) } { %.%.{ { c.c.L , Z >.d.2.8.5.y.u.P.:.4 bXl N g n v n n.n.n *.m._. X X",
"*.].M n.{.nXO.6 ! ! W ! ! ] %.%.%.%.%.{ { ' c.c.U Z 9.g.<.8.6.i.g.q.0 lXNXc k c n X.M M *.n.`.{.{._.",
"|.|.|..X.X+X= ) ] } ] W ! { %.%.%.{ %.D.D.c.V.V.c.' + e.<.3.5.5.i.P.A.: xXn s s M }.oX%XXX|.XX`.M `.",
"OX=X=X=X*XO.6 #.W.Y.} ^ @.#.{ { V.T.rXrX4XqXdX3XpX~., S.0.t.p.p.p.g.S.: xXM a V M &X=X%X*X&X%X X`.M ",
"*X|.XX=XOXo.E ,XW./.Y.} { V.c.T.3X9XqXaXgXaXdXdXsX2XD., =.t.p.p.a.g.S.< xXn a VXzXcXcXcXvXnX`.XXX.M ",
"X.}.].#XOXO.E 1XW././.Y.).2X2X9XfXpXsXaX9XpXdXdXgX9XU.+ F g.a.y.f.L.S.< hXVXZX6Xq # % % % ;XCXm.v oX",
"{.{.{.m.;X .r 1X2XY.(.^.^.tXfXeXwXsXiXjXjXsXsXdXwXaX).l., =.u.u.P.q., O p h t w y Q  .+. .r M.NXVX{.",
"n.M X.VX;X .( r 8 H U U.^.(.4XaX<X( ( | i ` ,XsXpXwXeXQ.> D e.P.q.L ' B. .y % r ) +.@.V.[ [ y M.CXVX",
"n.n.{.CXi ( ( O   O O c.(.(.(.qXC.& o X X   b.sXpXeX0XQ.> P G.q.P l.gXjX;Xr r ) [ { #.{ { V._ ( }.CX",
"m.X.VX6X( B._   . . O E.^.^.^.2XC.# o o o . b.jXpXwXrXQ.> P G.D K 8XiXC.6 6 ) ^ &.} V.#.@.@.V.( e CX",
"..m.nXe _ T./   .   O E.(.^.Q.!.B.  . o X   b.iXgXaX0XQ.+ L G.S K iXC.8 $ = ! ] { #.E ) +.#.@.E t nX",
"b c MXt / !.' @ $ $ 4 U.).(.(.2XV.4 $ 3 3 4 Z.pXfX4XrXQ.+ T G.S I T.8  .6 r ] ] [ E ) r ) [ #./ e MX",
"a s MXt ' U.!.T.1XiX3XqX0XrXeX0XaX3X7XiXiX<X8X8XpXfXrXQ.> L J.S 5 iX,X9 7 ( ) #.] * xXr 6 +.@.E q MX",
"s d VXxXU R (.!.1XiXpXaXqXeXaXqXaXeXsXiX9X8XgX8XpXeX0XQ.> T J.P I 7X1X6 7 E ] @.) = xXO.r (  .i ..MX",
"N c MXN.' Y./.^.wXpXeXaXaXwXsXfXeXeXsXsXpXwXpXpXwXaX0XQ.> S J.A I 1X4 & 7 ) ] #._ 6 vXmXm.% % o.MXVX",
"*.M MX3 ' (./.).rXeXaX8XpXpXfX9XeXpXwXeXfXaX8XpXpX8X~.K Z q.H.S 5 <XC.6 7 ] @.@. .3 vXc nXnXAXZXX.M ",
"*.*.MXe x.^././.eX0XaXaXaX9XaXeXaXpXsXpXpXsXsXwXwX9XU.+ D r.P.D K pXiX7 7 ] #.) u zXMXb d z m `.`.}.",
"{.oXMXe [ (././.4XrXeXwXfXwXaXeXpXpXpXiXsXiXsXpXwX~.U Z =.r.g.>.A v.T.H E ] @./ w ZXv M X.X.X.`._._.",
"&XOXZXw B.!././.^.0X0XeX0XwXeXwX8XpXiXsXsXsXpXaX0Xv.+ S d.f.f.d.=.A ' H W [ [ ) w mX*XXXXX.XOX{.M M ",
"*XOXmX6 B.(.F.F./.Y.(.4XrX0X4X0X9XsXpXdXiXsXpXqX~.-., F d.u.u.h.d.>.Z U ^ [ V.) w ZX*X=X=XXX.X XM M ",
"XX}.BX( _ !.^./.^.(.(.R.Y.R.R.R.1X3X3XdXjXpXqX).R , q.9.t.u.s.y.f.L.l.U [ @. .y +XCXXX|.|.|. X X*.*.",
"].{.CXmX| _ T.R.R.R.R.[ ^ ^ ] ] ) ) +.3XiX3X2XR Z q.d.<.t.p.4.s.a.L.D.U ) +.y +XVXN ].M n.M  X X{.*.",
"_.M {.M nXO.$ * * 9 ) Q Q ! Q Q Q Q / _ _ H + Z S.L.e.<.t.f.h.u.d.I.c.H ( y +XVXVX].].].X.X._._.n.M ",
"M {.*.N c vXuXzXuX5X3 # # $ % % % $ # # # p x.v.K.J.q.H.I.H.P.P.I.K.< 3 3 ;XBXc M N _.`.M M _.M M M ",
"n.M {.b M M b d k MX>X6X6X>X>X>X6X5X6X>X6XzXhXkXkXyXyXyXyXyXyXyXkX8X5XcXvXmXg c M N N m N c c c N N ",
"`.].{.{.{.M b c c c c c k k v n X.X.X.X.X.....| | | | k.b.b.b.b.M.M...s f g N c c N N c c N c c c c ",
"{.].{.{.n.M N N c c c c c c N M M M X.X.X.X.X.........m.M.+X$X$X$X#Xb s a g N c c N N c c c c c c c "
};
