/* XPM */
static char *eabf5239b88e4007d3fb8959389fbcc7TODvr3SMSaBj07IZ[] = {
/* columns rows colors chars-per-pixel */
"64 64 171 2 ",
"   c #000001",
".  c #0D0704",
"X  c #010D03",
"o  c #140B06",
"O  c #1A0E09",
"+  c #021202",
"@  c #001E01",
"#  c #031608",
"$  c #171306",
"%  c #291712",
"&  c #291D11",
"*  c #012402",
"=  c #032A08",
"-  c #003401",
";  c #003C01",
":  c #0C3B0C",
">  c #073713",
",  c #3C2419",
"<  c #30343C",
"1  c #402412",
"2  c #4B2A15",
"3  c #663A1D",
"4  c #4A2920",
"5  c #532E20",
"6  c #583120",
"7  c #6C3D20",
"8  c #004401",
"9  c #004C01",
"0  c #03440A",
"q  c #0D420D",
"w  c #005400",
"e  c #005C00",
"r  c #0C4A15",
"t  c #0B511C",
"y  c #234412",
"u  c #006400",
"i  c #006B00",
"p  c #007400",
"a  c #007C00",
"s  c #33740E",
"d  c #356410",
"f  c #377815",
"g  c #0C6020",
"h  c #0F6820",
"j  c #176821",
"k  c #0D7E24",
"l  c #107B29",
"z  c #297229",
"x  c #525524",
"c  c #684721",
"v  c #624B22",
"b  c #734120",
"n  c #784724",
"m  c #7E4E27",
"M  c #6C512C",
"N  c #586A22",
"B  c #626223",
"V  c #1D3044",
"C  c #315273",
"Z  c #5C7051",
"A  c #78654E",
"S  c #4B5567",
"D  c #474C73",
"F  c #57607E",
"G  c #83542B",
"H  c #8C5C2E",
"J  c #885936",
"K  c #866336",
"L  c #946F31",
"P  c #936643",
"I  c #9C714D",
"U  c #A47B41",
"Y  c #A17753",
"T  c #008400",
"R  c #008C00",
"E  c #1A8807",
"W  c #009400",
"Q  c #009B00",
"!  c #2F821F",
"~  c #00A400",
"^  c #00AC00",
"/  c #00B300",
"(  c #00BC00",
")  c #0D8224",
"_  c #168029",
"`  c #198329",
"'  c #248025",
"]  c #208929",
"[  c #2E9429",
"{  c #319629",
"}  c #389C29",
"|  c #4A9327",
" . c #479928",
".. c #519123",
"X. c #6D9234",
"o. c #41A429",
"O. c #00C300",
"+. c #00CB00",
"@. c #00D200",
"#. c #00DA00",
"$. c #618461",
"%. c #969600",
"&. c #B19512",
"*. c #86873A",
"=. c #B69623",
"-. c #BD9F2F",
";. c #AD893A",
":. c #B99933",
">. c #CDAF2E",
",. c #CCB624",
"<. c #D2C90A",
"1. c #D7C41D",
"2. c #DFD117",
"3. c #E1D316",
"4. c #E8DD11",
"5. c #E8DB14",
"6. c #EFE809",
"7. c #E4F005",
"8. c #F6F206",
"9. c yellow",
"0. c #F5E718",
"q. c #EDD12E",
"w. c #E9C837",
"e. c #B08751",
"r. c #B38D58",
"t. c #9E8D78",
"y. c #B28B66",
"u. c #BF9B6A",
"i. c #A6967B",
"p. c #BC9770",
"a. c #C4964A",
"s. c #D3A24E",
"d. c #DEAC52",
"f. c #E4BC42",
"g. c #CAA774",
"h. c #CAA77F",
"j. c #96E369",
"k. c #3E4F84",
"l. c #31529C",
"z. c #486583",
"x. c #73788D",
"c. c #4862A0",
"v. c #5873AF",
"b. c #31869F",
"n. c #00B391",
"m. c #7282AA",
"M. c #768CBD",
"N. c #00BAFF",
"B. c #18C1E7",
"V. c #8E92A3",
"C. c #AAAAAA",
"Z. c #CEAB83",
"A. c #D0AF85",
"S. c #D5B48B",
"D. c #DDBD95",
"F. c #CEBDB1",
"G. c #D6C39A",
"H. c #E1C294",
"J. c #E1C299",
"K. c #DACAB3",
"L. c #E8CAA1",
"P. c #E9D2A8",
"I. c #EFD3AB",
"U. c #F1D5AC",
"Y. c #F5D9AF",
"T. c #F5DAB0",
"R. c #FFE6BD",
"E. c #C6C6C7",
"W. c #FFEDCE",
"Q. c #DBE1EE",
"!. c #FFFFFE",
/* pixels */
"u +.+.+.+.+.( 9 i u p a @.#.#.#.@.O.p T Q Q R W Q R T T ( ( ( +.O.+.+.+.+.+.+.^ / ~ i w W T i @.W ( / R +.R i p w a a Q / ^ ~ Q ",
"p +.+.+.O.O.p T p i R @.#.#.#.#.#.@.Q R ~ 8 + + = k k k k ) ) ) ) k ) ) ) ) k X X X * i i i +.O.R ( T p u i p R a 9 u 9 T i a p ",
"i +.+.+.+.Q 8 T a ~ @.@.#.#.#.#.@.@.a ~ ~ -     # l l l l l l l l l l l l l l       T W / / ^ W T O.R T i T p ^ Q a u e T e W R ",
"T ^ +.O.^ u T p W a / +.@.#.#.#.@.#.W ~ Q ;     # l l l l l l l l l l l l l l       Q ~ u a R T a W ~ ( ( +.^ T ( Q p T a R W / ",
"W u ( Q R / ( ^ ~ T T Q O.#.#.#.@.~       t l l ` o.o.o.o.o.o.o.o.o.o.o.o.o.o.l l l #     @ W R p ( +.#.#.#.( ( ( / i a i u 9 e ",
"a p W T ( ( O.O.Q a a p a ( W W R Q       t l l ` o.o.o.o.o.o.o.o.o.o.o.o.o.o.l l l #     - ( Q / @.@.#.#.#.( T ( ( W R ^ W T T ",
"W ( O.O.( O.O.O.T T T a ; p i u w i = = = g l l _ { { { { { { { { { { { { { { l l l > = = 0 R i T #.@.@.@.#.O.T ( ( / R ( ( / p ",
"^ O.O.O.( ( ( ^ ~ ~ ~ ~ u w i       l l l l l l l l l l l l l l l l l l l l l l l l l l l t       #.#.#.@.@.T u / / ( W ( ( ( a ",
"( O.O.O.O.( ( R / / ^ / a W ~       l l l l l l l l l l l l l l l l l l l l l l l l l l l t       @.#.#.Q ~ Q Q Q W W a T ( ( R ",
"( O.O.O.O.( ^ R ( / ~ -     X l l l o.o.o.o.o.o.o.o.o.o.o.o.o.o.o.o.o.o.o.o.o.o.o.o.o.o.o.[ l l l       R ~ / O.O.( O.~ W T ( R ",
"( O.( / ^ W W R R T / ;     X l l l o.o.o.o.o.o.o.o.o.o.o.o.o.o.o.o.o.o.o.o.o.o.o.o.o.o.o.{ l l l       T Q O.+.@.+.@.+./ R ( a ",
"~ ^ ~ Q Q T w a W W R -     X l l l o.o.o.o.o.o.o.o.o.o.o.o.o.o.o.o.o.o.o.o.o.o.o.o.o.o.o.{ l l l       R W ( +.@.+.@.@.@.W e w ",
"W Q Q W @.@.T R Q Q Q ;     + o.o.o.U U U 3.9.9.9.9.9.9.U U U U U U U -.9.9.9.U U U U U U *.o.o.o.      R a a ( +.+.+.@.@.O.T 8 ",
"@.@.@.@.@.@.+.W ~ ~ Q ;     + o.o.o.U U U 3.9.9.9.9.9.9.U U U U U U U -.9.9.9.U U U U U U *.o.o.o.      W ~ W T Q +.+.@.@.@.Q R ",
"@.@.@.@.+.+.O.Q e w w 0 > > q X.X.X.U U U 3.9.9.8.1.1.1.,.,.,.;.;.U U -.9.9.9.,.,.,.;.U U *.X.X.X.> > > e i i T W ( +.@.@.+.~ i ",
"W R +.@.@.+.+.R       r l l z U U U U U U 3.9.9.6.U U U 9.9.9.-.-.U U -.9.9.9.9.9.9.:.U U U U U U l l l X     8 T ( ( O.( ( R 9 ",
"8 e ( @.@.@.+.(       r l l z U U U U U U 3.9.9.6.U U U 9.9.9.-.-.U U -.9.9.9.9.9.9.:.U U U U U U l l l X     9 R ~ ~ p p u i T ",
"T N U U U S.S.S.b b b b b b m d.d.d.9.9.9.w.d.d.f.9.9.9.U U U 4.4.9.9.0.d.d.d.U U U 6.9.9.2.U U U b b b b b b I S.S.S.U U U Q W ",
"/ ..U U U S.S.S.b b b b b b m d.d.d.9.9.9.w.d.d.f.9.9.9.U U U 4.4.9.9.0.d.d.d.U U U 6.9.9.2.U U U b b b b b b I S.S.S.U U U / / ",
"/ ..U U U S.S.S.b b b b b b m d.d.d.9.9.9.w.d.d.f.9.9.9.U U U 4.4.9.9.0.d.d.d.U U U 6.9.9.2.U U U b b b b b b I S.S.S.U U U / / ",
"/ f b b n R.R.R.R.R.R.g.U U ;.9.9.9.U U U 3.9.9.6.U U U U U U 4.4.9.9.5.U U U S.S.S.e.U U >.9.9.9.U U U T.R.R.R.R.R.R.b b b / / ",
"/ f b b n R.R.R.R.R.R.g.U U ;.9.9.9.U U U 3.9.9.6.U U U U U U 4.4.9.9.5.U U U S.S.S.e.U U >.9.9.9.U U U T.R.R.R.R.R.R.b b b / / ",
"/ E s s d y.y.y.L.L.L.r.H H H ,.,.,.a.a.a.5.9.9.8.1.1.1.a.a.a.=.=.&.&.=.u.u.u.P.P.P.e.U U :.q.q.q.U U U J.L.L.A.y.y.y.f s d ^ / ",
"~ R u / Q b b b S.S.S.I b b n U U U d.d.d.0.9.9.9.9.9.9.d.d.d.H H b b K S.S.S.R.R.R.r.U U e.d.d.d.U U U A.S.S.r.b b b +.( T W Q ",
"u i W ~ W b b b S.S.S.I b b n U U U d.d.d.0.9.9.9.9.9.9.d.d.d.H H b b K S.S.S.R.R.R.r.U U e.d.d.d.U U U A.S.S.r.b b b ~ +.R a p ",
"Q - 9 i p R i R N.N.N.j.9.9.6.b b b d.d.d.d.d.d.s.U U U b b b p.p.S.S.J.R.R.R.R.R.R.D.S.S.y.b b b 9.9.9.B.N.N.b.+.+.O.^ @.~ R ^ ",
"O.i e a u a R p N.N.N.j.9.9.6.b b b d.d.d.d.d.d.s.U U U b b b p.p.S.S.J.R.R.R.R.R.R.D.S.S.y.b b b 9.9.9.B.N.N.n.+.+.+./ ( R / +.",
"+.Q w p Q / / W N.N.N.j.9.9.6.b b b d.d.d.d.d.d.s.U U U b b b p.p.S.S.J.R.R.R.R.R.R.D.S.S.y.b b b 9.9.9.B.N.N.n./ O.+.~ / W W +.",
"+.( a ~ ( O.O./       %.9.9.8.U U U       M U U L b b b S.S.S.T.T.R.R.Y.S.S.S.b b b o     , U U U 9.9.9.$     w Q ~ Q Q ( ~ O.+.",
"+.( ( ( O.O.O.^       %.9.9.8.U U U       M U U L b b b S.S.S.T.T.R.R.Y.S.S.S.b b b o     , U U U 9.9.9.$     w O.W ~ ~ ~ ~ O.+.",
"+.O./ O.O.+.+.~       L w.w.>.G G G C.C.C.x.F F S b b b U.U.U.R.R.R.R.J.P P P D D D V.C.C.t.G G G w.w.w.$     w O.W ^ / / ^ O.+.",
"+.+.+.+.+.+.+.Q       K d.d.s.b b b !.!.!.M.l.l.k.b b b R.R.R.R.R.R.R.D.b b b l.l.l.Q.!.!.F.b b b d.d.d.$     ; R u ^ ( ( ( ( +.",
"O.+.+.+.+.+.+.^       K d.d.s.b b b !.!.!.M.l.l.k.b b b R.R.R.R.R.R.R.D.b b b l.l.l.Q.!.!.F.b b b d.d.d.$     ; Q R T T ( ( ( +.",
"/ ~ / ( O.( ~ i       K d.d.s.b b b !.!.!.M.l.l.k.b b b R.R.R.R.R.R.R.D.b b b l.l.l.Q.!.!.F.b b b d.d.d.$     8 ~ ~ Q R Q ( ( +.",
"R ( O.O.~ Q T i ( / Q ;             R.R.R.m.l.l.v.!.!.!.R.R.R.R.R.R.R.W.!.!.!.l.l.l.K.R.R.i.            W Q Q ~ ^ ~ ~ Q ~ Q ^ ( ",
"( ( ( ( W R T Q W O.( 8             R.R.R.m.l.l.v.!.!.!.R.R.R.R.R.R.R.W.!.!.!.l.l.l.K.R.R.i.            R ~ Q ~ ^ / / W w Q R R ",
"( ~ / ~ a Q +.O.~ W W e + X X       Y.Y.Y.V.c.c.m.!.!.!.R.R.R.R.R.R.R.W.!.!.!.c.c.c.K.Y.Y.t.      + + + R Q W Q Q Q Q Q e p a / ",
"~ ~ Q W p R @.~ +.^ Q O./ a ~       U U U H.R.R.R.R.R.R.R.R.R.R.R.R.R.R.R.R.R.R.R.R.r.U U M       Q ~ ~ Q ~ Q Q ~ ~ W Q p a ~ Q ",
"w u p T T a Q ~ @.@.( O.( ~ (       U U U H.R.R.R.R.R.R.R.R.R.R.R.R.R.R.R.R.R.R.R.R.r.U U M       ~ R i Q ~ Q R ^ ~ ( / Q 9 i p ",
"e / T W Q Q R W ~ ^ @.u * * - g g g m m m J P P Y D.D.D.D.D.D.D.D.D.D.D.D.D.D.P P P G m m x g g g   + @ W ~ ~ T ~ ^ +.O.~ R u p ",
"w ~ ( / O.O.~ T ~ ^ +.8     X l l l b b b b b b J S.S.S.S.S.S.S.S.S.S.S.S.S.S.b b b b b b x l l l       ~ O.^ Q O.+.+.+.( W p w ",
"a ( ( / Q ~ / Q / R ~ 8     X l l l b b b b b b J S.S.S.S.S.S.S.S.S.S.S.S.S.S.b b b b b b x l l l         ^ O.~ O.O.+.O./ ( i T ",
"W ~ ( R Q ( ( O.      V C C z.!.!.!.q q q h l l l l l l l l l l l l l l l l l l l l r q q $.!.!.!.4 4 4 .     8 ( O.O.( / / i / ",
"W ~ / T ~ ( ( W       V C C z.!.!.!.q q q h l l l l l l l l l l l l l l l l l l l l r q q $.!.!.!.4 4 4 .       / / ( ( / ( Q @.",
"@.Q Q ~ / T R T O O O < S S S E.E.E.y y y j l l l l l l l l l l l l l l l l l l l l y y y Z E.E.E.5 5 5 O O O . a R W O.( ( i O.",
"~ O.R R Q       b b b b b b 3       b b b z l l l l l l l l l l l l l l l l l l l l v b b 2       b b b b b b 1       +.O.O.W Q ",
"u T W R i       b b b b b b 3       b b b z l l l l l l l l l l l l l l l l l l l l v b b 2       b b b b b b 1       +.O./ R O.",
"p W Q w w       h.h.h.J.I.I.G.: : :  . . .B c c c c c c 7.7.7.7.7.7.7.<.c c c c c c |  . .f : : : I.I.I.Z.h.h.A       ~ ( Q T ~ ",
"u R R w T       S.S.S.I.R.R.P.q q q o.o.o.B b b b b b b 9.9.9.9.9.9.9.<.b b b b b b | o.o.! q q q R.R.R.D.S.S.A       R Q R ( Q ",
"R +./ 8 p       S.S.S.I.R.R.P.q q q o.o.o.B b b b b b b 9.9.9.9.9.9.9.<.b b b b b b | o.o.! q q q R.R.R.D.S.S.A       ~ R R / W ",
"R O.T p R T a ~                     l l l { o.o.} l l l l l l l l l l l l l l o.o.o.` l l t                   8 a p 8 p ~ / Q R ",
"Q R i ~ ^ T W ^                     l l l { o.o.} l l l l l l l l l l l l l l o.o.o.` l l t                   ; p Q e T Q W u W ",
"O./ / Q Q Q w e - @ - * ; ; -       t t t ' { { [ ] ] ] ] ] ] ] ] ] ] ] ] ] ] { { { g t t >       8 8 8 ; ; - p ~ ~ p T p R ^ ( ",
"@.+.+.O.Q / i 8 u T ~ a i ^ a             t l l ` o.o.o.o.o.o.o.o.o.o.o.o.o.o.l l l #               +.( a W T p p / R Q O.+.+.+.",
"@.@.+.( i R R i Q / ( R a R T             t l l ` o.o.o.o.o.o.o.o.o.o.o.o.o.o.l l l #               ( ~ a ~ a T Q W p Q +.+.+.@.",
"@.@.@./ R ~ a W / T Q 8     . b b b 4 4 4 O                                         , 4 4 6 b b b       p W R W R T T O.+.+.@.@.",
"@.+./ Q a T i a T R / 9     . b b b 4 4 4 O                                         , 4 4 6 b b b       W ~ ~ ^ ~ R p +.+.@.+.@.",
"+.~ e T T i W u ~ ( ( 9     . b b b 4 4 4 O                                         , 4 4 6 b b b       W / / / / ~ i W W W @.@.",
"w u u Q / ^ T i ( O.( 9     . b b b b b b 6 4 4 ,       ( R / +.O.i e e       4 4 4 7 b b b b b b       Q ^ / / / u T / ~ ~ Q R ",
"R u Q O.O.O.R a ( O.O.9     . b b b b b b 6 4 4 ,       / W W +.+.Q w w       4 4 4 7 b b b b b b       Q / / / / W / ( ( ( / / ",
"( ^ T R O.+./ a ( O.O.T w w 8 1 1 1 1 1 1 & % % & 9 8 8 ( ~ O.+.+.( a R w w w % % % , 1 1 1 1 1 1 9 w 9 ~ ^ / T W ( ( ( ( ( ( O.",
"O.( / W +.+.+.R ( O.( / ^ T u                   * W ~ ~ ~ ~ O.+.+.( ( ( O.O.O.                    / / / / ^ ~ T / ( ( ( ( O.O.O.",
"O./ W +.+.+.+.R ~ Q ~ R e 9 w                   * W ^ / / ^ O.+.+.O./ O.O.+.+.                    Q R ~ Q R 9 a / ( ( ( ( O.O.O.",
"^ Q R +.+.+.+.8 e p a e p R +.( W a 8 / R R i T R u ^ ( ( ( ( +.+.+.+.+.+.+.+.Q O.O./ a ( / W W a u e u T e T e p Q / ( O.O.( ( "
};
