/* XPM */
static char *_e6bdfa73cc84b0385847d606a0b4df1lC7sScgeF0xEj49N[] = {
/* columns rows colors chars-per-pixel */
"50 50 245 2 ",
"   c #36281A",
".  c #2D291D",
"X  c #2E2A27",
"o  c #342B26",
"O  c #3B3221",
"+  c #542D15",
"@  c #57350C",
"#  c #663C03",
"$  c #64381A",
"%  c #4B352A",
"&  c #563727",
"*  c #4E3A37",
"=  c #553A35",
"-  c #552B27",
";  c #663B2D",
":  c #79352D",
">  c #683B33",
",  c #773731",
"<  c #5B481A",
"1  c #694408",
"2  c #774904",
"3  c #654617",
"4  c #785211",
"5  c #5E4727",
"6  c #5A4237",
"7  c #4E4037",
"8  c #664727",
"9  c #674637",
"0  c #76493B",
"q  c #7B593A",
"w  c #765629",
"e  c #7C6230",
"r  c #5C4C47",
"t  c #654946",
"y  c #67544A",
"u  c #7A5849",
"i  c #785B57",
"p  c #6A534E",
"a  c #7A6556",
"s  c #76654C",
"d  c #5D6463",
"f  c #666666",
"g  c #6C6C6C",
"h  c #686867",
"j  c #726B6C",
"k  c #6C726C",
"l  c #73736D",
"z  c #78766A",
"x  c #6D6E72",
"c  c #726E74",
"v  c #756F79",
"b  c #6E7573",
"n  c #747474",
"m  c #757A76",
"M  c #7B7A75",
"N  c #757578",
"B  c #7A767C",
"V  c #7C7D7C",
"C  c #797777",
"Z  c #625C66",
"A  c #873B37",
"S  c #86580B",
"D  c #845019",
"F  c #9E710D",
"G  c #9A7315",
"H  c #936B13",
"J  c #A87416",
"K  c #8A463A",
"L  c #8E5530",
"P  c #856526",
"I  c #96732C",
"U  c #957635",
"Y  c #8D6B32",
"T  c #A67033",
"R  c #934742",
"E  c #855A47",
"W  c #995C4C",
"Q  c #8B5A54",
"!  c #9C5C53",
"~  c #945E55",
"^  c #874947",
"/  c #A15C54",
"(  c #A35D47",
")  c #8A6648",
"_  c #95644A",
"`  c #877448",
"'  c #89695A",
"]  c #986657",
"[  c #9C7458",
"{  c #897550",
"}  c #A66848",
"|  c #A47745",
" . c #A66856",
".. c #B46E5C",
"X. c #A97857",
"o. c #BB7A5C",
"O. c #B87859",
"+. c #B36B48",
"@. c #826D69",
"#. c #877B66",
"$. c #977766",
"%. c #827E7D",
"&. c #877A75",
"*. c #94766E",
"=. c #BB7C62",
"-. c #B87B65",
";. c #A87462",
":. c #C2785A",
">. c #C17C62",
",. c #7E817C",
"<. c #77807F",
"1. c #BA8819",
"2. c #B78828",
"3. c #BD9328",
"4. c #AC8735",
"5. c #BA9539",
"6. c #B08631",
"7. c #D99A09",
"8. c #D69C19",
"9. c #CB9518",
"0. c #DBA40B",
"q. c #DAA618",
"w. c #ECAE1C",
"e. c #E6A815",
"r. c #F3AE1B",
"t. c #F0AF17",
"y. c #EEB31C",
"u. c #EEB217",
"i. c #F3B41C",
"p. c #F3B61A",
"a. c #E4A90D",
"s. c #C99829",
"d. c #D49B23",
"f. c #C79835",
"g. c #CF9436",
"h. c #D7A638",
"j. c #D8A82C",
"k. c #E8AC26",
"l. c #EDB323",
"z. c #E9B329",
"x. c #F3B422",
"c. c #FAB422",
"v. c #F2B42A",
"b. c #F5B922",
"n. c #E6AC33",
"m. c #ECB333",
"M. c #EAB33B",
"N. c #E7B63A",
"B. c #F2B437",
"V. c #F0AD20",
"C. c #BD9848",
"Z. c #B78959",
"A. c #B4874F",
"S. c #9A8665",
"D. c #82827E",
"F. c #89867F",
"G. c #988976",
"H. c #938B74",
"J. c #B48B68",
"K. c #AB9271",
"L. c #C69C45",
"P. c #CB8F53",
"I. c #E49A58",
"U. c #D8AC41",
"Y. c #DBB249",
"T. c #E2B445",
"R. c #F0BA40",
"E. c #C28965",
"W. c #D79A6A",
"Q. c #C99B72",
"!. c #D49A75",
"~. c #C99569",
"^. c #E79B67",
"/. c #E8986B",
"(. c #D8A16D",
"). c #D5A878",
"_. c #C1A57E",
"`. c #E5A46B",
"'. c #E9A567",
"]. c #E6A874",
"[. c #EEAB72",
"{. c #7D7D82",
"}. c #757A80",
"|. c #827D81",
" X c #807D88",
".X c #7D8182",
"XX c #7D828A",
"oX c #828282",
"OX c #8A8484",
"+X c #8B8B86",
"@X c #848489",
"#X c #8B8C8B",
"$X c #878789",
"%X c #958A86",
"&X c #8C908D",
"*X c #94938D",
"=X c #8C8A92",
"-X c #938E91",
";X c #929292",
":X c #979696",
">X c #8E9294",
",X c #A49895",
"<X c #AD978A",
"1X c #B5A690",
"2X c #BDB8B4",
"3X c #BCB3AC",
"4X c #C6A389",
"5X c #D8AF8D",
"6X c #E8BA97",
"7X c #EFBA8B",
"8X c #CCBBAC",
"9X c #E3BFA7",
"0X c #F7C28B",
"qX c #ECC598",
"wX c #F4C594",
"eX c #F4CA9D",
"rX c #F8C699",
"tX c #F6D899",
"yX c #FFE699",
"uX c #EECBA2",
"iX c #E8C5A9",
"pX c #F4CCA3",
"aX c #FACCA2",
"sX c #F4CAA8",
"dX c #F5D1A6",
"fX c #ECD1B1",
"gX c #FFE5A7",
"hX c #D0C2A8",
"jX c #D6CBC8",
"kX c #DCD6C7",
"lX c #DCD5D5",
"zX c #CEC7C1",
"xX c #E4DACB",
"cX c #E5DBD5",
"vX c #E6E1DC",
"bX c #F2E5DC",
"nX c #EAE8E6",
"mX c #F4EEEC",
"MX c #F6F2EC",
"NX c #F5EDF2",
"BX c #F3F3F4",
"VX c #FEFCFC",
"CX c #FAF7F6",
"ZX c #EEF1F0",
"AX c #E5DFE3",
/* pixels */
"oXoXV V N n N V n N N N n n n N |.%.D.*X;X=X=X>X@Xn Z v #X;X+XF.oXOXM l N N n M g l MXnXBXCXVX|.|.oX",
"oXV V N n n n N g n n n l l n n |.V OX+X*X;X;X;X#Xg f c #X;X#XD.{.{.j l V m g VXCXCX%Xy r OXCXVXoXoX",
"oXV V N n n N V N N N N N N N V V oXoX#X*X$X$X#X%.j g k $X;X#X@X{.=X{.N V b k MX&.i t > > 6 OXVXoXV ",
"V V V V V V oX$X$X$X#X#X$X$X#X#X#X#XoXoXm V ,.M %.l h l +X*XmXG.#.#.#.#.#.H.&.&.t > K K K - y BXn V ",
"V V V V V $X#X;X;X:X:X:X;X;X;X:X:X#XOXC g k g l n n g V cXK.S.Y H H H H H D $ ; ^ ^ R A : , = ,XBXn ",
"V V V V V oX#X;X#X;X;X#X#X#X#X#X>X#X%.n n n m l m l kX1XK.w H U.N.z.M.R.B.U.+.K R K R A : ; = * nXN ",
"D.V V N n N V D.V V V V V N N N ,.V |.B c N b b l xX{ 1 G T.m.B.l.l.v.l.b.B.I.L K K R A : > = z nXV ",
"oXV N g f f g g n n n g g f f f g N C c n {.N VXxX` 4.T.z.l.i.c.i.x.b.t.t.V.g.L K K K : > = @.MXVXoX",
"V V N g g g g n N V N g g g g f N N N n n x VXcXY 6.M.v.l.x.t.c.y.x.w.e.7.9.F L K K A , - i NXVX|.%.",
"V V V V V V V V V V V V C V N g x g n V C VXcXq 6.M.x.t.c.c.i.w.x.7.7.a.l.n.g.A.L : , > = @.VX X{.V ",
"V V oX#X#X#X$XV V oXoXoXoX$XD.C h k k l VXkXY 5.M.v.r.c.x.w.l.7.7.e.u.t.l.k.h.f.T D + - @.vXVXV .X|.",
"V V oX#X;X#XoXV oXoXV oXoXoXoXV h h k m kX` 4.N.v.t.i.b.e.7.0.e.e.i.i.y.k.d.9.s.f.4.5 &.lXC C m oXoX",
"oXV oX#X;X;X$XV #XoXV N V V V V n x N l 8X3 U.l.x.y.b.e.0.a.e.i.b.i.y.k.d.s.s.f.3.C.8 ,XD.OXD.N N N ",
"V V oX#X;X:X;X;X#XV n n n n n n N c N kXS.T m.i.b.y.e.0.a.i.c.r.i.i.k.d.s.f.f.5.5.Y #.zX;X;XD.n g g ",
"V V oX#X#X;X;X;X#XV n n N N n n C N n 1X1 T.v.c.w.u.0.a.b.i.r.c.x.k.d.d.s.f.f.C.` { jX#X;X#X$Xn g g ",
"C V oX$X$X$X$X$X#XV N V V V N N n n vXK.H m.v.r.b.7.0.b.i.i.c.x.k.d.d.s.f.f.5.U s cXoX|.$X$XV f n n ",
"n N m n x b V $XV V V oX%.%.oXV n l %Xe U.v.l.b.V.7.a.p.p.i.c.k.d.s.s.f.f.5.I < xXVXn c j f k oX,.oX",
"j n n n b N V oXV V oXV oXV V ,.VXMXS.P B.i.b.w.7.e.i.p.p.i.k.8.s.s.f.f.3.2.U < vXN n n j h b m D.oX",
"M M V V ,.V V V V oXV B oX$XV m VXH.I h.x.p.u.i.7.t.p.p.p.w.d.s.s.s.f.f.3.2.I 3 kXVXV N B V B n V V ",
"*X*X-X-X-X#XD.V oXV |.OXoXV {.VXCX` G m.i.p.u.7.e.t.i.i.l.n.f.5.f.f.C.5.6.4.U ) p lX:X#X$X-X@Xc g g ",
";X;X;X;X;X*XoXV @X@X{.B @X{.XXCXG.U h.v.i.i.x.7.t.b.l.m.T.6.3 8 3 8 8 3 3 3 8 5 % zX;X-X:X:X@Xc f f ",
"$X$X@X#X#X+XoXV {.@X{.V {.@XB CXw 4.n.i.p.e.7.w.x.z.M.3.S 4 q u L E 0 9 0 0 0 9 p @.lXOX=X#X@Xn n n ",
"XX.X{.oXD.D.D..X{.V N m N N CX1XU f.v.i.i.u.7.k.M.2.I P w L O.>.:.=...] ~ ~ ! ] ] t &.jX{.@XV N V V ",
"XXXXoXV V ,.V oXV N m k n n nX5 5.N.v.i.t.a.q.n.2.S 4 Y J.=.:.:.:.:.O... ./ / ! ! ] = ,X@XV V oXD.oX",
"V @XoXD.D.V %.V |.V n k n MXhXe s.v.i.i.e.8.n.s.S T o.o.O.O.O.:.:.O.:.:...! / ! ! ~ t &.nXoXD.V D.oX",
"|.B D.+X+X&X#X#XOXC h g C kX5 L.m.u.p.y.w.8.h.2 | E.E.E.E.E.E.E.o.O.:.:.../ ! /  . .] 6 OX#X#XF.#X#X",
"B %.$X#X&X>X:X;X:XM d d .XxX< L.m.p.i.x.k.d.L.2 ).sX6XsXwXwXrX7X~.E.o.o.=...( +././.o.> &.-X*X:X;X;X",
"B %.OXOXnXlXlXlXcXlXCXg {.xX3 L.z.i.i.l.k.1.2 Z.6XdXsXsXaXaXeXeX6X7X!.=.=.O.+.^.'.[.!.L &.-X;X#X#X#X",
"$XC |.NX,X* * = = r 8XNXVXkX< L.m.c.i.l.j.J # Q.qXpXaXpXeXeXpXaXeXaX6X7X7X].I.^.'.^.].) &.-X;XXX$X$X",
"oXVXCX%Xu $.$.$.Q Q t i h a @ 4 g.z.l.z.1.2 A.5XeXeXpXpXuXfXfXsXdXpXpXaX0X`.`.].^.].).q *.*X$X.XoXoX",
"VXCXG.E X.X.=.=.-.! u = i G.K.A.I f.N.j.H # (.rXaXpXuX_.{ a @.@.' 5XaX7X'.'.W._ E u u ) *.1XVXV V V ",
"BX%X' [ o.o.O.>.:...] u p <XfXdXA.I s.h.I 3 (.rXaXpXdXS.  . X o   1XrX[.'.'.Z.+       ' [ a CXoXoXoX",
"BXy E =.o.o.=.=.O.:./ ] 9 9 K.iXfXP F U.I 3 ).rXrXpXdXS.. X X o O K.].'.'.'.~.+ o o   ' J.) 8XCX%.D.",
"ZXp E o.>.O._ E o.o. .! > % 0 K.iXe F U.I 1 W.rXaXpXpX$.  o X .   S.].'.'.`.E.+   o   ) !.| y mXV V ",
"BXp _ o.O. .u @.E ;...] u 0 [ q 4XY F h.I 1 (.rXqXdXpXK.9 6 6 6 8 J.].`.`.].~.8 8 & $ X.`._ y BXN N ",
"ZXr ) -.;.0 p xX6 [ =. .~ 0 8 4XiXe F U.I # W.0XaXuXpXuX6XiXiX9X6XrXrXrXrXwXrX6X9X4X!.W.W.| i BXg g ",
"BXz a $.' p &.xX9 ] o.+.! 0 9 4X9XY G U.U 3 (.rXeXuXeXdXeXuXsXsXpXaXeXeXeXeXpXpXpX5X`.'.T Y xXVXg g ",
"VXMX&.* * OXNXnX= [ o.+.] 0 - 9 5XY H U.I 1 (.wXeXpXpXpXeXeXpXpXeXeXpXdXpXpXpXpXeXrX'.'.W.| &.BXN N ",
",.D.mXAXnXnXN nXr $.o.o. .0 ; K.9XP F T.f.S P ).eXpXpXpXpXeXpXeXeXeXeXdXpXpXpXpXaXwX[.'.].X.y ZXV V ",
"oXV {.V n g N BXjXp _ o. .0 0 fXfXP F M.j.F # Q.wXeXpXpXpXeXaXpXpXpXeXaXuXpXpXeXwXaX[.'.].O.t BXoXoX",
"V %.%.D.D.V V V NXp W o. .E u 1XK.P 1.m.k.1.4 U ).eXpXpXeXpXuXpXsXpXpXeXpXpXeXeXrX7X'.'.].X.p BX$X$X",
"V %.oX+X+X&X&X#XNXr ] O. ._ E [ w 6.n.v.v.n.G # Z.qXpXpXpXpXdXuXpXuXeXeXeXeXrX0X7X`.'.'.`.Z.t BX#X#X",
"V ,.$X#X-X:X:X:XmXt _ o...} W D 2.n.v.v.v.j.J 2 | 5XeXpXpXqXeXpXpXeXwX0X0X0X7X`.'.'.'.I.'.X.y ZX;X;X",
",.,.@X@X#X+X+X+XCX%Xu X.-.O.L A.n.x.x.x.v.k.s.g.2 | 5XpXsXdXeX6X6X5XW.W.W.W.W.`.'.`.'.`.(.X.z CX#X#X",
"D..XXX@X|.|.%.,.m VX%Xi ;. .T P.B.i.c.i.i.y.7.n.s.S | 5X6XiX6XX. . . . .( ( ..!.!.Q.!.Q.[ $.mXCXoXoX",
"%.V .X{.|.%.%.V {.VXCX%Xu ) L P.M.z.l.v.v.w.8.n.h.L.P $ q [ $.Q Q ~ Q Q ! W W ] 9 ; ; & G.bXC @XV V ",
"&.B V V V V V V V C B CX,X7 6 8 L.T.T.T.N.N.h.f.Y.Y.C.X.s % % * * * * * = % % 6 8XjXjXzXvXn n V V V ",
"C C N N N m C V n V c c BXnXcX8XtXyXyXyXyXyXyXtXyXgXgXfXfX8X3X2X2X2X2X2X2X2X2X2XCXn g N {..Xm V oXoX",
"n n N N N n n n N n n N g f g M G.H.G.G.G.H.S.#.#.#.#.&.D.%.%.D.%.V V N n l n n n n n C V .X.XV oXoX",
"N N N N N n n n N n n N g f g V ;X*X;X;X#X#XoXV V ,.,.,.V V ,.V %.V V N n n n n n n n C V oXoXV oXoX"
};
