/* XPM */
static char *d3d61879fa854c389a8f7bcbc1e2e1ebVMRWZZyaXdxwq0QV[] = {
/* columns rows colors chars-per-pixel */
"64 64 168 2 ",
"   c #000001",
".  c #010903",
"X  c #0E0B06",
"o  c #1B0F0B",
"O  c #031204",
"+  c #041809",
"@  c #1C110C",
"#  c #21140E",
"$  c #2D1B0D",
"%  c #321C0F",
"&  c #221D17",
"*  c #002401",
"=  c #012C02",
"-  c #04220C",
";  c #0F260A",
":  c #082908",
">  c #003101",
",  c #063D07",
"<  c #0A330A",
"1  c #1E3C08",
"2  c #063011",
"3  c #262F04",
"4  c #3B3B01",
"5  c #312921",
"6  c #3F2F21",
"7  c #442613",
"8  c #48281F",
"9  c #532F17",
"0  c #5F351B",
"q  c #6B3D1E",
"w  c #4A2920",
"e  c #433B32",
"r  c #004400",
"t  c #004C00",
"y  c #0D420D",
"u  c #005400",
"i  c #005C00",
"p  c #13590D",
"a  c #094216",
"s  c #0D4B12",
"d  c #0A4A19",
"f  c #0E5114",
"g  c #0E5718",
"h  c #0E5818",
"j  c #1A5A14",
"k  c #135B1A",
"l  c #354214",
"z  c #235616",
"x  c #3B501C",
"c  c #006400",
"v  c #006B00",
"b  c #007400",
"n  c #007C00",
"m  c #0D681B",
"M  c #1F6517",
"N  c #266119",
"B  c #216918",
"V  c #25701A",
"C  c #2D7D1E",
"Z  c #255C25",
"A  c #294430",
"S  c #0F6C22",
"D  c #0F7326",
"F  c #0F7728",
"G  c #107627",
"H  c #107B29",
"J  c #1C7B2B",
"K  c #356526",
"L  c #6A4B1E",
"P  c #4A5924",
"I  c #544737",
"U  c #734120",
"Y  c #6E542F",
"T  c #5A623B",
"R  c #4A7B32",
"E  c #7E6A52",
"W  c #646465",
"Q  c #82532B",
"!  c #825737",
"~  c #8A5D3A",
"^  c #996A36",
"/  c #98783C",
"(  c #A17D3C",
")  c #9F7D47",
"_  c #A47B41",
"`  c #A17752",
"'  c #008400",
"]  c #008C00",
"[  c #038C08",
"{  c #009400",
"}  c #009B00",
"|  c #098716",
" . c #099A16",
".. c #2F811F",
"X. c #00A400",
"o. c #00AC00",
"O. c #06A10F",
"+. c #00B300",
"@. c #00BC00",
"#. c #06B20F",
"$. c #348C22",
"%. c #2B9129",
"&. c #389B29",
"*. c #63901C",
"=. c #72B118",
"-. c #599A24",
";. c #41A429",
":. c #59A424",
">. c #61A526",
",. c #7ABE2C",
"<. c #00C300",
"1. c #00CB00",
"2. c #00D200",
"3. c #00DA00",
"4. c #69AC78",
"5. c #B4B31B",
"6. c #A9843D",
"7. c #C0A90E",
"8. c #C39A39",
"9. c #99C813",
"0. c #A6CE0F",
"q. c #BCDE0A",
"w. c #88EB00",
"e. c #B8E400",
"r. c #BAF300",
"t. c #C0C000",
"y. c #C4DD0B",
"u. c #D6C31D",
"i. c #D0E90A",
"p. c #EAE10F",
"a. c #F8F405",
"s. c #FFFF00",
"d. c #F6E817",
"f. c #F1DD22",
"g. c #A98148",
"h. c #B18645",
"j. c #BD8F47",
"k. c #AD885D",
"l. c #B38B56",
"z. c #9B8365",
"x. c #9E9568",
"c. c #9B8B73",
"v. c #AE8761",
"b. c #AB8864",
"n. c #B38C67",
"m. c #C69548",
"M. c #DEAC52",
"N. c #E4BB43",
"B. c #C4A071",
"V. c #31529C",
"C. c #00719B",
"Z. c #197595",
"A. c #00BAFF",
"S. c #29C1F4",
"D. c #AF9E8F",
"F. c #BBA48E",
"G. c #D5B48B",
"H. c #D8B88F",
"J. c #DCBD94",
"K. c #EFD3A7",
"L. c #EDD2A9",
"P. c #E3CDB0",
"I. c #F4DAB2",
"U. c #FFE6BD",
"Y. c #ABB8D6",
"T. c #FFE7C0",
"R. c #FFEAC8",
"E. c white",
/* pixels */
"c 1.1.1.1.1.@.t v c b n 2.3.3.3.2.<.b ' } } ] { } ] ' ' @.@.@.1.<.1.1.1.1.1.1.o.+.X.v u { ' v 2.{ @.+.] 1.] v b u n n } +.o.X.} ",
"b 1.1.1.<.<.b ' b v ] 2.3.3.3.3.3.2.} ] X.X.X.X.X.X.} ] } @.@.1.+.X.+.@.<.@.X.v ] v > v v v 1.<.] @.' b c v b ] n t c r ' v n b ",
"v 1.1.1.1.} r ' n X.2.2.3.3.3.3.2.>._ _ U U U H H H y y j ;.;.;.;.;.;.;.;.;.H H H +.} { +.+.o.{ ' <.] ' v ' b o.} n c i ' i { { ",
"' o.1.<.o.c ' b { n o.1.3.3.3.3.2.>._ _ U U U H H H y y j ;.;.;.;.;.;.;.;.;.H H H <.@.X.c n ] ' n { X.@.@.1.o.' @.} b ' n ] { +.",
"{ c @.} ] +.@.o.X.' ' } -.:.>.,.,.5.u.u.7.7.7.%.%.%.y y j ;.;.;.;.;.;.;.;.;.%.%.%.| |  .| m [ ] b @.1.3.3.3.@.@.@.+.v n v c r i ",
"n b { ' @.@.<.<.} n n b _ _ h.M.M.f.s.s.s.s.s.;.;.;.y y j ;.;.;.;.;.;.;.;.;.;.;.;.H H H H H O.} +.2.2.3.3.3.@.' @.@.{ ] o.{ ' ' ",
"{ @.<.<.@.<.<.<.' ' ' n _ _ h.M.M.f.s.s.s.s.s.;.;.;.y y j ;.;.;.;.;.;.;.;.;.;.;.;.H H H H H #.X.<.3.2.2.2.3.<.' @.@.+.] @.@.+.b ",
"o.<.<.<.@.@.@.o._ _ _ _ s.s.p._ _ _ _ _ M.M.M.M.M.M.;.;.$.y y C C ;.;.;.;.;.;.;.;.;.;.&.H H g y y 2.3.3.2.2.' c +.+.@.{ @.@.@.n ",
"@.<.<.<.<.@.@.] _ _ _ _ s.s.p._ _ _ _ _ M.M.M.M.M.M.;.;.$.y y C C ;.;.;.;.;.;.;.;.;.;.&.H H g y y 2.3.3.} X.} } } { { n ' @.@.] ",
"@.<.<.<.<.@.o.{ _ _ _ _ s.s.p._ _ _ _ _ M.M.M.M.M.M.;.;.$.y y C C ;.;.;.;.;.;.;.;.;.;.&.H H g y y 2.3.2.} X.+.<.<.@.<.X.{ ' @.] ",
"@.<.@.+.o./ _ _ s.s.s.s._ _ h.M.M.j._ _ a.s.s._ _ _ ;.;.$.y y C C ;.;.;.;.;.;.;.;.H H H H H H H H y y y { } <.1.2.1.2.1.+.] @.n ",
"X.o.X.} } / _ _ s.s.s.s._ _ h.M.M.j._ _ a.s.s._ _ _ ;.;.$.y y C C ;.;.;.;.;.;.;.;.H H H H H H H H y y y } { @.1.2.1.2.2.2.{ i u ",
"{ } } { 2.Y Q Q s.s.s.s.m.m.j.^ ^ l.B.B.s.s.s._ _ _ q.q.9.....V V M M M M M M M M H H H H H H H H y y y { n n @.1.1.1.2.2.<.' r ",
"2.2.2.2.2.L U U s.s.s.s.M.M.m.U U k.G.G.s.s.s._ _ _ s.s.i.;.;.B B y y y y y y y y H H H H H H H H y y y X.X.{ ' } 1.1.2.2.2.} ] ",
"2.2.2.2.1.L U U s.s.s.s.M.M.m.U U k.G.G.s.s.s._ _ _ s.s.i.;.;.B B y y y y y y y y H H H H H H H H y y y +.@.<.o.{ @.1.2.2.1.X.v ",
"{ ] 1.2.2.1.1.] _ _ _ _ U U ~ G.G.G.G.G._ _ _ _ _ _ s.s.y.H H h h y y H H H H H H H H H H H H H H H H H y y y y ' @.@.<.@.@.] t ",
"r i @.2.2.2.1.@._ _ _ _ U U ~ G.G.G.G.G._ _ _ _ _ _ s.s.y.H H h h y y H H H H H H H H H H H H H H H H H y y y y ] X.X.b b c v ' ",
"' c b ] 1.@.} ' _ _ _ _ U U ~ G.G.G.G.G._ _ _ _ _ _ s.s.y.H H h h y y H H H H H H H H H H H H H H H H H y y y y ] ] ] v } } X.{ ",
"+.X.{ v { ' n n / / / / q q ! G.G.G.H.H.g.g.g.6.6.6.a.a.y.J J k k y y G G G H H H G G G G G H H H H H H y y y y ' <.} } +.+.+.+.",
"+.+.X.i v ' +.+.+.+.' v     5 G.G.L.U.U.G.G.G.s.s.s._ _ _ _ _ R R H H y y y H H H y y y y y m H H H H H y y y y { ' ' X.o.o.+.+.",
"+.+.{ ' } ] +.+.+.+.+.i     5 G.G.L.U.U.H.G.G.s.s.s._ _ _ _ _ R R H H y y y H H H y y y y y m H H H H H y y y y +.o.' ' o.+.+.+.",
"+.+.' n ' +.+.+.+.+.} b     # ~ ~ I e e L.I.I.s.s.s._ _ / Q Q x x f f S S S f f f y y < O O < f f H H H O O O O ] +.} n n +.+.+.",
"+.} { { n X.{ } X.X.X.'     o U U $     I.U.U.s.s.s._ _ ^ U U l l y y H H H y y y y y <     : y y H H H         o.} <.o.{ ' o.+.",
"X.] c +.X.n ' { } X.{ X.    o U U $     I.U.U.s.s.s._ _ ^ U U l l y y H H H y y y y y <     : y y H H H         <.+.X.1.@.' { } ",
"c v { X.{ v ' }         G.G.D.V.V.Y.E.E.T.U.U._ _ _ M.M.m.U U v.v.G.G.U.U.U.U.U.U.y y <     : y y y y y         1.<.+.X.1.] n b ",
"} = t v b ] v ]         G.G.D.V.V.Y.E.E.T.U.U._ _ _ M.M.m.U U v.v.G.G.U.U.U.U.U.U.y y <     : y y y y y         1.1.<.o.2.X.] o.",
"<.v i n c n ] b         G.G.D.V.V.Y.E.E.T.U.U./ / / N.N.8.0 0 b.b.J.J.U.U.U.K.K.K.< < < * * : < < s s s         1.1.1.+.@.] +.1.",
"1.} u b } +.+.{         G.G.D.V.V.Y.E.E.T.U.U.U U U s.s.t.    c.c.U.U.U.U.U._ _ _     > @.@.r     H H H         +.<.1.X.+.{ { 1.",
"1.@.n X.@.<.<.+.        G.G.D.V.V.Y.E.E.T.U.U.U U U s.s.7.    c.c.U.U.U.U.U._ _ _     > <.@.r     H H H         } X.} } @.X.<.1.",
"1.@.@.@.<.<.<.o.X.} X.} & & e F.F.P.R.R.U.U.U.U U U s.s.t.    Z.Z.S.S.k.l.l.@ @ @     > o.' =     s s s         <.{ X.X.X.X.<.1.",
"1.<.+.<.<.1.1.X.<.<.<.]     5 G.G.L.U.U.U.U.U.U U U s.s.t.    C.C.A.A.) _ _           * i r *     y y y         <.{ o.+.+.o.<.1.",
"1.1.1.1.1.1.1.} <.<.+.n     5 G.G.L.U.U.U.U.U.U U U s.s.t.    C.C.A.A.) _ _           O b ] t     y y y         ] c o.@.@.@.@.1.",
"<.1.1.1.1.1.1.o.+.X.b u { ' u     E G.G.G.G.G.U U U s.s.t.                  M.M.M.s.s.q.2.3.3.3.2.      } } ] { } ] ' ' @.@.@.1.",
"+.X.+.@.<.@.X.v ] v > v v v }     E G.G.G.G.G.U U U s.s.t.                  M.M.M.s.s.r.3.3.3.3.3.      X.X.X.X.X.X.} ] } @.@.1.",
"] @.<.<.X.} ' v @.+.} { +.+.{ = * T z.z.x.x.x.9 9 9 d.d.7.    + + - - O O O ( ( ( e.r.w.3.3.3.3.2., * = X.} } X.o.X.X.} X.} o.@.",
"@.@.@.@.{ ] ' } { <.@.X.c n ] ' n ,     , y y       M.M.6.    d d H H y y y       n o.1.3.3.3.3.2.3.{ X.} X.} X.o.+.+.{ u } ] ] ",
"@.X.+.X.n } 1.<.X.{ { <.{ i { ] b r     , y y       M.M.6.    d d H H y y y       ' ' } <.3.3.3.2.X.X.o.} } { } } } } } i b n +.",
"X.X.} { b ] 2.X.1.o.} <.+.n { . . d D D G G G D D D X X # q q $ $ . . D G G       n n b n @.{ { ] } X.X.} X.} } X.X.{ } b n X.} ",
"u c b ' ' n } X.2.2.@.<.@.X.X.    d H H H H H H H H     @ U U $ $     F H H       ' ' n , b b { n X.] v } X.} ] o.X.@.+.} t v b ",
"i +.' { } } ] { X.o.2.+.] X.X.    d H H H H H H H H     @ U U $ $     F H H       X.X.X.c u n o.X.{ c ' } X.X.' X.o.1.<.X.] c b ",
"u X.@.+.<.<.X.' X.o.1.X.    4 s.s.=.H H H H H       H H H H H 2 2     F H H       +.o.+.n { @.+.+.c r v @.<.o.} <.1.1.1.@.{ b u ",
"n @.@.+.} X.+.} +.] X.}     4 s.s.=.H H H H H       H H H H H 2 2     F H H       +.X.' } @.<.+.o.b n +.X.o.<.X.<.<.1.<.+.@.v ' ",
"{ X.@.] X.@.@.<.} X.+.+.    3 0.0.*.K K K K K       4.4.4.4.4.A A     Z Z Z o o o u b v o.<.<.@.} ' ] +.@.{ X.X.@.<.<.@.+.+.v +.",
"{ X.+.' X.@.@.{ ' } X.@.    + H H P U U U U U       E.E.E.E.E.W W     8 w w w w w     * X.<.<.<.o.} o.@.@.X.+.X.+.+.@.@.+.@.} 2.",
"2.} } X.+.X.+.X.{ } { ]     + H H P U U U U U       E.E.E.E.E.W W     8 w w w w w     * <.<.<.<.<.X.{ o.X.X.<.X.X.+.<.<.@.@.v <.",
"X.<.] ] } ' ] ] X.' X.n     ; ;.;.;.;.;.;.;.;.      w w w w w @ @     8 w w H H H     = <.<.<.<.{ X.X.X.+.+.<.' n X.1.1.<.<.{ } ",
"c ' { ] v i u c { X.o.X.    ; ;.;.;.;.;.;.;.;.      w w w w w @ @     8 w w H H H     = @.<.<.<.] n ' @.1.@.<.} c ] @.1.<.+.] <.",
"b { } u i n c r b { X.X.    ; ;.;.;.;.;.;.;.;.      w w w w w @ @     8 w w H H H     * o.<.<.n { v c +.2.@.+.} c v { X.@.} ' X.",
"c ] ] u ' X.{ ] { <.<.}     ; ;.;.;.;.;.;.;.;.      w w w w w @ @     8 w w H H H     = ' X.} ] o.n n X.<.<.} ] c ' n ] } ] @.} ",
"] 1.+.r n o.X.X.<.<.<.X.+.{ n     N ;.;.H H H       U U U U U $ $     &.;.;.      c ] } +.+.} @.<.@.] n X.X.{ +.v { b X.] ] +.{ ",
"] <.' b ] ' n X.<.<.<.X.<.+.{     N ;.;.H H H       U U U U U $ $     &.;.;.      ' b ] X.} <.1.1.1.<.{ c n X.} n b r b X.+.} ] ",
"} ] v X.o.] { o.@.{ { ' <.+.X.i i p z z a a a       n.n.v.` ` 6 6     z z z u u u +.' v i X.1.1.1.1.1.1.{ n c { b } i ' } { c { ",
"<.+.+.} } } u i X.i ] v @.@.X.+.+.r                 U.U.I.G.G.I I           +.+.+.+.+.i t } 1.1.1.1.1.1.+.X.X.@.X.X.b ' b ] o.@.",
"2.1.1.<.} +.v r c ' X.n v o.] <.o.r                 U.U.I.G.G.I I           +.+.+.+.} b b ] 1.1.1.1.1.@.n { ' b b +.] } <.1.1.1.",
"2.2.1.@.v ] ] v } +.@.] n ] b     7 U U w w w w w w                   { n X.{ } X.X.X.' @.' @.1.1.1.@.X.n X.n ' } { b } 1.1.1.2.",
"2.2.2.+.] X.n { +.' } X.o.+.]     7 U U w w w w w w                   X.X.n ' { } } ] X.<.] o.@.@.X.n b n { ] { ] ' ' <.1.1.2.2.",
"2.1.+.} n ' v n ' ] +.@.@.@.{     7 U U w w w w w w                   } { v ' } } } v } +.] { } b c ' } } X.X.o.X.] b 1.1.2.1.2.",
"1.X.i ' ' v { c X.@.@.@.@.@.{     7 U U U U U w w w           v i = t v b ] v ] o.X.X.{ } { { { n c { X.X.+.+.+.+.X.v } { { 2.2.",
"u c c } +.o.' v @.<.@.@.@.<.{     7 U U U U U w w w           n b v i n c n ] b X.@.<.o.o.{ <.<.} ] o.+.o.o.+.+.+.c ' +.X.X.} ] ",
"] c } <.<.<.] n @.<.<.@.@.@.X.t c 1 % % % % % # # # b i c u u X.X.} u b } +.+.{ X.+.+.@.o.{ <.<.{ +.+.o.o.+.+.+.+.{ +.@.@.@.+.+.",
"@.o.' ] <.1.+.n @.<.<.@.<.@.X.{ @.t                 } } @.X.<.1.1.@.n X.@.<.<.+.@.@.@.<.X.<.<.] } +.+.+.+.o.+.' { @.@.@.@.@.@.<.",
"<.@.+.{ 1.1.1.] @.<.@.+.o.' v c @.t                 X.X.X.X.<.1.1.@.@.@.<.<.<.o.<.@.<.+.1.1.<.] X.+.+.+.+.o.X.' +.@.@.@.@.@.<.<.",
"<.+.{ 1.1.1.1.] X.} X.] i r i b c ] ] X.@.<.X.<.<.{ o.+.+.o.<.1.1.<.+.<.<.1.1.X.<.<.<.] 1.<.+.b c } ] X.} ] t n +.@.@.@.@.<.<.<.",
"o.} ] 1.1.1.1.r i b n i b ] 1.@.{ n r +.] ] v ' ] c o.@.@.@.@.1.1.1.1.1.1.1.1.} <.<.+.n @.+.{ { n c i c ' i ' i b } +.@.<.<.@.@."
};
