/* XPM */
static char *_d7a887237fc423590201ca94acac5fdxLQ0PQmHwrtZgZ29[] = {
/* columns rows colors chars-per-pixel */
"64 64 174 2 ",
"   c #000001",
".  c #020D04",
"X  c #090708",
"o  c #150E0A",
"O  c #041705",
"+  c #031708",
"@  c #041D09",
"#  c #0C1F09",
"$  c #171805",
"%  c #1F1209",
"&  c #090F16",
"*  c #20160A",
"=  c #28160C",
"-  c #2C1914",
";  c #301B15",
":  c #072107",
">  c #042B08",
",  c #092B09",
"<  c #19210D",
"1  c #003501",
"2  c #003C01",
"3  c #0B340B",
"4  c #0B3A0C",
"5  c #2A2210",
"6  c #3A2111",
"7  c #392B17",
"8  c #3C211A",
"9  c #462715",
"0  c #49291F",
"q  c #663A1D",
"w  c #4A2920",
"e  c #512D20",
"r  c #423A2C",
"t  c #583120",
"y  c #493E30",
"u  c #633B24",
"i  c #004401",
"p  c #084004",
"a  c #004C00",
"s  c #0D420D",
"d  c #174506",
"f  c #005400",
"g  c #005C00",
"h  c #0D4A11",
"j  c #0E5617",
"k  c #0B521C",
"l  c #0E5E1C",
"z  c #165312",
"x  c #304214",
"c  c #365216",
"v  c #006400",
"b  c #006B00",
"n  c #007400",
"m  c #007C00",
"M  c #0F671F",
"N  c #1F6417",
"B  c #19661C",
"V  c #256F1A",
"C  c #2B6C1B",
"Z  c #356F14",
"A  c #27731B",
"S  c #2C791D",
"D  c #1E5F25",
"F  c #395128",
"G  c #0D6421",
"H  c #0F6920",
"J  c #166921",
"K  c #0F7024",
"L  c #147726",
"P  c #107B29",
"I  c #316826",
"U  c #425B12",
"Y  c #5D541A",
"T  c #624F1E",
"R  c #426C12",
"E  c #467216",
"W  c #425E25",
"Q  c #495822",
"!  c #4F4538",
"~  c #5E4139",
"^  c #624B22",
"/  c #734120",
"(  c #684D35",
")  c #506A25",
"_  c #5A7325",
"`  c #626223",
"'  c #6B7E2B",
"]  c #315273",
"[  c #564D40",
"{  c #584F42",
"}  c #484C56",
"|  c #6A5440",
" . c #5A6547",
".. c #607141",
"X. c #80531D",
"o. c #85582A",
"O. c #8F6233",
"+. c #936C3A",
"@. c #96763C",
"#. c #957547",
"$. c #A47B41",
"%. c #A47B56",
"&. c #008400",
"*. c #008C00",
"=. c #168806",
"-. c #009400",
";. c #009B00",
":. c #169906",
">. c #2F821F",
",. c #00A400",
"<. c #00AC00",
"1. c #14A506",
"2. c #00B300",
"3. c #0CB603",
"4. c #00BC00",
"5. c #2AA70F",
"6. c #198329",
"7. c #218929",
"8. c #308320",
"9. c #368F23",
"0. c #379224",
"q. c #359627",
"w. c #4A861E",
"e. c #4C8D27",
"r. c #528226",
"t. c #538B2C",
"y. c #489727",
"u. c #589823",
"i. c #6B8A2B",
"p. c #41A429",
"a. c #78A737",
"s. c #00C300",
"d. c #00CB00",
"f. c #00D200",
"g. c #00DA00",
"h. c #10D106",
"j. c #3D9451",
"k. c #748B51",
"l. c #7FA553",
"z. c #618461",
"x. c #969600",
"c. c #A7A700",
"v. c #B59435",
"b. c #BFDE0D",
"n. c #CCC91D",
"m. c #DFD117",
"M. c #E4DB12",
"N. c #DDEF08",
"B. c #EFE908",
"V. c #FEFF00",
"C. c #979B44",
"Z. c #AF8444",
"A. c #8BA35A",
"S. c #8BB45A",
"D. c #92836C",
"F. c #AD8560",
"G. c #B7916C",
"H. c #B9946F",
"J. c #BFA77D",
"K. c #DDAC52",
"L. c #C09C6B",
"P. c #C2A97F",
"I. c #2F88A3",
"U. c #01ADE4",
"Y. c #00BAFF",
"T. c #A7A7A8",
"R. c #D5B48B",
"E. c #E4CBA1",
"W. c #EED2A6",
"Q. c #E8D6AC",
"!. c #F3D8AE",
"~. c #F7DDB4",
"^. c #FFE6BD",
"/. c white",
/* pixels */
"v d.d.d.d.d.4.a b v n m f.g.g.g.f.s.n &.;.;.*.-.;.*.&.&.4.4.4.d.s.d.d.d.d.d.d.<.2.,.b f -.&.b f.-.4.2.*.d.*.b n f m m ;.2.<.,.;.",
"n d.d.d.s.s.n &.n b *.f.g.g.g.g.g.f.;.*.,.,.,.,.,.,.;.*.;.4.4.d.2.,.2.4.s.4.,.b *.b 1 b b b d.s.*.4.&.n v b n *.m a v a &.b m n ",
"b d.d.d.d.;.i &.m ,.f.f.g.g.g.g.f.f.m ,.,.;.;.,.:./ / / $.$.$.$.$.$.$.$.$.$./ / / 1.;.-.2.2.<.-.&.s.*.&.b &.n <.;.m v g &.g -.*.",
"&.<.d.s.<.v &.n -.m 2.d.f.g.g.g.f.g.-.,.;.,.;.,.:./ / / $.$.$.$.$.$.$.$.$.$./ / / 1.4.,.v m *.&.m -.,.4.4.d.<.&.4.;.n &.m *.-.2.",
"-.v 4.;.*.2.4.<.,.&.&.;.s.g.g.g.f.,.,.<.;.;.-.;.=./ / / $.$.$.$.$.$.$.$.$.$./ / / =.-.s.-.g -.*.n 4.d.g.g.g.4.4.4.2.b m b v a g ",
"m n -.&.4.4.s.s.;.m m n m 4.-.-.*.;.,.,.;.1     5 K.K.K.V.V.V.V.V.V.M.$.$.$.$.$.$.B.V.V.m.$.$.$.2.f.f.g.g.g.4.&.4.4.-.*.<.-.&.&.",
"-.4.s.s.4.s.s.s.&.&.&.m 2 n n -.m ,.*.b ;.1     5 K.K.K.V.V.V.V.V.V.M.$.$.$.$.$.$.B.V.V.m.$.$.$.s.g.f.f.f.g.s.&.4.4.2.*.4.4.2.n ",
"<.s.s.s.4.4.4.<.,.,.,.,.v f m <.,.-.v m ;.1     5 K.K.K.V.V.V.V.V.V.M.$.$.$.$.$.$.B.V.V.m.$.$.$.d.g.g.g.f.f.&.v 2.2.4.-.4.4.4.m ",
"4.s.s.s.s.4.4.*.2.2.<.2.m -.4.2.2.v       C p.p.p.p.p.p.p.p.p.p.p.p.p.p.p.p.p.p.p.N.V.V.m.$.$.$.$.$.$.h.;.,.;.;.;.-.-.m &.4.4.*.",
"4.s.s.s.s.4.<.*.4.2.,.&.;.4.s.2.<.n       C p.p.p.p.p.p.p.p.p.p.p.p.p.p.p.p.p.p.p.N.V.V.m.$.$.$.$.$.$.h.;.,.2.s.s.4.s.,.-.&.4.*.",
"4.s.4.2.<.-.-.*.*.&.2.*.<.s.s.;.&.b # # # C 0.0.0.0.0.0.0.0.0.0.0.0.0.0.0.0.0.0.0.b.N.N.n.Z.Z.Z.v.v.v.5.=.=.3.d.f.d.f.d.2.*.4.m ",
",.<.,.;.;.&.f m -.-.*.m ,.s.<.      p.p.p.N s s s s s s s s s s s s s s s s s s s 0.p.p.a.K.K.K.V.V.V.X./ / E d.f.d.f.f.f.-.g f ",
"-.;.;.-.f.f.&.*.;.;.;.*.s.s.<.      p.p.p.N s s s s s s s s s s s s s s s s s s s 0.p.p.a.K.K.K.V.V.V.X./ / U 4.d.d.d.f.f.s.&.i ",
"f.f.f.f.f.f.d.-.,.,.;.n m &.m , , , >.>.>.V N N N N N N N N N N N N N N N N N N N S >.>.t.C.C.C.c.c.c.o.o.o.E &.;.d.d.f.f.f.;.*.",
"f.f.f.f.d.d.s.;.,.;.;.i     . P P P s s s 8.p.p.p.p.p.p.p.p.p.p.p.p.p.p.p.p.p.p.p.z s s j P P P       +.$.$.u.<.-.4.d.f.f.d.,.b ",
"-.*.d.f.f.d.d.*.-.*.<.2     . P P P s s s 8.p.p.p.p.p.p.p.p.p.p.p.p.p.p.p.p.p.p.p.z s s j P P P       +.$.$.u.,.&.4.4.s.4.4.*.a ",
"i g 4.f.f.f.d.4.*.&.<.a     . l l l A A A 0.p.p.p.p.p.p.p.p.p.p.p.p.p.p.p.p.p.p.p.S A A B l l l       w.u.u.5.2.*.,.,.n n v b &.",
"&.v n *.d.4.;.&.v v *.i       s s s p.p.p.p.p.p.p.p.p.p.p.p.p.p.p.p.p.p.p.p.p.p.p.p.p.p.>.s s s       ,.2.4.,.,.*.*.*.b ;.;.,.-.",
"2.,.-.b -.&.m m ,.&.n 1       s s s p.p.p.p.p.p.p.p.p.p.p.p.p.p.p.p.p.p.p.p.p.p.p.p.p.p.>.s s s       ,.s.2.-.*.&.s.;.;.2.2.2.2.",
"2.2.,.g b ' i.i.S.S.A.F , , 3 M M M N N N 9.p.p.p.p.p.p.p.p.p.p.p.p.p.p.p.p.p.p.p.V N N B M M M , , , l.S.S.l.i.i.' &.,.<.<.2.2.",
"2.2.-.&.;.$.$.$.R.R.R...s s h P P P s s s 8.p.p.p.p.p.p.p.p.p.p.p.p.p.p.p.p.p.p.p.z s s j P P P s s s P.R.R.L.$.$.$.&.&.<.2.2.2.",
"2.2.&.m &.$.$.$.R.R.R...s s h P P P s s s 8.p.p.p.p.p.p.p.p.p.p.p.p.p.p.p.p.p.p.p.z s s j P P P s s s P.R.R.L.$.$.$.;.m m 2.2.2.",
"2.Z Y Y T W.W.W.~.~.~.k.s s h P P P K K K q.p.p.p.p.p.p.p.p.p.p.p.p.p.p.p.p.p.p.p.L K K L P P P s s s E.~.~.!.W.W.W.Y Y Y &.<.2.",
",.Z / / / ^.^.^.^.^.^.k.s s h P P P P P P q.p.p.p.p.p.p.p.p.p.p.p.p.p.p.p.p.p.p.p.6.P P P P P P s s s Q.^.^.^.^.^.^./ / / &.-.;.",
"v c / / / ^.^.^.^.^.^.k.s s h P P P P P P q.p.p.p.p.p.p.p.p.p.p.p.p.p.p.p.p.p.p.p.6.P P P P P P s s s Q.^.^.^.^.^.^./ / / *.m n ",
";.> a b n / / / $.$.$.Q s s h P P P s s s H P P 6.p.p.p.p.p.p.p.p.p.p.p.p.p.P P P h s s j P P P s s s #.$.$.+./ / / s.<.d.,.*.<.",
"s.b g m v / / / $.$.$.Q s s h P P P s s s H P P 6.p.p.p.p.p.p.p.p.p.p.p.p.p.P P P h s s j P P P s s s @.$.$.O./ / / d.2.4.*.2.d.",
"d.;.f n -./ / / $.$.$.Q s s h P P P s s s H P P 6.p.p.p.p.p.p.p.p.p.p.p.p.p.P P P h s s j P P P s s s @.$.$.O./ / / d.,.2.-.-.d.",
"d.4.m ,.4.s.s.2./ / / I.Y.Y.U.s s s       k P P P P P P p.p.p.p.p.p.q.P P P P P P +     O s s s Y.Y.Y.( / / R s.;.,.;.;.4.,.s.d.",
"d.4.4.4.s.s.s.2./ / / I.Y.Y.U.s s s       k P P P P P P p.p.p.p.p.p.q.P P P P P P +     O s s s Y.Y.Y.( / / R s.s.-.,.,.,.,.s.d.",
"d.s.2.s.s.d.d.,./ / / I.Y.Y.U.s s s       k P P P P P P p.p.p.p.p.p.q.P P P P P P +     O s s s Y.Y.Y.( / / R s.s.-.<.2.2.<.s.d.",
"d.d.d.d.d.d.d.;.      x.V.V.B./ / /       k P P P P P P P P P P P P P P P P P P P +     = / / / V.V.V.$     > &.*.v <.4.4.4.4.d.",
"s.d.d.d.d.d.d.<.      x.V.V.B./ / /       k P P P P P P P P P P P P P P P P P P P +     = / / / V.V.V.$     1 -.;.*.&.&.4.4.4.d.",
"2.,.2.4.s.4.,.b       x.V.V.B./ / /       k P P P P P P P P P P P P P P P P P P P +     = / / / V.V.V.$     i ,.,.,.;.*.;.4.4.d.",
"*.4.s.s.,.;.&.b 4.2.;.2     o $.$.$.      , s s h P P P P P P P P P P P P P s s s .     7 $.$.$.      -.,.;.;.,.<.,.,.;.,.;.<.4.",
"4.4.4.4.-.*.&.;.-.s.4.i     o $.$.$.      , s s h P P P P P P P P P P P P P s s s .     7 $.$.$.      ;.;.,.;.,.<.2.2.-.f ;.*.*.",
"4.,.2.,.m ;.d.s.,.-.-.a     o $.$.$.      , s s h P P P P P P P P P P P P P s s s .     7 $.$.$.      ;.;.;.-.;.;.;.;.;.g n m 2.",
",.,.;.-.n *.f.,.d.<.;.s.2.m ,.                  + P P P P P P P P P P P P P                     *.;.,.,.;.,.;.;.,.,.-.;.n m ,.;.",
"f v n &.&.m ;.,.f.f.4.s.4.,.4.                  + P P P P P P P P P P P P P                     m ,.*.b ;.,.;.*.<.,.4.2.;.a b n ",
"g 2.&.-.;.;.*.-.,.<.f.<.*.,.2.                  + P P P P P P P P P P P P P                     ;.*.v m ;.,.,.&.,.<.d.s.,.*.v n ",
"f ,.4.2.s.s.,.&.,.<.d.i     . P P P s s s O     . s s s P P P P P P H s s s       3 s s j P P P       v 4.s.<.;.s.d.d.d.4.-.n f ",
"m 4.4.2.;.,.2.;.2.*.,.i     . P P P s s s O     . s s s P P P P P P H s s s       3 s s j P P P       ,.,.<.s.,.s.s.d.s.2.4.b &.",
"-.,.4.*.;.4.4.s.&.*.*.p X X o j.j.j.s s s : + + @ 3 3 3 P P P P P P H 3 3 3 + + + 4 s s D j.j.j.& & & &.-.n -.,.4.s.s.4.2.2.b 2.",
"-.,.2.&.,.4.4.-.      - w w ~ /././.s s s H P P G       P P P P P P l       P P P h s s z./././.] ] ] X     a ,.2.2.4.4.2.4.;.f.",
"f.;.;.,.2.,.2.,.      - w w ~ /././.s s s H P P G       P P P P P P l       P P P h s s z./././.] ] ] X     f ,.,.2.s.s.4.4.b s.",
",.s.*.*.;.f g g = = = 9 t t u T.T.T.x x x J P P G       M M M M M M h       P P P x x x  .T.T.T.} } } - = = d f f b d.d.s.s.-.;.",
"v &.-.*.b       / / / / / / q       / / / I P P G       s s s s s s 3       P P P ^ / / 9       / / / / / / 9       4.d.s.2.*.s.",
"n -.;.f f       / / / / / / q       / / / I P P G       s s s s s s 3       P P P ^ / / 9       / / / / / / 9       -.,.4.;.&.,.",
"v *.*.f &.      H.H.H.F.%.%.#.: : : _ _ _ ) W W Q 6 6 6 : : : : : : < 6 6 6 W W W _ _ _ c : : : %.%.%.G.H.H.|       m *.;.*.4.;.",
"*.d.2.i n       ^.^.^.E.R.R.J.s s s p.p.p.` / / / / / /             % / / / / / / y.p.p.>.s s s R.R.R.^.^.^.D.      n ,.*.*.2.-.",
"*.s.&.n &.      ^.^.^.E.R.R.J.s s s p.p.p.` / / / / / /             % / / / / / / y.p.p.>.s s s R.R.R.^.^.^.D.      i n ,.2.;.*.",
";.*.b ,.,.g v n { { { ! y y r O O O p.p.p.e.r.r.r.r.r.r.C C C C C C Z r.r.r.r.r.r.y.p.p.A O O O y y y [ { { F g a v g &.;.-.v -.",
"s.2.2.;.;.;.f g                     p.p.p.p.p.p.p.p.p.p.p.p.p.p.p.p.p.p.p.p.p.p.p.p.p.p.C                   i 4.,.,.n &.n *.<.4.",
"f.d.d.s.;.2.b i                     p.p.p.p.p.p.p.p.p.p.p.p.p.p.p.p.p.p.p.p.p.p.p.p.p.p.C                   1 n n 2.*.;.s.d.d.d.",
"f.f.d.4.b *.*.b m -.;.>     X 8 8 8 # # # B 6.6.7.p.p.p.p.p.p.p.p.p.p.p.p.p.6.6.6.3 # # < 8 8 8       m v *.b &.;.-.n ;.d.d.d.f.",
"f.f.f.2.*.,.m -.2.&.;.i     X w w w       k P P 6.p.p.p.p.p.p.p.p.p.p.p.p.p.P P P +     o w w w       b m -.*.-.*.&.&.s.d.d.f.f.",
"f.d.2.;.m &.b m &.*.2.a     X w w w       k P P 6.p.p.p.p.p.p.p.p.p.p.p.p.p.P P P +     o w w w       -.;.,.,.<.,.*.n d.d.f.d.f.",
"d.,.g &.&.b -.v ,.4.4.2.2.4.,.      0 0 0 u / / / / / /             * / / / / / / 0 0 0 ;       n g *.,.,.2.2.2.2.,.b ;.-.-.f.f.",
"f v v ;.2.<.&.b 4.s.4.4.4.s.,.      w w w u / / / / / /             % / / / / / / e w w ;       ;.*.<.2.<.<.2.2.2.v &.2.,.,.;.*.",
"*.v ;.s.s.s.*.m 4.s.s.4.4.4.,.      w w w u / / / / / /             % / / / / / / e w w ;       -.2.2.<.<.2.2.2.2.-.2.4.4.4.2.2.",
"4.<.&.*.s.d.2.m 4.s.s.4.s.4.,.-.4.4.                    4.,.s.d.d.4.g                   1 s.s.*.;.2.2.2.2.<.2.&.-.4.4.4.4.4.4.s.",
"s.4.2.-.d.d.d.*.4.s.4.2.<.&.b v 4.4.                    ,.,.s.d.d.4.&.                  i d.s.*.,.2.2.2.2.<.,.&.2.4.4.4.4.4.s.s.",
"s.2.-.d.d.d.d.*.,.;.,.*.g a g n v *.                    2.<.s.d.d.s.&.                  i s.2.n v ;.*.,.;.*.a m 2.4.4.4.4.s.s.s.",
"<.;.*.d.d.d.d.i g n m g n *.d.4.-.m i 2.*.*.b &.*.v <.4.4.4.4.d.d.d.d.d.d.d.d.;.s.s.2.m 4.2.-.-.m v g v &.g &.g n ;.2.4.s.s.4.4."
};
