/* XPM */
static char *_ed24d668eb54c4dcbc79a1f240372ea6Vm8FzkvFAPBByHd[] = {
/* columns rows colors chars-per-pixel */
"64 64 166 2 ",
"   c #000001",
".  c #010903",
"X  c #0E0B06",
"o  c #1B0F0B",
"O  c #031104",
"+  c #031907",
"@  c #1C110C",
"#  c #21140E",
"$  c #2D1B0D",
"%  c #321C0F",
"&  c #221D17",
"*  c #022305",
"=  c #012C01",
"-  c #0F260A",
";  c #082A08",
":  c #003101",
">  c #003C01",
",  c #0A340B",
"<  c #0B3D0D",
"1  c #1E3F08",
"2  c #063011",
"3  c #262F04",
"4  c #3B3B01",
"5  c #312921",
"6  c #3F2F21",
"7  c #442613",
"8  c #48281F",
"9  c #532F17",
"0  c #5F351B",
"q  c #6B3D1E",
"w  c #4A2920",
"e  c #433B32",
"r  c #004400",
"t  c #004C00",
"y  c #0D420D",
"u  c #005400",
"i  c #005C00",
"p  c #135B0D",
"a  c #094316",
"s  c #0D4B12",
"d  c #0A4A19",
"f  c #0E5114",
"g  c #0E5718",
"h  c #0E5818",
"j  c #1A5A14",
"k  c #135B1A",
"l  c #354214",
"z  c #235616",
"x  c #3B501C",
"c  c #006400",
"v  c #006B00",
"b  c #007400",
"n  c #007C00",
"m  c #0F661E",
"M  c #1F6517",
"N  c #266119",
"B  c #216918",
"V  c #25701A",
"C  c #2D7D1E",
"Z  c #255C25",
"A  c #294430",
"S  c #0F6C22",
"D  c #0F7326",
"F  c #0F7728",
"G  c #107627",
"H  c #107B29",
"J  c #1C7B2B",
"K  c #356526",
"L  c #6A4B1E",
"P  c #4A5924",
"I  c #544737",
"U  c #734120",
"Y  c #6E542F",
"T  c #5A653B",
"R  c #4A7B32",
"E  c #7E6A52",
"W  c #646465",
"Q  c #82532B",
"!  c #825737",
"~  c #8A5D3A",
"^  c #996A36",
"/  c #99753B",
"(  c #A17D3C",
")  c #9F7D47",
"_  c #A47B41",
"`  c #A17752",
"'  c #008400",
"]  c #008C00",
"[  c #068E0F",
"{  c #009400",
"}  c #009C00",
"|  c #05980C",
" . c #098A16",
".. c #099116",
"X. c #2F811F",
"o. c #00A400",
"O. c #00AB00",
"+. c #00B300",
"@. c #00BC00",
"#. c #348C22",
"$. c #2B9129",
"%. c #389B29",
"&. c #63901C",
"*. c #72B118",
"=. c #618026",
"-. c #619726",
";. c #7A992C",
":. c #41A429",
">. c #59A324",
",. c #00C300",
"<. c #00CB00",
"1. c #00D200",
"2. c #00DA00",
"3. c #69AC78",
"4. c #88BA00",
"5. c #B4B21B",
"6. c #97813D",
"7. c #A9843D",
"8. c #C0A90E",
"9. c #C39A39",
"0. c #99C813",
"q. c #A6CE0F",
"w. c #BADB06",
"e. c #BBF000",
"r. c #C0C000",
"t. c #C4DD0B",
"y. c #D6C31D",
"u. c #D0E90A",
"i. c #EAE10F",
"p. c #F8F405",
"a. c #FFFF00",
"s. c #F6E817",
"d. c #F1DD22",
"f. c #A98148",
"g. c #B68A46",
"h. c #AD885D",
"j. c #B38B56",
"k. c #9B8365",
"l. c #9E9568",
"z. c #9B8B73",
"x. c #AE8761",
"c. c #AB8864",
"v. c #B38C67",
"b. c #C69548",
"n. c #DEAC52",
"m. c #E4BB43",
"M. c #C4A071",
"N. c #31529C",
"B. c #00719B",
"V. c #197595",
"C. c #00BAFF",
"Z. c #29C1F4",
"A. c #AF9E8F",
"S. c #BBA48E",
"D. c #D5B48B",
"F. c #D8B88F",
"G. c #DCBD94",
"H. c #EFD3A7",
"J. c #EDD2A9",
"K. c #E3CDB0",
"L. c #F4DAB2",
"P. c #FFE6BD",
"I. c #ABB8D6",
"U. c #FFE7C0",
"Y. c #FFEAC8",
"T. c white",
/* pixels */
"c <.<.<.<.<.@.t v c b n 1.2.2.2.1.,.b ' } } ] { } ] ' ' @.@.@.<.,.<.<.<.<.<.<.O.+.O.v u { ' v 1.{ @.+.] <.] v b u n n } +.O.O.} ",
"b <.<.<.,.,.b ' b v ] 1.2.2.2.2.2.1.} ] o.o.o.o.o.o.} ] } @.@.<.+.O.+.@.,.@.o.v ] v : v v v <.,.] @.' b c v b ] n t c t ' v n b ",
"v <.<.<.<.} r ' n o.1.1.2.2.2.2.1.1.n o.o.} } H H H :.:.:.:.:.:.:.:.:.j y y H H H U U U _ _ -.{ ' ,.] ' v ' b O.} n c i ' i { ] ",
"' O.<.,.O.c ' b { n O.<.1.2.2.2.1.2.{ O.} O.} H H H :.:.:.:.:.:.:.:.:.j y y H H H U U U _ _ =.' n { o.@.@.<.O.' @.} b ' n ] { +.",
"{ c @.} ] +.@.O.o.' ' } ,.2.2.2.1.| .... . . .$.$.$.:.:.:.:.:.:.:.:.:.j y y $.$.$.8.8.8.y.y.5.;.;.-.>.>.2.2.@.@.@.+.v n v c t i ",
"n b { ' @.@.,.,.} n n b n @.{ { ] [ H H H H H :.:.:.:.:.:.:.:.:.:.:.:.j y y :.:.:.a.a.a.a.a.d.n.n.g._ _ 2.2.@.' @.@.{ ] O.{ ' ' ",
"{ @.,.,.@.,.,.,.' ' ' n > b b { n | H H H H H :.:.:.:.:.:.:.:.:.:.:.:.j y y :.:.:.a.a.a.a.a.d.n.n.g._ _ 1.2.,.' @.@.+.] @.@.+.b ",
"O.,.,.,.@.@.@.O.o.O.O.o.c u n y y g H H %.:.:.:.:.:.:.:.:.:.:.C C y y #.:.:.n.n.n.n.n.n._ _ _ _ _ i.a.a._ _ _ _ +.+.@.{ @.@.@.n ",
"@.,.,.,.,.@.@.] +.+.O.+.n { +.y y g H H %.:.:.:.:.:.:.:.:.:.:.C C y y #.:.:.n.n.n.n.n.n._ _ _ _ _ i.a.a._ _ _ _ } { { n ' @.@.] ",
"@.,.,.,.,.@.O.] @.+.O.' } @.,.y y g H H %.:.:.:.:.:.:.:.:.:.:.C C y y #.:.:.n.n.n.n.n.n._ _ _ _ _ i.a.a._ _ _ _ ,.@.,.o.{ ' @.] ",
"@.,.@.+.O.{ { ] ] ' +.] y y y H H H H H H H H :.:.:.:.:.:.:.:.C C y y #.:.:._ _ _ a.a.p._ _ g.n.n.g._ _ a.a.a.a._ _ 6.<.+.' @.n ",
"O.O.o.} } ' u n { { ] n y y y H H H H H H H H :.:.:.:.:.:.:.:.C C y y #.:.:._ _ _ a.a.p._ _ g.n.n.g._ _ a.a.a.a._ _ 6.1.1.{ i u ",
"{ } } { 1.1.' ] } } } ] y y y H H H H H H H H M M M M M M M M V V X.X.0.w.w._ _ _ a.a.p.M.M.j.^ ^ g.b.b.a.a.a.a.Q Q Y 1.1.,.' r ",
"1.1.1.1.1.1.<.{ o.o.} { y y y H H H H H H H H y y y y y y y y B B :.:.u.a.a._ _ _ a.a.p.D.D.h.U U b.n.n.a.a.a.a.U U L 1.1.1.} ] ",
"1.1.1.1.<.<.,.} o.} } O.y y y H H H H H H H H y y y y y y y y B B :.:.u.a.a._ _ _ a.a.p.D.D.h.U U b.n.n.a.a.a.a.U U L 1.1.<.O.v ",
"{ ] <.1.1.<.<.] y y y y H H H H H H H H H H H H H H H H H y y h h H H t.a.a._ _ _ _ _ _ D.D.D.D.D.~ U U _ _ _ _ ' @.@.,.@.@.] t ",
"r i @.1.1.1.<.@.y y y y H H H H H H H H H H H H H H H H H y y h h H H t.a.a._ _ _ _ _ _ D.D.D.D.D.~ U U _ _ _ _ ] o.o.b b c v ' ",
"' c b ] <.@.} ' y y y y H H H H H H H H H H H H H H H H H y y h h H H t.a.a._ _ _ _ _ _ D.D.D.D.D.~ U U _ _ _ _ ] ] ] v } } o.{ ",
"+.O.{ v { ' n n y y y y H H H H H H G G G G G H H H G G G y y k k J J t.p.p.7.7.7.f.f.f.F.F.F.D.D.! q q 6.6./ / ' ,.} } +.+.+.+.",
"+.+.o.i v ' +.+.y y y y H H H H H m y y y y y H H H y y y H H R R _ _ _ _ _ a.a.a.D.D.F.P.P.J.D.D.5     +.O.} } { ' ' o.O.O.+.+.",
"+.+.{ ' } ] +.+.y y y y H H H H H m y y y y y H H H y y y H H R R _ _ _ _ _ a.a.a.D.D.F.P.P.J.D.D.5     o.] ' o.+.O.' ' O.+.+.+.",
"+.+.' n ' +.+.+.O O O O H H H f f < O O , y y f f f S S S f f x x Q Q / _ _ a.a.a.L.L.J.e e I ~ ~ #     @.o.' ' ] +.} n n +.+.+.",
"+.} { { n O.{ }         H H H y y ;     , y y y y y H H H y y l l U U ^ _ _ a.a.a.P.P.L.    $ U U o     o.{ O.+.O.} ,.O.{ ' O.+.",
"o.] c +.o.n ' {         H H H y y ;     , y y y y y H H H y y l l U U ^ _ _ a.a.a.P.P.L.    $ U U o     ' { @.<.,.+.O.<.@.' { } ",
"c v { o.{ v ' }         y y y y y ;     , y y P.P.P.P.P.P.D.D.x.x.U U b.n.n._ _ _ P.P.U.T.T.I.N.N.A.D.D.        <.,.+.o.<.] n b ",
"} = t v b ] v ]         y y y y y ;     , y y P.P.P.P.P.P.D.D.x.x.U U b.n.n._ _ _ P.P.U.T.T.I.N.N.A.D.D.        <.<.,.O.1.O.] O.",
",.v i n c n ] b         s s s , , ; + * ; , , H.H.H.P.P.P.G.G.c.c.0 0 9.m.m./ / / P.P.U.T.T.I.N.N.A.D.D.        <.<.<.+.@.] +.<.",
"<.} u b } +.+.{         H H H     r +.O.=     _ _ _ P.P.P.P.P.z.z.    r.a.a.U U U P.P.U.T.T.I.N.N.A.D.D.        +.,.<.o.+.{ { <.",
"<.@.n o.@.,.,.+.        H H H     r +.+.=     _ _ _ P.P.P.P.P.z.z.    r.a.a.U U U P.P.U.T.T.I.N.N.A.D.D.        } O.} } @.O.,.<.",
"<.@.@.@.,.,.,.O.        s s s     r +.+.=     @ @ @ j.j.h.Z.Z.V.V.    r.a.a.U U U P.P.P.Y.Y.K.S.S.e & & ' } { o.,.{ o.o.o.O.,.<.",
"<.,.+.,.,.<.<.o.        y y y     > ] o.=           _ _ ) C.C.B.B.    r.a.a.U U U P.P.P.P.P.J.D.D.5     @.,.o.,.,.{ O.+.+.O.,.<.",
"<.<.<.<.<.<.<.}         y y y     = i c *           _ _ ) C.C.B.B.    r.a.a.U U U P.P.P.P.P.J.D.D.5     ] ] v ' ] c O.@.@.@.@.<.",
",.<.<.<.<.<.<.O.+.O.v u       1.{ @.+.] e.a.a.n.n.n.                  r.a.a.U U U D.D.D.D.D.E     { b ' } { ] { } ] ' ' @.@.@.<.",
"+.O.+.@.,.@.o.v ] v : v       ,.] @.' b w.a.a.n.n.n.                  r.a.a.U U U D.D.D.D.D.E     o.} ] o.o.o.o.o.o.} ] } @.@.<.",
"] @.,.,.O.} ' v @.+.} { : : : { ' ,.] ' 4.w.w.( ( ( O O O * * O O     8.s.s.9 9 9 l.l.l.k.k.T > > +.n o.o.} } o.O.o.o.} o.} +.@.",
"@.@.@.@.{ ] ' } { ,.@.o.c n ] ' n { o.@.@.<.O.      y y y H H d d     7.n.n.      y y <     i 2.1.2.{ O.} O.} O.O.+.+.{ u } ] ] ",
"@.O.+.o.n } <.,.O.{ { ,.{ i { ] b @.<.2.2.2.@.      y y y H H d d     7.n.n.      y y <     i 2.<.o.O.O.} } { } } } } } i b n +.",
"o.o.} { b ] 1.O.<.O.} ,.+.n @.} +.1.1.2.2.2.@.      G G D . . $ $ q q # X X D D D G G G D D a . . n o.O.} o.} } o.o.{ } b n o.} ",
"u c b ' ' n } O.1.1.@.,.@.O.1.o.,.2.1.1.1.2.,.      H H F     $ $ U U @     H H H H H H H H d     ' ] v } o.} ] O.O.@.+.{ t v b ",
"i +.' { } } ] { O.O.1.+.] O.1.{ <.2.2.2.<.1.'       H H F     $ $ U U @     H H H H H H H H d     b c ' } o.o.' O.O.<.,.O.' c b ",
"u o.@.+.,.,.o.' o.O.<.} ' ,.n @.<.1.2.2.} O.}       H H F     2 2 H H H H H       H H H H H *.a.a.4     @.,.O.} ,.<.<.<.@.{ b u ",
"n @.@.+.} o.+.} +.] o.} @.{ { @.@.1.2.1.} o.+.      H H F     2 2 H H H H H       H H H H H *.a.a.4     o.O.,.o.,.,.<.,.+.@.v ' ",
"{ O.@.] } @.@.,.} O.O.+.<.o.] ,.1.<.<.@.v c n o o o Z Z Z     A A 3.3.3.3.3.      K K K K K &.q.q.3     @.{ o.o.@.,.,.@.+.+.v +.",
"{ o.+.' o.@.@.{ ' } o.@.{ o.] +.+.,.O.] =     w w w w w 8     W W T.T.T.T.T.      U U U U U P H H +     @.o.+.O.+.+.@.@.+.@.} 1.",
"1.} } o.+.o.+.o.{ } { ] b @.} } ' { b ' =     w w w w w 8     W W T.T.T.T.T.      U U U U U P H H +     o.o.,.o.o.+.,.,.@.@.v ,.",
"o.,.] ] } ' ] ] o.' O.n { @.O.' n ' ] ] =     H H H w w 8     @ @ w w w w w       :.:.:.:.:.:.:.:.-     +.+.,.' n o.<.<.,.,.{ } ",
"c ' { ] v i u c { o.O.O.] } v n o.O.O.+.=     H H H w w 8     @ @ w w w w w       :.:.:.:.:.:.:.:.-     <.@.,.} c ] @.<.,.+.] ,.",
"b { } u i n c r b { o.o.O.@.,.' { } o.O.:     H H H w w 8     @ @ w w w w w       :.:.:.:.:.:.:.:.-     1.@.+.} c v { O.@.} ' o.",
"c ] ] u ' O.{ ] { ,.,.} o.{ ] o.{ ] O.+.:     H H H w w 8     @ @ w w w w w       :.:.:.:.:.:.:.:.-     ,.,.} ] c ' n ] } ] @.} ",
"] <.+.r n O.o.O.,.,.,.O.+.{ o.+.} o.} +.+.@.o.      :.:.%.    $ $ U U U U U       H H H :.:.N     { ] n o.o.{ +.v { b o.] ] +.{ ",
"] ,.' b ] ' n O.,.,.,.O.,.+.,.,.,.+.{ @.,.+.{       :.:.%.    $ $ U U U U U       H H H :.:.N     } ,.{ c n o.} n b r b o.+.} ] ",
"} ] v o.O.' { O.@.{ { ' ,.+.@.,.,.@.{ +.+.O.} t r > z z z     6 6 ` ` x.v.v.      a a a z z p i i +.<.<.{ n c { b } i ' } { c { ",
",.+.+.} } } u i o.i ] v @.@.o.+.+.+.] o.o.] ' o.+.O.          I I D.D.L.P.P.                u <.<.<.<.<.+.O.o.@.o.o.b ' b ] O.@.",
"1.<.<.,.} +.v r c ' o.n v O.] ,.O.O.o.@.@.o.' ' ] +.          I I D.D.L.P.P.                u <.<.<.<.@.n { ' b b +.] } ,.<.<.<.",
"1.1.<.@.v ] ] v } +.@.] n ] } } ' ] o.@.o.{ O.+.O.} ,.O.{                   w w w w w w U U 7     } @.o.n O.n ' } { b } <.<.<.1.",
"1.1.1.+.] O.n { +.' } O.O.+.+.o.{ ' { O.' { @.<.,.+.O.<.+.                  w w w w w w U U 7     ' n b n { ] { ] ' ' ,.<.<.1.1.",
"1.<.+.} n ' v n ' ] +.@.@.@.@.O.} ] ' ' i b ,.<.<.,.+.o.,.                  w w w w w w U U 7     t ' } } o.o.O.O.] b <.<.1.<.1.",
"<.o.i ' ' v { c O.@.@.@.@.@.@.@.' } } +.c b } 1.<.<.,.O.<.o.] v i           w w w U U U U U 7     t { O.o.+.+.+.+.o.v { { { 1.1.",
"u c c } +.O.' v @.,.@.@.@.,.,.O.b ] ' n v { ' +.<.<.<.+.@.] +.n b           w w w U U U U U 7     v O.+.O.O.+.+.+.c ' +.O.o.} ] ",
"] c } ,.,.,.] n @.@.@.@.@.@.@.] +.@.O.{ o.,.] } +.,.<.o.+.{ { o.o.i = r u c # # # % % % % % 1 v u } +.O.O.+.+.+.+.{ +.@.@.@.+.+.",
"@.O.' ] ,.<.+.n @.,.,.@.,.@.O.{ @.@.+.b ' o.o.,.} O.} } @.O.,.<.<.@.n o.@.,.                u ] } +.+.+.+.O.+.' { @.@.@.@.@.@.,.",
",.@.+.{ <.<.<.] @.,.@.+.O.' v c @.@.@.] } @.O.,.,.{ o.o.o.O.,.<.<.@.@.@.,.,.                t ] o.+.+.+.+.O.O.' +.,.@.@.@.@.,.,.",
",.+.{ <.<.<.<.] o.} o.] i t i b c ] ] } @.,.o.,.,.{ O.+.+.O.,.<.<.,.+.,.,.<.<.o.,.,.,.] <.,.+.b c } ] o.} ] t n +.@.@.@.@.,.,.,.",
"O.} ] <.<.<.<.r i b n i b ] <.@.{ n r +.] ] v ' ] c O.@.@.@.@.<.<.<.<.<.<.<.<.} ,.,.+.n @.+.{ { n c i c ' i ' i b } +.@.,.,.@.@."
};
