/* XPM */
static char *d6188b2e5d0141adbe24aa6fc954fbc0TKJj1AKnFiuV0Br7[] = {
/* columns rows colors chars-per-pixel */
"50 50 251 2 ",
"   c #3A240B",
".  c #372718",
"X  c #372717",
"o  c #45230B",
"O  c #482A16",
"+  c #552F10",
"@  c #663A04",
"#  c #683D17",
"$  c #4E342A",
"%  c #56372C",
"&  c #573B35",
"*  c #4C332E",
"=  c #683A28",
"-  c #633B34",
";  c #773B2F",
":  c #431F07",
">  c #5C4512",
",  c #684506",
"<  c #764604",
"1  c #674819",
"2  c #745015",
"3  c #5B4131",
"4  c #694428",
"5  c #77462A",
"6  c #674637",
"7  c #774738",
"8  c #7C563B",
"9  c #6F5330",
"0  c #7D6333",
"q  c #5C4E46",
"w  c #674C43",
"e  c #795948",
"r  c #675958",
"t  c #74564B",
"y  c #7A644A",
"u  c #69635F",
"i  c #79655A",
"p  c #7A735B",
"a  c #6D614A",
"s  c #656664",
"d  c #6A6B65",
"f  c #6D6C6C",
"g  c #6B6662",
"h  c #736C64",
"j  c #746D6D",
"k  c #7A6963",
"l  c #6E726C",
"z  c #6D7067",
"x  c #74726C",
"c  c #7A736D",
"v  c #777466",
"b  c #756F73",
"n  c #747474",
"m  c #7A7573",
"M  c #7B7A75",
"N  c #757579",
"B  c #7C7C7C",
"V  c #78777A",
"C  c #6F7072",
"Z  c #5D5F63",
"A  c #823F36",
"S  c #814B01",
"D  c #855917",
"F  c #8C5510",
"G  c #8B6A1C",
"H  c #986B19",
"J  c #936B13",
"K  c #A97318",
"L  c #865929",
"P  c #8D443A",
"I  c #885A37",
"U  c #925331",
"Y  c #876724",
"T  c #966A28",
"R  c #987426",
"E  c #85683A",
"W  c #966938",
"Q  c #977836",
"!  c #8B7436",
"~  c #A97533",
"^  c #875949",
"/  c #975B4A",
"(  c #8F564B",
")  c #A35D49",
"_  c #8A664B",
"`  c #97654C",
"'  c #86764A",
"]  c #886857",
"[  c #986956",
"{  c #97765A",
"}  c #887A5B",
"|  c #B47D48",
" . c #A56956",
".. c #A5765A",
"X. c #B57B5A",
"o. c #B97956",
"O. c #A96F4C",
"+. c #9B6D62",
"@. c #8B7C69",
"#. c #86786A",
"$. c #967868",
"%. c #837D74",
"&. c #837C7C",
"*. c #877878",
"=. c #846967",
"-. c #A97A66",
";. c #B57C68",
":. c #B17F72",
">. c #7D827D",
",. c #7A8276",
"<. c #7F826F",
"1. c #BA8119",
"2. c #B78928",
"3. c #AC8839",
"4. c #B8863A",
"5. c #BE963B",
"6. c #A7832B",
"7. c #D59A0B",
"8. c #D29814",
"9. c #DAA50D",
"0. c #DDA316",
"q. c #E4AA18",
"w. c #ECB31D",
"e. c #F3B41C",
"r. c #EBAB17",
"t. c #C89528",
"y. c #D49C27",
"u. c #C89739",
"i. c #CB9239",
"p. c #DBA828",
"a. c #DBA839",
"s. c #DDB33B",
"d. c #E6AC27",
"f. c #ECB424",
"g. c #ECB42B",
"h. c #EAB527",
"j. c #F4B424",
"k. c #F4B829",
"l. c #E5AE37",
"z. c #E5B334",
"x. c #EBB233",
"c. c #E7B33C",
"v. c #F2B937",
"b. c #F0AE24",
"n. c #8E825A",
"m. c #98865E",
"M. c #A88347",
"N. c #BA9448",
"B. c #B88457",
"V. c #B79359",
"C. c #AD8E50",
"Z. c #84806B",
"A. c #9B8766",
"S. c #83817D",
"D. c #89847A",
"F. c #998878",
"G. c #9D9179",
"H. c #A78668",
"J. c #B68668",
"K. c #B99477",
"L. c #AE8E6E",
"P. c #B9AB7E",
"I. c #C69847",
"U. c #C69455",
"Y. c #D9AC47",
"T. c #DCB34A",
"R. c #CCA657",
"E. c #DBB357",
"W. c #D1A851",
"Q. c #E4AC46",
"!. c #E7B647",
"~. c #E4B754",
"^. c #F0B64B",
"/. c #C28C62",
"(. c #C89967",
"). c #D6996C",
"_. c #C99878",
"`. c #D59B7A",
"'. c #CE8A71",
"]. c #CCA469",
"[. c #D6A76A",
"{. c #D9A677",
"}. c #D6AD6E",
"|. c #E4A778",
" X c #E4B169",
".X c #7D7C81",
"XX c #837D83",
"oX c #867E88",
"OX c #7D8282",
"+X c #838383",
"@X c #8A8383",
"#X c #8B8A86",
"$X c #8C8B8B",
"%X c #868789",
"&X c #928D8B",
"*X c #968985",
"=X c #8D918C",
"-X c #94918D",
";X c #989185",
":X c #8D8D91",
">X c #948E92",
",X c #939393",
"<X c #989697",
"1X c #8D9492",
"2X c #A9968F",
"3X c #BFAC87",
"4X c #BEB1AA",
"5X c #D8A884",
"6X c #D4B18E",
"7X c #E8AB82",
"8X c #E6B684",
"9X c #F5BD8C",
"0X c #E8BA94",
"qX c #F2BE96",
"wX c #C7B8B4",
"eX c #C6B3A7",
"rX c #D4AD93",
"tX c #ECC799",
"yX c #F4C59C",
"uX c #F4CB9C",
"iX c #FACB9C",
"pX c #F7C697",
"aX c #F5D69A",
"sX c #EEC993",
"dX c #FFE79E",
"fX c #DBC9B5",
"gX c #EBC7A6",
"hX c #F4CBA3",
"jX c #FACDA3",
"kX c #F6CAA8",
"lX c #E5D4AC",
"zX c #FCD1A3",
"xX c #F8D2A7",
"cX c #E8D9BA",
"vX c #FCD0B5",
"bX c #EBCFB3",
"nX c #FFE3A4",
"mX c #F8E5B9",
"MX c #D9CDC6",
"NX c #E6D9D9",
"BX c #EBD5C9",
"VX c #FDF4DA",
"CX c #F2E6D5",
"ZX c #F9EBE6",
"AX c #FFFBEC",
"SX c #FAF5E9",
"DX c #FEF4F4",
"FX c #FFFCFB",
"GX c #FCF7F5",
"HX c #F1E7E6",
"JX c #EDDAE0",
/* pixels */
"n n n V >.OX>.B +XB $XV FXHXZXSXZXDXGXFX>.>.m S.XXXXoXoX%X,X=XM f n V B B +X+XB B B +X+XB B B +XS.+X",
"n n N B OXOX>.B V XXXXB ZX%.q a t w *.FXFXm S.B &.XX%X.X%X<X-X%.x n B B B B +XB B B B B B B B B S.+X",
"N N V .XXX+X+X+X%XoX*.ZX*.i i ] y ] i F.ZX&.$X+X+XXX+X.X%X,X&X&.n n +X+X+X+X+X+XB N V V B B B V B B ",
"N N V .XXX+X%X$X>X&.*.JX& $.:.J.-.H.{ e F.DXXX$X$XS.>.+X:X,X&X&.n x %X#X$X$X$X$XB n f n V B V n V V ",
"n n V &.&.S.%X=X$X&.j HX& i -...K...H.-.i ;XHX&X#X>.,.,.%X<X,XS.n f %X$X,X,X,X$X.Xf s n B +XV n n n ",
"n n V &.B S.#X,X#XS.h HXF.t 6 ` ..J.-.{ $.& NX&X=X,.,.,.#X1X$X>.n x %X,X,X,X$X$X.Xd s n %X%XV n n n ",
"n n V &.XX+X%X,X#XB n m ZX#.e ^ [ ;.;.:.-.& NX>X=X,.,.>.OXOXOXB B B %X,X,X$X+X%XB f d V %X$X+Xn n n ",
"n n n B XX+X$X,X<Xc GXNXCXBXBX] ^ J.;.;.$.& NX<X@X>.S.>.OX.X.XB +X+X%X,X$X+XV B B n n B ,X,X%XV n V ",
"n l V B .X&.DXZXHXZXMX- 6 6 - ^ :. .;.-.^ * NX,X%XS.B B oX%X.X+XB +X$X,X$X%X+XB V n n B $X,X%Xn C n ",
"l n V V FXDX;Xw w w t +.+.+.[ -.;.'...[ e q MXB M m m &..X%X%X.XB V V B B +X+X+XB N n +X,X,X%Xn n n ",
"n l f n DX*Xi ] [ ^ ` J.;.-.:...` / [ e w wXFXZ f x x n XX.XB B +XB n n n V >.B B n n +X,X,X%Xn n n ",
"n n x FX*Xi $.J...J.;.;.[ -.[ [ ` [ ^ 6 r SXs s d d x M n N +X+XB B V n n V +X+XN C f B ,X,X%Xn n n ",
"b j SX2Xt $.-... ... .[ [ ( _ 8 = 6 7 t i AXM M M %.h x B .X%X.X%X+XB n f n .X+XN f d n $X,X%Xn n n ",
"g u CX& ] { ..O.` I 5 7 7 7 7 7 $ 6 3XF.y fXBXcXcXVX#.x @XOXN %X+XB V n n B %X%XB C d n $X,X%Xn f n ",
"i k BX3 E W U U I I 7 5 + 7 = { 8 K.gXH.+ 1 , , 1 0XCXSXc S.S.B S.B V n n V .XB V f d N $X,X%XV n n ",
"#.#.rX1 B.U.4.F | (.kXK.= 5X3X8 L.tXxXO.2 I.I.I.R.Y 1 3XVXVXAXc %.m n n n V B B f s s N :X<X$XV n n ",
";XG.xX(.E.~.Y.4.F V.uX0X5XtXtX{.sXsXM.T I.~.!.!.~.5.3.! 2 L.VXAXAXp M n N n s u f >.n XX<X<X$X+XB >.",
"G.G.nX X!.^.l.a.2.J G L W L L T G G R u.!.!.z.z.c.!.~.5.3.Q E m.VXp v x n f d x l l N +X%X>X%XB B B ",
"G.H.nXE.Q.x.x.v.a.2.J R T T Q T H H u.!.c.g.k.f.g.z.z.!.Q.I.R ! C.A.BXp v c x x x n V +X&.&X+XS.@XS.",
"F.H.dXE.^.g.x.g.c.!.~.E.W.R.[.}.R.W.Y.a.z.g.f.k.f.g.g.d.x.^.T.T.G 2 L.3XcXp Z.h B n f B x x OX=X#X&X",
"G.A.aXT.!.d.v.z.c.a.Y.5.H ~ Y Q T R H H 1.!.l.d.d.p.f.f.k.k.h.z.!.E.G , C.6XfXAXx n n m x n n <X,X-X",
"F.m.dXE.s.p.z.a.Q.2.H F < , , , @ < < < S K K t.y.8.0.w.r.e.f.h.z.c.T. XR , E cXAXh M x x f +X%X<X=X",
"Z.m.dXW.t.t.t.K H F @ T (.].].}.{.].].].N.@ < I.u.!.d.7.7.k.w.f.v.x.z.c.!.W.3.E lXAXh M B s +X:X1X$X",
"@.} aXI.Y.Y.u.< @ W ].{.sXuXpXsXsXiXpXuX8X(.V.< < 2.l.d.d.7.q.f.d.k.f.v.z.a.E.N.0 mXAXh l l V $X,X,X",
"@.n.nXE.E.u.S ~ V.{.yXuXjXiXjXsXzXpXiXpXuXqX0X{.~ S t.^.x.d.d.7.7.f.k.f.g.v.c.T.N.Y cXp c m S.S.$X#X",
"Z.} mX].I.S ~ {.pXuXjXuXjXuXiXzXjXuXuXuXhXxXkXhXB.T F 1.!.v.b.q.b.7.7.w.f.h.x.c.~.3.! lXp h h x j j ",
"Z.Z.mXV.D ~ 8XpXiXuXuXuXuXuXyXkXkXxXkXkXhXkXyXhX/.| < K Q.x.k.k.b.r.9.9.q.f.g.x.c.T.6.Q cXp u x r r ",
"<.Z.cX{ @ {.pXzXzXuXsXsXuXxXgXK.$.H.H.5XkXvXkXyX/.| H J 2.!.h.w.j.w.e.9.9.q.k.g.d.^.T., P.#.x d b b ",
",.Z.BXy I 0XuXuXhXtXuXxXaXhX0X4       { kXtXjXyXB.| B.< F T.z.g.j.j.e.e.q.9.q.k.k.d.Q.H V.cXD.$X$X%X",
",.D.eX$ [ gXxXyXxXtXhXxXuXtXgX3 X .   _ vXgXxX9X/.| B.D D 2.l.d.k.w.r.e.e.q.0.q.k.v.c.~.2 L.;X-X<X<X",
"%.*.eX% $.0XhXhXkXgXgXhXxXkXgX% . .   ] vXkXhXpXB.| B.B.D < i.y.d.k.e.e.j.q.9.k.f.g.c.T.G m.VXD.&X$X",
"%.*.wX$ ] { 0XhXgXkXxXyXhXhXgX% . . O ] gXvXyXyXB.o.X.B.L 2 i.t.y.d.k.j.w.j.q.7.f.g.g.^.W.! A.D.D.S.",
"*.&.wX$ _ ` 0XhXhXhXhXuXjXuXqX4 o O o [ kXkXtX(.o.o.o.B.L < I.u.y.y.d.g.j.j.9.9.f.b.g.z.T.Y n.%.%.D.",
"&.&.4X% [ ` {.yXyXhXjXhXzXuXyXJ.H.K._.0XhXjX8XJ.o.o.o.B.I 2 I.I.t.y.y.d.f.w.w.0.7.k.g.v.Y.R ' D.%.%.",
"m %.4X% ^  .`.qXjXhXhXyXuXyXyX5X5X6XyXhXzX0X`.X.o.o.X.X.5 2 N.u.u.t.y.8.q.j.j.f.7.b.v.x.!.G ' #.h *.",
"c M wX% ^  .`.0XjXhXhXjXzXjXjX5X{.{.|.9XiX8XX.X.o.;. .` # 2 N.u.u.t.y.y.0.d.f.d.0.q.d.z.~.G n.v h m ",
"x x 4X$ [ [ `.hXjXjXuXuXuXiXiX|.|.|.|.|.iX9X/.;. . . .` 5 # 3.4.u.u.t.t.y.y.x.x.x.8.d.^.~.Y n.v D.j ",
"m x wX$ _ / _.yXyXuXzXiXiXiXqX7X|.|.{.{.{.7XO. .) )  ./ 8 # M.3.6.5.I.u.u.t.y.c.l.1.!.Q.W.L } c c M ",
"n j wX% ^ -.5X0XiXjXuXuXuXjXyX_./././.).{.).o.) ) / / ( 7 4 M.Q Q R C.N.u.u.t.u.i.K i.[.~ # Z.h x f ",
"n m wX& [ _.`.|.9XuXuXuXjXjX0X5 + + o W |.|.).) ) / / +.7 4 0 1 > > Q R.N.5.I.I.4.F F U U = @.ZXSXM ",
"x x SXeX5 `.|.).9XpXpXiXuXuXgX# o o o E {.{.7X). ./ [ ] w $ a cXBXcXy ' V.U.I.4.D U P P / 7 6 #.FXg ",
"l x v fX4 '.|.|.|.9XiXpXpX5X5X# O o o 8 6X{.|.`. .` [ 6 =.MXMXSXc AXBX' ' V.M.2 5 5 P P P P 6 i DXj ",
"l n i fX= `.|.|.|.[.|.8X|.{._.# : o o e 5X5X5X-.[ 6 $ #.NX&X<XM c c D.fXA.4 4 + 4 ; P / P ( 7 6 *XDX",
"B n c MX3 _.5X).{.[.{.{.[.|.{..._ $.] ] e _ ^ 6 3 *.2XNX@X$X&Xn m h %.*XfX2X] O % = ; A A 7 t 6 r ZX",
"B XX&.JX@.{ 5X5X{.8X{.{.).O._.5X3XH.] $.F.@.F.#.oXJX@XM -X<X*Xm f n #X*X;X#.BX#.% % = ; = 7 6 & q ZX",
"+X+X+Xj HX#.{ H.H.{ H.{ .._ [ _ { ] i 2X2XF.*X<X&XXX>.%X#X,X#X@Xf Z #X-X&X*Xm NXk k & - % - $ & -XGX",
"S.M B m M SXi 6 6 e 6 6 A.cXa a a wXDXFX*.*X&X<X$X+XB M @XS.XXm C n &.S.@X&.V FXFXZX=.& - & w *XDXGX",
"S.S.&.S.S.ZXAXSXSXZXAXSXZXAXZXSXHXGX@X&.@X@X&X<X$XB S.f z x j n V %Xs M n l V N oXGXDX=.& 2XDXDXFXXX",
"&.S.B @XM S.#X&X-XD.&.%.c h d n S.%.D.&.S.@X$X,X&X+XOXB l s d V OX>.n d f n %XB @X&.FXHXHXSXd B @XXX",
"S.S.&.S.M >.#X-X&XS.S.B m d d n &.&.D.&.&.+X-X-X$XOXOXB l d d B OXOXl C s V @X&.B @X+XB M x V B +X&."
};
