/* XPM */
static char *be8a6415c9a7421ffe3615109bc54a40MKEyNffFqBBjApWB[] = {
/* columns rows colors chars-per-pixel */
"50 50 248 2 ",
"   c #3A240D",
".  c #392916",
"X  c #302919",
"o  c #382F24",
"O  c #502D10",
"+  c #663A04",
"@  c #6A3F12",
"#  c #4B3628",
"$  c #58382A",
"%  c #563A35",
"&  c #4D3B37",
"*  c #663A2A",
"=  c #743B2C",
"-  c #673C34",
";  c #783C34",
":  c #5C4917",
">  c #6B4609",
",  c #754704",
"<  c #6A4816",
"1  c #754E18",
"2  c #5A412C",
"3  c #5C4538",
"4  c #684425",
"5  c #754829",
"6  c #7A5D26",
"7  c #66463A",
"8  c #784939",
"9  c #6E543E",
"0  c #7E642F",
"q  c #5C4E45",
"w  c #68584B",
"e  c #795849",
"r  c #675B58",
"t  c #775C53",
"y  c #6E4B44",
"u  c #7A6949",
"i  c #7B6558",
"p  c #716956",
"a  c #646463",
"s  c #6B6B65",
"d  c #6D6D6C",
"f  c #696664",
"g  c #736E6C",
"h  c #776C67",
"j  c #6E726B",
"k  c #73736D",
"l  c #767467",
"z  c #756D72",
"x  c #747474",
"c  c #7A7573",
"v  c #7B7A75",
"b  c #7B757A",
"n  c #7C7C7B",
"m  c #767877",
"M  c #6D7472",
"N  c #813C36",
"B  c #865605",
"V  c #875A17",
"C  c #894E0E",
"Z  c #8A681B",
"A  c #9B7219",
"S  c #956B13",
"D  c #A7771B",
"F  c #A46A18",
"G  c #845C26",
"H  c #855B39",
"J  c #904C32",
"K  c #946A25",
"L  c #987227",
"P  c #886838",
"I  c #8A7238",
"U  c #977935",
"Y  c #926A2F",
"T  c #AC763E",
"R  c #A67431",
"E  c #86594A",
"W  c #975B4D",
"Q  c #995D51",
"!  c #8F5049",
"~  c #89634B",
"^  c #886755",
"/  c #9B6554",
"(  c #996756",
")  c #897758",
"_  c #98735A",
"`  c #997048",
"'  c #A56856",
"]  c #AB755A",
"[  c #A87657",
"{  c #B87959",
"}  c #AA714A",
"|  c #887B6A",
" . c #967767",
".. c #837D74",
"X. c #827D7B",
"o. c #897779",
"O. c #937D74",
"+. c #8E6D65",
"@. c #A97B65",
"#. c #B57C62",
"$. c #B77C67",
"%. c #A36A61",
"&. c #A05C45",
"*. c #C27857",
"=. c #7D817D",
"-. c #7B8079",
";. c #7E806B",
":. c #BA8417",
">. c #AA842C",
",. c #AB8838",
"<. c #B78739",
"1. c #BA9539",
"2. c #B78C2B",
"3. c #D7990A",
"4. c #D59B18",
"5. c #C99210",
"6. c #D9A40C",
"7. c #DDA616",
"8. c #E5AA19",
"9. c #EBB21C",
"0. c #F2B41E",
"q. c #F5AC1B",
"w. c #C89829",
"e. c #D39C25",
"r. c #C59839",
"t. c #C68F2E",
"y. c #DBA739",
"u. c #DAAA2E",
"i. c #E8AC25",
"p. c #ECB423",
"a. c #ECB32B",
"s. c #EAB52A",
"d. c #F3B424",
"f. c #F2B52B",
"g. c #F6B727",
"h. c #E6AD36",
"j. c #ECB333",
"k. c #E8B439",
"l. c #F3B836",
"z. c #92835A",
"x. c #B88557",
"c. c #B38E50",
"v. c #9C8869",
"b. c #83817D",
"n. c #8A827D",
"m. c #888374",
"M. c #978978",
"N. c #99907B",
"B. c #878166",
"V. c #AA8566",
"C. c #B78667",
"Z. c #B09373",
"A. c #C49846",
"S. c #C4895D",
"D. c #D1974A",
"F. c #D9AA47",
"G. c #D5AB54",
"H. c #DDB456",
"J. c #CFAA4D",
"K. c #E3AC44",
"L. c #E6B547",
"P. c #EBB54C",
"I. c #CB9768",
"U. c #D99B68",
"Y. c #C89A78",
"T. c #D69877",
"R. c #C28C61",
"E. c #CBA269",
"W. c #D8A56B",
"Q. c #D8A776",
"!. c #CCA27A",
"~. c #E3A46C",
"^. c #E9A66E",
"/. c #E5A974",
"(. c #E6A776",
"). c #E4B17A",
"_. c #E29D5C",
"`. c #7D7E82",
"'. c #777F81",
"]. c #827D82",
"[. c #817780",
"{. c #7D8283",
"}. c #7E8188",
"|. c #838382",
" X c #898584",
".X c #8B8A86",
"XX c #8C8C8B",
"oX c #858689",
"OX c #928D8B",
"+X c #988987",
"@X c #8D918C",
"#X c #93918C",
"$X c #989484",
"%X c #8E8E91",
"&X c #939393",
"*X c #979695",
"=X c #929092",
"-X c #A59589",
";X c #AB9891",
":X c #B9AA88",
">X c #BCB3AA",
",X c #D6A684",
"<X c #D2AF90",
"1X c #E4AF84",
"2X c #E7B888",
"3X c #F5BB89",
"4X c #E5BA97",
"5X c #F7BF9E",
"6X c #C4B6A9",
"7X c #C4BBB3",
"8X c #E0BDA1",
"9X c #F7C38D",
"0X c #EDC69A",
"qX c #F3C59B",
"wX c #F3CB9D",
"eX c #FACC9D",
"rX c #F7C496",
"tX c #F8D79A",
"yX c #FEE29D",
"uX c #D7CCBB",
"iX c #EBC7A5",
"pX c #F4CCA3",
"aX c #FACCA2",
"sX c #F4CDAA",
"dX c #F7C7A6",
"fX c #FCD2A3",
"gX c #F8D3A9",
"hX c #E5D8B9",
"jX c #F3D0B1",
"kX c #FFE6A5",
"lX c #FDE4BB",
"zX c #D3C39F",
"xX c #DBD0C9",
"cX c #E8DCC7",
"vX c #E3DAD6",
"bX c #EED5D0",
"nX c #FDF5DB",
"mX c #F0E5D5",
"MX c #E9DDE2",
"NX c #ECE8E5",
"BX c #F7ECE8",
"VX c #FEFBED",
"CX c #F8F2EA",
"ZX c #FCF7F3",
"AX c #FFFBF3",
"SX c #FEFBFB",
"DX c #F6F3F4",
"FX c #F8EBF2",
/* pixels */
"X.|.=.n M m n |.b.X.X.n.c f x M }.{.n s f k n {.=.XXOX*XX.X.X.b.n.X.x f s c X.b.|.XX&XXX=.-.n b.b.|.",
"].|.v d DXNXNXSXX.|.X.|.c g a M '.}.v f f k `.oX{.XX&X.X X|.X.X.X.b.v f g c v n  XOXOX X|.m b.n b.|.",
"`.SXSXZX;X& h FXSX].m m x c x a oXm c k k d d |.n .X*XXX|. Xn n.ZXNXCXCXAXCXCXVXBXCXCXVXDXb.X.X.b.|.",
"SXDXn.y 3 % % +.BXSXSXn b.b.|.=.j x c n.b.|.v n n XX*X&XOXb.SXZX7Xw w w cXv.3 7 w 7 9 i BX..c c b.|.",
"DX+X% $ - * - % t h MXb .X@X#X Xa f  XOXOXXX Xn  X.X=XOX+X;X;Xi ^ _ ~ ` P } [ V.[ @.V._  .mXc b.{.|.",
"BXq % 8 ; = = * $ $ | vX..$XOX.Xz d b  X*XOXn b.MX+Xo.O.| O.O.^ V.Y.,XI.T U.).Q.1XQ.Q.,X_ O.MXb.n n ",
"FXw - y ! N N ; = * O +.;XuXOX[.z b x &XXX XxX;XO.- - E ~ e ^ ) _ ~ _ Q./.W.~.~.U./.U.Q.Y.2 uXc v v ",
"FX+Xy e ! ! ! J = = O 4 4  .xX Xx x v *XOXvXo.% y ( $.,X,X,Xe       $ Y.Q./.3X/.~.^.~.~.T.* xXs x x ",
"z ZXi * ! J J J J 1 1 c.c.I ) cXAXk VXxXxX+.7 ( Q ' T.(.U.1X0   . . $ ,X,XrXrXeX3X/.^.~.Y.4 uXk k x ",
"f SX| 7 8 ! J J J C <.A.A.c.I u hXcXhXw # y Q / Q ' T.(.^.U.H O O   * iXpXaXeXqXrX9XU.(.T.5 6XCXk x ",
"n ZXBX| * J J V V <.D.r.r.1.J.U : : : 0 4 8 %.W Q ' &.U.^.(.Y O O O 5 4XaXeXaXpXwX9X/.(.T.( 3 7Xc x ",
"k d s B.@ T _.D.F r.D.t.r.r.1.,.U U U ` < 5 Q Q W W &.} U.~.U.S.R.R.I.rXaXaXpXaXwXaX2XT.] E # >Xc x ",
"v c l B.6 D.K.h.:.h.h.e.w.w.r.J.1.>.,.,.@ 8 W / / Q #.] ).~.~./././.1XrXqXpXpXsXfX0XqXY.W Q # 7Xk x ",
"g X.l B.Z P.l.i.4.a.a.a.e.w.w.w.r.r.1.,.> 5 / ' ] ] $.C.2X9X/./.~.W.).aXpXwXsXqXwXwXqXT.' ( # >Xk x ",
"z h l z.Z L.j.i.7.8.8.d.i.e.e.w.w.r.r.c.5 4 / ' *.*.{ x.2XfX3X(./.W.Q.aXaXaXaXeXeXeX2XT.' ! % 7Xc x ",
"o.h m.) Z L.j.f.i.3.9.9.p.i.4.4.w.w.r.c.< 5 ] { *.*.{ Y.2XwXaXqX1XQ.1XqXqXaX0XwXrXeXrXT.' W % >Xv v ",
"n.m.n.) Z y.f.p.f.3.8.9.9.g.8.7.e.w.r.A.1 H x.{ *.{ C.4XfXwX4XY.Z.V.C.aXeXeXwXsXpX0X0X,X/ Q % 6XX.n ",
"m.m...B.Z L.s.d.i.f.6.8.d.0.g.i.4.e.r.A.< H { { *.{ Y.4XwXsX^ O O   4 4XaXeXpXpXiXiXpX4X/ E % 6XX.X.",
"b.b.n.M.I J.L.a.g.p.3.8.d.0.d.g.i.4.w.r.> 6 x.{ S.*.5XdXgXiX^ . o X $ 8XsXpXpXsXgX0XpX4X[ ~ # 7XX.X.",
"#XXX XnXv.Z L.s.p.9.p.6.6.d.0.g.g.i.e.r., G [ x.{ S.rXdXdXjX) X X o 2 iXsXsXpXsXiXpXsXpX4X_ # >XX.X.",
"*X=X#X$XZ.6 H.k.f.g.8.6.8.0.0.q.q.g.i.h.>.V G x.{ S.3XgXqXsXu X X X 2 iX0XpXgXpXsXsX0XgXiX_ # 6XX.X.",
"oXXX.XM.cXV.A L.a.g.g.8.6.8.0.g.g.d.d.j.L.B , x.} S.rXaXqXsX)   .   4 4XpXpXaXpXiXsXpXpX4XH u xX..X.",
"z g d h m.:X> F.l.8.f.f.8.6.8.p.p.d.p.a.k.2.V K x.R.qXaXdXjX,Xv.v.v.Z.0XgXpXwXpXsXpXpXeX1X+ z.hX| ..",
"r r g s f hX` >.K.l.a.f.s.7.6.7.8.p.d.p.j.L.D , x.C.qXdXdXdXjXjXjXiXpXwXwXwXpXpXwXwXrX).R V c.lX| ..",
"k s d k d l hXI ,.L.k.a.p.9.9.3.3.9.8.9.a.l.:.B R x.wXsXgXpXpXpXwXfXfXwXpXwXpXpXwXqXQ.T B D.W.kX| ..",
" XXX|.n v l l hXG c.K.k.f.p.p.d.p.3.3.8.8.a.P.t.B T Q.2X0XwXqXwXrXfX3XfXwXfXqX0XQ.c.T B r.F.G.kX) ..",
"&X&XXXc j j l VXcX0 <.L.h.f.l.p.g.9.d.8.5.i.i.h.t., , c.E.1XeXrXrX9X9XrXqX0XQ.E.U + , r.F.F.A.tX) | ",
"oX*X%X{.s v k k AXhXI ,.F.L.k.l.p.f.p.9.g.3.3.i.k.y.A., + c.I.W.W.W.W.W.E.E.Z + B A D w.w.w.J.kXz.m.",
"XX&XoX`.d k c v s VXcXP > L H.h.j.s.p.9.d.8.9.7.4.4.w.D D B , > > @ + > > > B S :.K.y.h.i.h.H.kXv.M.",
"&X&X*Xm x x x k x k AXuX<Xc.> S F.L.s.p.f.d.p.9.7.i.i.h.k.:.S L L Y U K U K r.y.y.k.j.l.a.k.F.yXv.N.",
"OX.X#X Xx x b z x v j ;.l hX:XZ.6 Z F.k.P.j.j.a.s.9.p.p.f.j.y.F.G.J.G.G.G.G.H.L.L.k.a.f.8.l.L.yXv.N.",
" X|.b.b.XX].[.b x M x j l l l cXv.z.K A F.K.L.k.s.s.9.d.p.j.L.r.A A A L L K D S 2.y.l.a.f.j.H.kXv.N.",
"n n n oX=XXX].m x j d d d k k k l nXv.P U ,.1.L.k.s.f.a.l.L.r.L Z Z K G G P G Z Z >.y.h.l.k.H.kXN.$X",
"{.n |.XX*X&X|.x v d a a d m v x k AXVXnXZ.6 L ,.1.L.k.L.L.A.K c.wX0X!.pX4X,X4XpXc.V 2.K.P.H.E.sXN.#X",
"x x v oX*XXXv a a d n n v x x x n n k AXnXnX:X< 6 J.A.A.A., ` gX0XZ.H Y.<X* Z.sXY.} C c.D.c.4 6X| v ",
"x x x  X&XoXx a x v n n v x x x X.X.n X.|.c CXnXzX: : < < O V.iXZ.9  .7 7 O - 8 H H Y Y Y H $ bXs s ",
"x x v  X&XoXv f d v  X Xv x x v X.X.oXb ]. Xx v CXcXcXcXhXu v.;X7 # 7 9 8 8 8 8 E W } ] ( ^ 2 mXf f ",
"x x x  X&XXXv f d m |.|.v x x n |. Xn oX{.n x c v v v ..AXi t y 7 $ e ^ W / ' ' ' ] ] @.@.t -XCXg k ",
"x x x oX*X&Xn d d m |.|.m x x v |.n |.{.x v v h s s a f BXt $ e ( / ( / ] } #.#.C.[ C._ t +XSXg x x ",
"x x x oX*X&X|.x x n |.n v x x x n |.`.`.`.n c c c s a SX7X7 E ( Q ' ] $.#.#.#./ ~ ( ^ e +XSXx x x x ",
"x x x  X*X&X|.x v v n |.|.n n n v n `.{.oX`.n c b n v xXq t ( ] $.#.@.( ( _  .e y y q -XZXSXv c x x ",
"x d x  X&XXXn d x m n |.oXXXXXXXb.=.=.{.}.{.X.n |. X&XvX# ^ #.{ ] $.W - - 7 % xXBXNXBXZXv {.m v x x ",
"v x v oX*X&X|.d x n `.n |.%X&X Xn.b.n n `.{.b.b.=.|.*XvX%  .$.$.C.E ^ bXbXmXMXZXb *X#X.X|.`.v b x x ",
"m x v |.XXXXn f d n  X|. X&X&X|.n n n {.{.{.=.b.n %X%XvX&  .$.#.$.( E e | BXc m v XX*X.Xm |.].b x x ",
"x x x n  XoXx a f n XXXX&X*X&XoXz x `.XX@X.X-.v =.@X%XvX&  .[ #.#.[ / 8 e O.NXd b..X*X X|.].`.b x x ",
"x x x v {.n x f f n XX&X&X&XoX Xz x {.=X*XXXb.-.b.oX#XNX-Xt @.C.@.C.[ [ ^ & NXz X.XX#XXX|.].`.x x x ",
"v x x v n n x k d n oXoXoXoXoX Xx c n %X*X.Xb.b.X.OXXXb.ZXM.e _ V.@.C.V.+.& MXb X.OXoXoX|.`.n m x x ",
"n n v n |.n v x x n |.|.|.|.|.|.v c n #X&X X].].].X. X Xn.CXM.^ i E ~ E i o.FX[.]. X|.oX|.{.n x x x ",
"|.|.`.n n n n |.v n b.|.|.`.n v c k v #X&X X`.oX Xn b.X.c SXAXn.w w w q ..BX].].].n n =.{.=.n b x x ",
"|.|.`.n n n n |.v n n |.|.`.n v x g ..#X&XoX`.oX`.].n v |.b.SXZXCXNXCXBXNXSXv oX`.n n =.=.=.n b x x "
};
