/* XPM */
static char *a295ab463c40439b8934c0dacd448fcflH7trVWUFIVUINOE[] = {
/* columns rows colors chars-per-pixel */
"64 64 48 1 ",
"  c #140C1C",
". c #002D00",
"X c #003000",
"o c #003F00",
"O c #004200",
"+ c #004400",
"@ c #004A00",
"# c #004C00",
"$ c #005200",
"% c #005400",
"& c #005A00",
"* c #005C00",
"= c #006300",
"- c #006500",
"; c #006800",
": c #006D00",
"> c #007300",
", c #007400",
"< c #007900",
"1 c #007D00",
"2 c #008300",
"3 c #008500",
"4 c #008900",
"5 c #008E00",
"6 c #009100",
"7 c #009400",
"8 c #009900",
"9 c #009D00",
"0 c #00A000",
"q c #00A400",
"w c #00A800",
"e c #00AE00",
"r c #00B000",
"t c #00B400",
"y c #00BA00",
"u c #00BF00",
"i c #00C200",
"p c #00C600",
"a c #00CA00",
"s c #00CE00",
"d c #00D300",
"f c #00D600",
"g c #00D800",
"h c #00DD00",
"j c #6DC2CA",
"k c #8595A1",
"l c #D2AA99",
"z c #DEEED6",
/* pixels */
"-aaaaay#;-,<dgggdi,388479433uuuapsssssaetw:%63;d7yr5a5;>%<<9rew8",
">aaapi,3,;5fgggggf85000qq0958uyarwryiuq:4:X;;;si5u3,=;<4<#=@2;1,",
";aaaa9+2<0ffggggdf<0099qeqq809ey5yipw83:ut86tre73i43;3,e91=&2*66",
"3eape-2>61esggggfg6w9w8wrrr6$855yyuu65397iyq-<42160yuse2y8>3156r",
"7-y95tueq238igggd0we89799889*,<tywrq<9siw77i7&65,ysghhyyut:<:=@*",
"1,72uuii81<,1u7748qw8089q070,109q086,4fwae9it1y8rdfgghy3uy74e633",
"6uiiuiii3231o>>61q4:8q94ewit7#;,$->3218wfduiywdqigdffgp2uyr5yyr,",
"eiiiuyueqww0-%1e07=29                      r5wd6sgghsf3-tty7yuu1",
"yiiiiyy5trer<7ytt-+:u                      92p<yafgg8w8896713uu4",
"uiiiiye5ytw29yire,<rq                      8u77uudgf80ripyi073u5",
"uiyte77443r5eipu9    zzzzzzzzzzzzzzzzzzzzzz    idaau69padsdar3y1",
"weq982%16751wpppe    zzzzzzzzzzzzzzzzzzzzzz    ttpw497ysfaddd7&%",
"7887dd348985ipp  kkzzkkkkkkkkkkklljjzzzzzzzzzkk  7,37<1usasddp3+",
"ffffdds60097ipp  kkzzkkkkkkkkkkklljjzzzzzzzzzkk  35400728ssddd95",
"fdddsap9089wupp  kkzzkkkkkkkkkkklljjzzzzzzzzzkk  wwtrupe7usddsw;",
"74sddsa564e6w  jjzzkkkkklllllljjjjzzzzzzzzzzzlljj  wayt92uyiyt5#",
"O*ydddau43er3  jjzzkkkkklllllljjjjzzzzzzzzzzzlljj  rtrur50q>>-:2",
"3-,4au92-=5  jjjjzzkkllllljjjjzzzzzzzzzzzzzzzllkkjj  uq0455:9906",
"rw7;6311q3,  jjjjzzkkllllljjjjzzzzzzzzzzzzzzzllkkjj  t753i88rtrr",
"trq*;3rttt2  jjjjzzkkllllljjjjzzzzzzzzzzzzzzzllkkjj  e996230eert",
"tr6385ttt  zzzzjjjjzzzzzzzzzzzzzzzzzzzzzzzzlljjjjkkzz   te22errt",
"tr312rttt  zzzzjjjjzzzzzzzzzzzzzzzzzzzzzzzzlljjjjkkzz   5r911ttt",
"r9771w   zzzzzzlljjjjjjjzzzzzzzzzzzzzzzzzlljjjjkkzzzzzzz  ie72er",
"04-r01   zzzzzzlljjjjjjjzzzzzzzzzzzzzzzzzlljjjjkkzzzzzzz  wau379",
"-;6q  zzzzzzzzzjjlllljjjjjjjjjjjjjjjjjjjjjjjjzzjjzzzzzzzzz  s41>",
"8.#;  zzzzzzzzzjjlllljjjjjjjjjjjjjjjjjjjjjjjjzzjjzzzzzzzzz  sq4e",
"p:*<  zzzzzzzzzjjlllljjjjjjjjjjjjjjjjjjjjjjjjzzjjzzzzzzzzz  y5ra",
"a9%,  lllzzzzjjjjzzlljjjzzzzzzzzzzzzzzjjjjjzzkkkkjjzzzzzjj  r67a",
"ay1q  lllzzzzjjjjzzlljjjzzzzzzzzzzzzzzjjjjjzzkkkkjjzzzzzjj  uwpa",
"ayyuip   jjjjjjzzzzzzllljjzzzzzzzzzzjjjjjjjkkkkkkjjjjjjj  0qqwpa",
"airppa   jjjjjjzzzzzzllljjzzzzzzzzzzjjjjjjjkkkkkkjjjjjjj  erteia",
"asssss   jjjjjjzzzzzzllljjzzzzzzzzzzjjjjjjjkkkkkkjjjjjjj  euuuua",
"psssssaet  jjjjzzzzzzjjjlljjzzzzzzjjjjzzzjjjjkkzzkkkk   8433uuua",
"rwryiuq:4  jjjjzzzzzzjjjlljjzzzzzzjjjjzzzjjjjkkzzkkkk   q0958uya",
"5yipw83:ut8  jjzzzzjjlllllllkkzzjjjjzzkkkzzjjjjzzjj  99qeqq809ry",
"yyuu65397iy  jjzzzzjjlllllllkkzzjjjjzzkkkzzjjjjzzjj  w8werr6$966",
"ywrq<9siw77  jjzzzzjjlllllllkkzzjjjjzzkkkzzjjjjzzjj  9899889*,<t",
"q086,4fwae9it  jjjjjjlllllllllkkjjzzkkzzzzzjjkkjj  w8089q079,109",
"$->3218wfduiy  jjjjjjlllllllllkkjjzzkkzzzzzjjkkjj  :8q94ewut7#;,",
"&r378857wefr5wd  jjzzzzzllllllllzzkkkkzzzjjkkkk  7=29q02weapw3->",
"$qytiiq3qea92p<  jjzzzzzllllllllzzkkkkzzzjjkkkk  -+:upe8iaaay7,$",
"1yut8qr9t5q8u77uu  zzzzzllllllllkkkkzzzzzjjkk  re,<rqei0ppapru:3",
"6wu49yui9weraq4id  zzzzzllllllllkkkkzzzzzjjkk  u924ty6qquiiurt:t",
"6qt30yu728qu7q4tt  zzzzzllllllllkkkkzzzzzjjkk  pe8eyyqtwrtyytu8d",
"d89qtqtq7875>u9927,  zzzzzllllllkkkkzzjjjkk  pppi07eqqp00riiuu:i",
"qp559354q3w17yw2135  zzzzzllllllkkkkzzjjjkk  ppp70qwttp210aaii69",
"-374:*%=6qew49:1qwwtr   zzllllllkkzzzzjjj  wuppi4,3udui9-4uapr5i",
">78$&1=+>6q0eyi3780wa   zzllllllkkzzzzjjj  6wip16;=rdyr9-;7wy83q",
"=55%3w647ip9065q75wrt   zzllllllkkzzzzjjj  r3085e11qpi94=2<595u9",
"5at+<eqwpppwr70t809rtiq0  zzllllkkzzjj   -59rr9upu410q6t;7>054r6",
"5p3>421wiipwptipit7yit85  zzllllkkzzjj   3,5w9paaap7-109<>+,qr85",
"85:qe37eu673ptyipu6rte9962  zzllkkzz  rttt3:*0aaassa71=6,8&287-6",
"irt888$*0*5:yuqrtt4q043qte  zzllkkzz  ttttr*#9aasssarwquq0>2,4ey",
"dssi9t;O=301;e4pee0yuq235r  zzllkkzz  tttt8>,5aassay<72,>t48iaas",
"ddsy;55:9tu41489340uq7wre9ie  zzkk  1w680wq3y3yasayq<w1396>9sssd",
"dddr5w16t39wett0737w27usprwa  zzkk  01368950p4euyw<,1656533pssdd",
"dsr8<2;<25tuuuuw8433*>issirqs4    6q7:3988;8r469,-299qqew5,ssdsd",
"sq*22;6=wyuyyuuy388r->9dsspesq    #;>5;4ew069677<=7wqrrtrq:766dd",
"%--9te3:yiiuyiiw>421:73tassty5    *<-<4,quiee7pp84ereertt=2rw085",
"5-9upp5<uiiuuuy4ruw60i59tps0r67aa9%,8rt7wrrue7pp7rreerrrt7tuuytr",
"ue25par<uiiuiyw6yur,30qi8w99uwpaay1quiiruyyiwpp48rtrret26yuuuuui",
"iut7aaa4uiute3:=yuu49yeii70qqwpaayyuippeiuitaai40trtrew4tuuuuuii",
"ir7aaaa50905&@*>=440ui0ii6erteiaairppaa0iii5apt>-94085#2ruuuuuii",
"e95aaaa+&,1%,5su7<Ot44;34=euuuuaassssss9pir<yt671-*-3&2=,8ruiiuy"
};
