/* XPM */
static char *_c5c25cf436c4bf991ec5b0aca3347ddz096is4EqHVpmtih[] = {
/* columns rows colors chars-per-pixel */
"50 50 231 2 ",
"   c #100900",
".  c #35190E",
"X  c #312C0F",
"o  c #513907",
"O  c #583715",
"+  c #43322B",
"@  c #785D00",
"#  c #456500",
"$  c #6F6E0F",
"%  c #677B2E",
"&  c #79764A",
"*  c #7A7757",
"=  c #6E6C59",
"-  c #656565",
";  c #6A6A66",
":  c #6C6C6C",
">  c #676967",
",  c #726B6F",
"<  c #6E726D",
"1  c #72736E",
"2  c #7A7967",
"3  c #6D6D71",
"4  c #726E73",
"5  c #796F77",
"6  c #6E7272",
"7  c #747474",
"8  c #797575",
"9  c #757974",
"0  c #7B7A75",
"q  c #767579",
"w  c #7A767A",
"e  c #767A79",
"r  c #7C7C7C",
"t  c #827F00",
"y  c #A47B00",
"u  c #937E2B",
"i  c #897A34",
"p  c #887B46",
"a  c #877D59",
"s  c #8D6D56",
"d  c #857C66",
"f  c #827D75",
"g  c #817D7C",
"h  c #877A7A",
"j  c #7A8A32",
"k  c #7E817D",
"l  c #7D8175",
"z  c #7D8465",
"x  c #7A9453",
"c  c #B39218",
"v  c #90AB17",
"b  c #8AA726",
"n  c #9BA633",
"m  c #92AE33",
"M  c #BBAF2A",
"N  c #ACB831",
"B  c #A9A631",
"V  c #AC9627",
"C  c #C49300",
"Z  c #CC9A00",
"A  c #C69B03",
"S  c #C79917",
"D  c #C78F00",
"F  c #DAAA05",
"G  c #DAAD17",
"H  c #DBB318",
"J  c #CEA912",
"K  c #E5AE06",
"L  c #EEB606",
"P  c #EDBC0B",
"I  c #E7B508",
"U  c #F1BC09",
"Y  c #F3BD05",
"T  c #EDBB13",
"R  c #E7BA18",
"E  c #F1BD16",
"W  c #E2AB13",
"Q  c #C5A328",
"!  c #D6AA27",
"~  c #DBBA26",
"^  c #C7A635",
"/  c #D2B933",
"(  c #E8BA2B",
")  c #E4B836",
"_  c #B1C61F",
"`  c #B6C737",
"'  c #EEC00A",
"]  c #F3C40C",
"[  c #F4C306",
"{  c #F4C313",
"}  c #FCCB14",
"|  c #FBCC1B",
" . c #F7C718",
".. c #FDD01C",
"X. c #FFD017",
"o. c #E9C21F",
"O. c #D3CD35",
"+. c #E7C52A",
"@. c #FECC23",
"#. c #FACA28",
"$. c #FED324",
"%. c #FED52B",
"&. c #FED82C",
"*. c #EBC539",
"=. c #F8CC38",
"-. c #EDD433",
";. c #FDD432",
":. c #FDD539",
">. c #FEDA3D",
",. c #F9D737",
"<. c #8E835C",
"1. c #948556",
"2. c #9C824F",
"3. c #AB934F",
"4. c #8FA845",
"5. c #B3B156",
"6. c #878266",
"7. c #988C69",
"8. c #9E9064",
"9. c #82827E",
"0. c #8A867B",
"q. c #898777",
"w. c #918B7B",
"e. c #958C73",
"r. c #9A9479",
"t. c #A59167",
"y. c #B19F6C",
"u. c #8FA76D",
"i. c #B1B86A",
"p. c #C29E4A",
"a. c #C7A849",
"s. c #D5AC42",
"d. c #E4BA53",
"f. c #EEBF49",
"g. c #D5B560",
"h. c #B2C460",
"j. c #D3C44A",
"k. c #E9C94A",
"l. c #F5CA45",
"z. c #FDD643",
"x. c #FEDC44",
"c. c #FEDC4C",
"v. c #F7D74A",
"b. c #E7C659",
"n. c #FEDB52",
"m. c #FDDC5C",
"M. c #F8D75A",
"N. c #EDD754",
"B. c #FFE248",
"V. c #FFE25B",
"C. c #FAE65B",
"Z. c #DFCA7D",
"A. c #DBC269",
"S. c #E9D26C",
"D. c #FDDB61",
"F. c #FDDD69",
"G. c #F4D969",
"H. c #E9CB7A",
"J. c #E9D779",
"K. c #F9DC76",
"L. c #E9C46A",
"P. c #FFE264",
"I. c #FEE36F",
"U. c #FEEA6B",
"Y. c #FFEA63",
"T. c #FEE472",
"R. c #FEE87B",
"E. c #EFE37F",
"W. c #7E7D82",
"Q. c #7F7482",
"!. c #827D82",
"~. c #7E8182",
"^. c #838383",
"/. c #898684",
"(. c #868985",
"). c #8A8B86",
"_. c #868489",
"`. c #8A858A",
"'. c #868A8C",
"]. c #8D8D8D",
"[. c #8B8B8B",
"{. c #938D82",
"}. c #928C8D",
"|. c #92878B",
" X c #8C918C",
".X c #8A9089",
"XX c #93938D",
"oX c #969588",
"OX c #8E8D91",
"+X c #938E91",
"@X c #8D9292",
"#X c #909090",
"$X c #929392",
"%X c #959595",
"&X c #939292",
"*X c #959499",
"=X c #999593",
"-X c #A68B82",
";X c #D6D599",
":X c #DCC581",
">X c #E4CD84",
",X c #E7D585",
"<X c #F6DD82",
"1X c #E9D79B",
"2X c #F9DE91",
"3X c #FFE982",
"4X c #FBE788",
"5X c #F7E49A",
"6X c #DDCFA0",
"7X c #ECDFAA",
"8X c #C8E1A8",
"9X c #FDECA6",
"0X c #FCF7A9",
"qX c #F7EAB6",
"wX c #FFF5BC",
"eX c #FFF8B6",
"rX c #E8F4B2",
"tX c #D5CBCB",
"yX c #D4E1C7",
"uX c #FEF2C3",
"iX c #FFFAC3",
"pX c #FEFECB",
"aX c #F3FEC4",
"sX c #FFFEDC",
"dX c #FCF9D4",
"fX c #EBFFDA",
"gX c #EBEBE6",
"hX c #EEFFE3",
"jX c #FFFDE3",
"kX c #FAFEE7",
"lX c #FDFDFA",
/* pixels */
"k k W.w q 7 8 w 5 8 q 8 7 7 q q !.r _.].$X].].$X[.: - : [.$X]._.^.^.8 7 8 8 7 0 : 7 7 8 8 8 0 r W.W.",
"k k W.q 7 7 7 8 4 4 7 7 < 6 7 7 r r _.$X$X$X$X%X[.7 - : [.$X'.^.r ^.8 : 8 8 6 8 7 7 7 7 7 7 q r ^.^.",
"^.r r q 7 7 8 0 7 q 9 9 9 9 q r ^.^._.[.].[.[.]._.7 - 7 [.$X].^.^._.0 8 r 8 : 7 8 0 8 8 7 8 0 0 r r ",
"W.W.r 0 0 r ^._._.(.(.(.(.(.'.'.].[.^.^.r 0 0 0 r : ; 7 [.%X$X[.[.].[._.(.r : ; 8 0 r 0 0 0 r 0 8 8 ",
"W.W.r r g /.].%X$X$X%X=X=X=X$X%X%X$X_.0 7 : 6 7 7 6 7 0 [.%X%XXX].%X$X].$Xr ; - 6 0 ^.r r ^.r 0 7 7 ",
"W.W.r 0 g 9.[.$X X@X+X+X|.|.[.].XX].^.7 : 7 8 8 7 e r ^._.].].].[.$X].].].r ; - 6 r ^.W.r ^.r 8 8 8 ",
"!.W.0 1 1 7 0 ~.r r !.g g w w 8 r r 0 8 7 8 e 8 8 ^.[._.r r ^.^.^._.^.~._.^.7 8 r _.[.^.r ^.r 8 r r ",
"^.W.8 : - - > : 6 6 7 3 : > - - : 8 8 7 7 8 8 : r ].%X[.8 7 7 8 r ^.0 0 ^._.^._.].$X$X^.r ^.^.r ^.^.",
"g r 8 : > > : 6 9 r q 3 3 6 ; - 8 8 8 7 7 8 8 7 0 [.%X].0 7 8 r r r r r r r W.W.[.].$X]._.r r r ^.~.",
"g r r W.r r r r q r ^.lXtXgX7 lX1 7 7 0 0 r ^.^.^._.[._.^.0 0 0 0 0 0 0 0 0 r r r r ^.r 0 0 r ^.r r ",
"r k ^.'.OX]._.k ~.^.g tX. + 2 gX> ; 6 e _._.%X$X]._.r ^.^.^.r 8 7 7 7 7 7 7 7 8 6 7 7 : 7 8 0 r ~.~.",
"k k ~.'.+X}.^.0 ~.k h -X. .   oXlX: 7 0 ^.'.[.$X$X_.0 0 ^.^.0 8 7 7 7 7 7 7 7 7 7 7 7 : 7 8 0 8 ^.^.",
"k k ~.'.+X+X`.!.].r d s O O X = lX7 7 8 0 r r ^._.r 8 0 0 0 0 r r r r r r r r r ^._.^.^.^._.r 8 8 8 ",
"k k ~.'.+X=X=X+X].l jXO o o * yX1 7 7 7 e 7 0 7 8 7 7 q 8 7 r [.$X$X$X$X$X$X$X$X].$X$X].$X$X_.7 ; ; ",
"r r ^.'.].XX$X$X].l & i.$ % u.hX9 8 7 8 7 6 7 7 8 6 7 0 8 : e [.$X$X$X$X$X$X$X$X].$X].[.].$X_.: ; ; ",
"0 r ^._._.^._._..Xz rX5.4.4.u.hX< 7 q 7 7 9 e 7 r 8 8 0 7 ; 7 ^.'.[.[.[.[.[.[.[.^._.^.r ^.[.r ; 7 7 ",
"7 9 q 7 6 3 g 0.z aXh.b m m x hX1 7 3 q 7 6 6 e e ~._.r : - , g r r r k k e 8 8 8 1 7 7 > - 7 _.^.^.",
": 7 7 q 3 8 0 6.;Xh.m v ` b % fX< 7 6 q q 3 6 6 8 r 9.r 3 - : w !.^.k r e e 7 1 8 w 4 : 1 - 7 r ^.^.",
"r 0 ^.W.r q.6.;X5.N $ N _ v # 8X2 1 0 0 ^.^.8 8 r 0 0 r 8 : 7 0 r _.9.9.r r 0 g w Q.W.r 9 9 e < 0 0 ",
"%X=X].].oXe.iX,XN./ t ` O.O.n j pX* 2 0.}.[.[.XX].9.r W.^.r r k (.0 9.9.^.[.].[.`.%X+X[.[..Xk < : : ",
"XX$X$X=Xr.uXH.K.v.~ c U.U.C.N.M n 0X6.{.=X=X].%X[.^.W.^._.^.k k k k l 9.^.OX$X=XoXoXoXXXXX=X_.6 - - ",
"[.)._.0.7.1X<XD.z.A ! I.T.I.v.c.O.B ,XpX7.e.e.q.q.r r r 0 0 2 6.d d 6.* a <.a 1.iXwXwXiXpXsX0 7 7 7 ",
"~.r W.0.<.>X<Xm.;.F S T.3X3Xm.v.v.O.M j.E.eXpXa * * 2 2 * * & & p i i 0X3XG.M.l.l.l.*.*.k.5.d r r r ",
"^.~._.f p ,X3Xm.;.F C m.R.3XF.M.v.v.-.o./ j.S.4X5X9X0XeX9X9X5X4XK.G.b.k.*.=.@.@.|  . .#.~ V a g !.^.",
"r r ^.q.1.>X3Xm.,.R C ( Y.U.T.G.M.n.x.,.-.+.+.+.+.*.*.*.*.*.=.=.=.=.=.=.;.@.| } { ] I o./ 3.d W.^.^.",
"r r _.q.8.Z.R.P.x.#.W A +.C.Y.U.P.n.v.>.,.&.%.&.$.$.$.$.$.$.$.@.@.@.|  . .{ { P Y L P ~ J.pX{.'.].].",
"r k k w.1.Z.R.V.c.:.#.K C #.x.B.n.n.c.c.>.,.:.:.:.;.%.$.$.$.$.$.| | }  . .} } ] ] T +.m.wXr.XX$X&X$X",
"r k (.q.7.5XG.V.V.v.;.#.L D I ;.x.c.x.z.:.>.:.;.:.;.%.$.$.$.$.$.| | | } { ] ] U U T G ^ 6X{.XX@X].].",
"k ^.r 9.2 qXG.V.V.n.z.;.$.{ C Z W #.;.;.;.%.%.%.%.$...X.X.| |  . .{ ] Y Y U U L K T H c p dX0.^.^._.",
"(.r W.0 0 sX<XD.P.m.n.x.%.%.@.T Z Z F K T { { { ] ] ] ] ' ' T E T P L L L L L W G J M u y.oXq.l 9.^.",
"9.g !.7 7 2 wX,XI.D.D.M.v.,.:.;.%. .I F F K L U Y ' [ ' P P H G K K K K K K W ! ^ A.uX6.{.[.).k r r ",
"9.g r 8 0 0 6.qXK.T.K.F.m.c.z.:.%.%.%.%.$.@.$.$...X.} }  .R A y c S S Q ! ) d.L.5XpXd !._._._.^.^.^.",
"^.^.9.r r ^.).r.9X<XK.F.P.m.m.m.n.z.z.:.:.;.,.,.;.$.} [ ] F S @ u 1XqXpXt.8.7.e.e.q.f g g r r ^.k ^.",
"^.^.~.k ~.^.).w.7.1X<XK.F.P.m.M.m.n.n.z.c.x.,.B.z.;.| ] T G c $ qXw.oXXX}.$XOX+X^.r r r 9.^.^.r r r ",
"8 q q W.!._._./.w.jX7XJ.G.M.D.m.n.n.n.c.c.z.x.,.:.#.@.E G c 5.uXd w.0./.^._.`._.^.^.^.9._.].^.7 8 8 ",
"- > 3 q !.^.^.!._.f 6.iX,XS.S.M.M.M.n.n.z.z.z.:.l.l.) ! ^ 2Xt.e.q.f f g !.W.W.!._.XX$X).].%X_.; ; ; ",
"- - ; 7 g !.!.0 0 l 9.6.d uX:XA.b.b.f.l.=.( *.) s.a.p.3.y.dXw.).0 g g _.r W.^.W._.XX$X).].$X_.: ; ; ",
"7 7 7 8 w r w 7 9 k r 8 8 2 sXwX5X,XH.L.d.d.a.g.eX2.t.7.e.oX].r 0 r w 7 r r q w e ^.^.9.^._.^.8 8 8 ",
"k k W.r q q 7 7 7 8 w q 7 1 2 2 2 kXkXjXjX& * a d {.oX{.w.XX@XW.7 4 7 q 7 4 q 7 7 8 0 0 8 0 r r r r ",
"k ~.W.w 7 3 7 0 7 4 q 4 3 7 7 6 7 q q q 7 7 8 7 w OX*X[.}.%X@XW.8 4 7 q 3 q q 7 8 7 7 7 1 : 7 r ^.^.",
"W.W.~.~.~.r 0 0 w !.!.!.0 e e k 9.k 0 w w q 7 6 e ~.'._.^._.^.r : : 7 8 q 0 0 0 e 8 9 r r r ^.[._._.",
"W.W.^.'.]. X X].[.}.+X+X].].'..X X)._.!.!.r 0 9 6 9 e q w w 7 : ; ; : 7 8 0 r k k r r _.].].].OX].].",
"r ~._.[. XXXXXXX%XXX$X$X*X*X*X$X$X$X`._.!.g 8 7 1 < < : 4 7 , - > > : 1 7 0 r ^.^.r r [.%X%X$XOX$X$X",
"r 9.9.(.).).).).(.^.^._._.'._._.'._.^.!.!.r 8 1 0 9 7 8 8 8 8 8 7 7 9 0 r k r r r 0 e ^.[.[.[.[.[.[.",
"^.9.9.9.9.~.W.W.W.e 9 1 0 r w w r 0 q e 0 9 7 7 0 r !.!.W.r ^.)._.(.[.].[._.9.r 0 8 7 q 8 8 r ^.^.^.",
"r r g g r W.W.W.r e 7 1 1 7 8 8 : : : 6 6 7 6 < 7 r ^._.W.r ^. X$X&X%X%XXX[.^.r 0 8 7 7 7 : 8 k r r ",
"r r 0 0 W.W.W.W.r 0 8 7 1 1 7 8 0 8 8 9 e e 7 7 8 w W.^.W.0 r [.].].].[._.^.r r r 7 7 8 9 8 0 r r r ",
"9 9 q q q w w w 7 8 8 7 : ; < 7 ].].[.[.[.[.^.^.r 0 r ^._.W.g ^.^.^.r 0 8 8 e r r 7 3 8 k k r 0 9.^.",
"8 8 8 8 8 7 7 7 7 6 7 8 : - ; 0 $X$X$X$X].[.^.r r r r r W.r ^.^.9.r 0 8 7 7 7 8 7 7 7 e r ~.9.r ^.^.",
"8 8 8 8 8 7 7 7 7 6 7 8 : - ; 0 $X$X$X$X].[.^.r r r r r r r ^.W.^.r 0 8 7 7 7 8 7 7 7 e r ~.~.r ^.^."
};
