/* XPM */
static char *xpm_[] = {
/* columns rows colors chars-per-pixel */
"65 64 156 2 ",
"   c #1C0D05",
".  c #160B09",
"X  c #1B0E0B",
"o  c #1C110E",
"O  c #1E1412",
"+  c #1F1814",
"@  c #220E05",
"#  c #220E0B",
"$  c #22130E",
"%  c #221614",
"&  c #281514",
"*  c #231816",
"=  c #291A16",
"-  c #231719",
";  c #251A19",
":  c #291D1B",
">  c #2D211E",
",  c #30231D",
"<  c #2E2423",
"1  c #2F2826",
"2  c #312625",
"3  c #312826",
"4  c #342C2A",
"5  c #382E2D",
"6  c #3A312F",
"7  c #3B3635",
"8  c #3B3738",
"9  c #413736",
"0  c #433837",
"q  c #443A3A",
"w  c #483F3C",
"e  c #47413F",
"r  c #48423F",
"t  c #4C4544",
"y  c #4F4846",
"u  c #4E4948",
"i  c #504947",
"p  c #534C4B",
"a  c #56514E",
"s  c #58514F",
"d  c #5B5654",
"f  c #5E5A57",
"g  c #5B5758",
"h  c #5E5959",
"j  c #625A57",
"k  c #615758",
"l  c #615B59",
"z  c #636162",
"x  c #6B6464",
"c  c #6F6D6D",
"v  c #706866",
"b  c #726E6E",
"n  c #6F706F",
"m  c #71716F",
"M  c #6F6F70",
"N  c #716F71",
"B  c #6F7071",
"V  c #737272",
"C  c #797574",
"Z  c #767876",
"A  c #797977",
"S  c #767679",
"D  c #797779",
"F  c #7C7A7B",
"G  c #817E7D",
"H  c #80807F",
"J  c #7F8181",
"K  c #828382",
"L  c #838382",
"P  c #878180",
"I  c #888686",
"U  c #8B8986",
"Y  c #8D8987",
"T  c #868789",
"R  c #888788",
"E  c #878888",
"W  c #8A8A8A",
"Q  c #8B8C8C",
"!  c #918D87",
"~  c #918D8C",
"^  c #8F908F",
"/  c #95918D",
"(  c #918F90",
")  c #8F9090",
"_  c #919191",
"`  c #939393",
"'  c gray59",
"]  c #9C9C9C",
"[  c #A6A2A0",
"{  c #A6A3A0",
"}  c #A7A4A1",
"|  c #A6A4A4",
" . c #A9A4A2",
".. c #AFAFAF",
"X. c #B3ACAA",
"o. c #AFB0AF",
"O. c #AFB1B0",
"+. c #B4B5B4",
"@. c #B5B5B4",
"#. c #B6B6B6",
"$. c #BAB7B7",
"%. c #B7B8B7",
"&. c #BAB8B6",
"*. c #BBB8B7",
"=. c #B6B9B8",
"-. c #B9B9B9",
";. c gray73",
":. c #BBBBBA",
">. c #BBBBBB",
",. c #BBBDBA",
"<. c #BEBEBD",
"1. c #C0BFBC",
"2. c #C2C1BE",
"3. c #C0C0C0",
"4. c #C3C2C1",
"5. c #C3C2C5",
"6. c #C8C6C3",
"7. c #C7C9C9",
"8. c #CACACA",
"9. c #CDCDCC",
"0. c #D0CECE",
"q. c #CFD1CE",
"w. c #D2D0CE",
"e. c #D0CFD0",
"r. c LightGray",
"t. c #D5D4D4",
"y. c #D5D5D5",
"u. c #D7D6D6",
"i. c #DAD7D5",
"p. c #D5D8D5",
"a. c #DAD9D6",
"s. c #D8D7D8",
"d. c #D6D9D9",
"f. c #DADBD9",
"g. c #DBDBDB",
"h. c #DCDADB",
"j. c #DBDCDB",
"k. c #DBDBDC",
"l. c #DBDCDC",
"z. c #DDDDDD",
"x. c #E0DEDF",
"c. c #DEE0DF",
"v. c #E0E0DF",
"b. c #DEDFE1",
"n. c #DFE0E1",
"m. c #E1E1E1",
"M. c #E2E3E3",
"N. c #E5E2E3",
"B. c #E3E4E1",
"V. c #E4E5E2",
"C. c #E3E7E6",
"Z. c #E4E4E4",
"A. c #E5E4E4",
"S. c #E7EBE8",
"D. c #E9EAE8",
"F. c #EBEAE9",
/* pixels */
"@ & % + $ $ $ $ $ $ o $ o $ $ * + $ $ $ % o + o o $ % o + $ % % % $ % & + + O O % % O + o $ o % $ $ + $ + o + + + o $ * & $ ; * * ",
"# = % % * * > + + > > * + + + * * * * * * * ; * ; ; ; ; - * * = = & - & & * * & ; * % % % % * * ; ; * * * * % & % = % ; % & * * * ",
"$ ; * * * & * * + ; & % = * = * % & * * * * * * % % % * * * * * * - * * % - * * * * - % % * * * * ; * * - * * * * - * + * * * * * ",
"  ; * * % % * % * * * * * * * $ % * * * * % * * ; * * * * - % % * * * % * % % + % * % + * * * * * * * * % % + * % % * * * * * * - ",
"  = * % * * * % * + + % * $ * $ * * * * * * * * % * * * * * * * * * * * * * * * * * - = * * * * * * ; % * ; * * * * * * ; * % * + ",
"  = * + $ * % = = & = & = = + > % % * * % - + * ; * ; * * * * & * % * * % - - * + * * % + * % * * * % % % * * * + * = * + * = * * ",
". ; ; % & % % + O O + + O + + o % * * + - - % - ; * * * % * ; * % - - - - % = + * * - % % - * * * * * + * * * * - * * * ; $ - * * ",
"  * * b ,.&.&.,.;.=.;.=.;.&.,.%.+.>.W < = % ; % + % * * * * % * * * * * * * * * * * * * * * - + * * * * ; + * * * * ; % + % * * * ",
"$ ; = P S.N.M.M.M.M.M.A.A.A.A.A.B.F.} 3 & - * * * * * * % * * * * * * * * * * % * * + - * * * * * * * * * * + * * * * * % & * + * ",
"o + - G C.g.g.k.z.z.k.z.l.k.h.h.g.M.{ 3 * ; * * * - + * * * * * * * * % * * * * * * * * * - * * + * * * * * - * * % * - - = - * * ",
"$ ; - V 7.5.5.7.8.8.7.y.y.y.y.z.j.B.[ 2 % % * * * * % * * * * * * * * * * * * - * - * * * % * * - * * * * % * * * * * - * * - * - ",
"$ ; - p J F J W ` ` ' +.;.>.3.y.g.V.[ 1 * * * * * * * * * * * + % * * * * * * % * % * * * * * * * * * * * - * * * * * - * * * * % ",
"$ * & t B V V K W W W ..+.+.;.y.j.B.[ 1 = + * * % * * * * * * * * * * * * * * * * * * * * * * % * * * * * * * % * * % + - % * * * ",
"@ & ; t V N V K T R W ..;.&.>.s.j.A.[ < ; ; * - - * * * * * * * + * % * * * * * * * - & * * * * % * * * * * * * * * * * * * * * * ",
"+ * ; t V M N J W W W ..;.;.1.z.z.N.| < % * + - * * % - * % * - - % * * - % * ; + * = - * * + * * * * % * % * * * * % % % = * * * ",
"% * * y V V V K W W R ..;.+.>.y.k.M.| 1 * % ; * + - = % * * * * * * + - - ; % ; - * + % * * - * * * * - * * * * % * * * + * * * * ",
"$ * - y V B V K W W R o.;.+.1.s.h.M.[ < - & ; ; % = & % % * % - % % % % ; ; & * ; % + % * * * * * * + - * * * * * % * * * % * * * ",
"+ ; - y V B V J W W W o.;.+.>.i.k.N.| 2 - - + + * % + % % + % % % % % % - + & * & % ; * * * * - * * * * * * * * * * * - * = % * * ",
"+ - - t V n V K W W W ..;.+.>.s.k.M.| 2 ; + : 3 < 3 3 3 1 2 3 2 3 3 2 2 1 < * = ; % * * + - * % * % * * * * % * * - * & * * * * * ",
"* - - t V n V J R Q R ..;.+.>.s.h.C.[ < - O u X. . . . . . . . . .}  . . .! 8 O ; - * * * * * * * * * * * * - * * + * % % % % * % ",
"+ - ; t m m V K R W W o.;.+.>.y.z.N.| 3 ; X l F.g.z.x.z.b.z.z.z.z.z.z.z.x.1.t o ; = + % * % * * * * * * * * * * * * * % % * % * * ",
"* * - t m m V P W W W o.;.;.>.i.l.N.[ 2 ; . z F.j.k.z.n.k.b.b.b.b.b.z.z.M.>.q % - & ; - * * * * * * - + * * * * * * * * - * ; * * ",
"+ - * t V B V K R W T o.=.+.>.s.z.C. .2 - O z s.e.r.r.y.y.r.k.y.z.s.k.k.M.<.t O ; * - * * * * * * * * * % + - * * * * - % % % * * ",
"* - - t V c V K W Q R X.>.%.>.s.z.M.| 2 ; O 8 G V S G W Q Q | =.+.+.y.z.x.;.e + = * - * * - + * % - * * * * * * * * * + * - = * * ",
"+ * * t S M V K R W W ..;.%.>.y.z.M.| 2 = O 7 V N V F W E W [ =.=.+.r.z.M.;.t % - * ; * + * * * * * * - * * * * * * * * * - * * * ",
"+ - - t V B V J W W W ..>.+.>.i.l.C. .2 - O 7 S N N F W W Q | %.;.+.y.z.z.1.r $ ; * ; * * * % * * * * * * * * % * * * * * * * * * ",
"+ ; * u V N m K W W W ..>.%.>.s.b.A.| 3 ; % 7 G c M F W T W | ;.+.+.r.z.j.<.t % ; * * - * * * * * * * * + - * * * * * * + * * * * ",
"+ - * t V c V K W W W ..>.+.>.i.k.M. .2 - o 7 D c V F W W ) | =.;.+.r.k.x.<.w % - * * * * * * * * * * * * % * * % * * ; * * * * - ",
"+ - = t V M V J W W W ..;.+.1.y.k.M.| 2 ; O 8 V M V F W W W | +.+.&.y.z.x.1.r $ = * * * * * * * % * * * ; * * * * * * * * * * * + ",
"% * ; t V B V K W W W ..;.+.>.y.z.M.| 2 - O 8 C c V F R W W | ;.+.+.y.z.x.&.r % * * ; * % = * * * - * + * * * * * * * * % - * * * ",
"+ % - t V B B K W W W ..;.+.<.y.z.M.| 3 = % 7 C b V F W W W | +.+.+.r.x.x.1.t % % * + + * ; * * ; ; - = ; * * * * * ; * * * * * * ",
"+ - ; t S M V J E W R ..;.+.<.t.z.C. .2 = O 7 V b N F R W W | =.+.+.r.h.h.;.w % - & % - = = = * ; - - % ; ; * * * * - % * * * * * ",
"+ * - t V B V F W W W ..;.+.>.y.l.N.| 2 = % 7 C N N F R W W | ;.$.+.r.z.z.<.t $ - & O O O O o % o + + O o % > : % * = = * * * * * ",
"+ * ; y V V V K W W W ..;.;.>.i.z.M.| 3 = o 7 C N V F R T E ..=.+.+.r.z.z.;.t % - < u t y t t i i i i y t i a a s 0 2 ; * * * * * ",
"+ - ; t V B V K W W R ..+.;.>.g.z.M.[ 3 = O 7 C b N F W W W | =.+.+.y.z.g.$.w : : i 6.9.9.9.0.w.w.w.0.w.w.8.8.r.w.x = ; * * * * * ",
"% % * t V B V K R W R X.;.+.>.y.k.C.| 2 - O 8 C b V F R W W | +.+.+.y.z.g.<.p > > p 0.e.y.p.a.j.j.j.j.x.j.g.p.p.i.x : * + * * * * ",
"+ - ; t V B V J W W W ..;.+.>.s.z.M.| 2 ; O 7 V b N G R W W | +.+.+.r.g.k.2.p 2 : k k.s.h.z.M.M.v.N.M.M.z.x.z.p.r.x : * - * * * * ",
"+ - ; t V B B K W W W ..+.;.1.y.z.C.| 2 & O 7 A b V F R W W | =.+.+.r.j.z.1.i > > p +.+.+.;.5.3.>.6.9.8.w.g.M.j.r.h + * * * * % * ",
"+ * * t V c V K W W W ..;.+.>.s.b.M. .2 ; % 8 C b V G R E W | ;.@.+.r.h.j.,.t ; > 0 A S A F W W W ] o.+.;.e.M.l.y.j o ; * - * * - ",
"% * ; t V N V K T W W ..;.;.>.y.z.M.| 2 = $ 8 C b N F R W E ..=.+.+.y.j.j.&.r ; : q A S F K ) W L ] ..+.+.r.b.z.p.j o - % & % * % ",
"+ - ; t S B V K W W W ..;.+.>.g.l.M.| 2 = O 7 C b V F I W W | =.+.X.r.d.j.&.r % % 7 C F F J Q W I ' ......9.c.l.a.l o = * & * * * ",
"+ % ; t V B V G W W W ..;.+.>.y.k.C.| 3 - % 7 C b N F W W W | +.+.+.r.g.j.&.e + o 6 V S F F Q ( W ] O.o.+.9.M.j.j.l o % * ; - * * ",
"- % - t V M V J W W W ..%.+.>.s.z.C.[ 2 - O 7 V b V F W W W  .+.+.+.r.d.g.&.e + ; 5 x S S L ) ( Q ] ......9.M.j.a.l o = * * + * * ",
"+ - * t V c V K T W W ..>.$.>.s.l.M.} 2 & % 8 C V N F W W E  .+.+.+.e.g.g.&.t & % 5 b N S F ( ( ) | +.O.+.e.B.j.a.f o * * * % * * ",
"+ = - t V M V K W W W ..;.+.>.y.z.M.| 2 = O 7 A b V F R E E | +...+.r.g.z.2.i : : 0 N N N S ` ~ ` | =.=.;.e.M.g.p.f o ; * & * * * ",
"+ ; * t S B V K W W W ..;.%.3.y.k.M.[ 2 = O 7 C b M F R E T | +.+...r.z.M.2.p 2 2 q C S N N W ( ` [ =.;.+.r.z.g.y.f o * % - % * * ",
"+ - - t V M m K W W R ..;.+.>.y.k.M.[ 2 = O 7 V c b F W W E | +.+.+.9.z.M.2.p > , q C D D S I R ) | ;.;.;.r.c.a.y.f o * % - ; * * ",
"% - % u V c V J R W W ..;.+.;.y.k.M. .2 - O 7 C b N F E E E | O.+.+.y.z.M.<.i = : q G S F G I I E | ;.;.&.0.j.p.p.f o - & % * * * ",
"+ - & t V B V K W W W ..;.+.>.y.k.M.| 2 - % 7 m b b F R E W [ +.+.+.t.x.M.1.t ; : q D D F F T I W | ;.;.;.9.k.y.y.j o % * * * * * ",
"+ - * u V B V K W W W ..+.+.>.y.k.M.[ < - O 8 C V C F R T W | O.+.%.t.x.M.&.t & = q C D S G W I T ] =.=.+.9.g.y.y.l o * * = * * * ",
"+ - * t V B V K W W W ..>.+.2.y.k.M.| 2 = O 8 F A F G R K T | O.+.+.g.z.k.$.r % O 5 N F S G ( T I ' +.+.O.8.g.g.i.f o ; * = * * * ",
"+ * - t V M V G E W W ..,.+.>.g.k.M.| < - % 0 F A F P W T I | ..+.$.i.x.z.>.r & & 5 b S S G ~ W T ] o.+.+.8.z.p.i.j o * + - * * * ",
"- * - t V B V K R W W o.;.+.>.g.g.M.[ < & $ 8 A A F P ( Q W | ..+.=.y.z.b.$.r O O 5 v S F F ~ I E ] O.+.+.8.c.g.a.j o * - ; * * - ",
"+ * - t V B V J R W R o.+.+.>.y.k.M.} 1 & % 7 C V S R ~ ( W | o.+.+.t.M.b.2.t % O 5 N N F J ` W E ] +.+.+.8.z.g.i.j o ; + * * * % ",
"+ % * t V B B K R W R o.;.+.>.g.k.n.} < - + 7 C m S K ` Q Q } +...+.t.M.N.3.u = & 6 N S F J Q E E ] +.+.+.8.n.p.i.j o ; * % * * * ",
"- - * t Z B V J W W R O.+.&.>.y.l.b.[ 1 & O 8 m b V K ~ ` ) +.=.+...r.k.b.3.a > > 0 C D F F W I I ] +.+.+.q.n.d.a.l o ; + * * * * ",
"+ * ; t Z B V J W W T ..;.+.>.i.d.M.{ 1 & O 7 V c F K ( ^ ^ ..=.+.+.e.g.z.3.p 2 2 q C S D D R I W ] +.+.+.8.z.a.a.j o $ > * * * * ",
"+ ; - t V B V K R W I ..+.+.>.y.g.c.{ < - O 7 C V S P ( ^ Q ..;.>.+.9.y.M.3.p : > 0 C S V C I E W ] +.+.+.q.n.g.a.l o * + % * * * ",
"+ ; + t V B B J W W T ..%.O.>.y.j.M.{ 1 = O 7 V S F I W W W o.,.;.;.g.k.d.;.t : : 7 V c N S I T W ] +.@.+.e.M.d.j.j o ; $ & * % * ",
"+ - * t V V n J T T W o.%.+.;.t.j.j.{ 1 - O 9 A F A G Y K K  .,.&.&.t.g.a.+.w % + 4 b V c A I T W ] @.%.+.9.z.z.i.j o & + % * * * ",
"+ - - 8 p a u d f f l b C V C U U U x > & % 3 f d d g h g g v m G G ! ! / F 7 % % 1 t t y a f f h x V V m H ! Q U e o * + + ; * * ",
"+ - + - ; * ; > * ; % > = ; * > > > ; * ; * * 3 < 1 < > % * > ; 2 2 4 4 4 3 & % = * - ; ; ; ; > ; ; > ; + > ; ; ; ; % = > + * * * ",
"O = - ; ; % * * - - * > & = * * * ; & % + ; > > , > > > > % & $ & > 2 2 2 > > - = % * * ; % ; * * * ; + $ > * ; $ * % % * = * * % ",
"o % % * * % & $ & % $ * * > * % + $ $ * + ; $ > , > > > * % % $ * , , > 2 = + + & $ = $ + $ $ $ o o o + + * o $ $ % % % % & + * % "
};
