/* XPM */
static char *e4043c4909754c4ead452a2af24ce273Jk9bBLYKsPmlNnIT[] = {
/* columns rows colors chars-per-pixel */
"50 50 237 2 ",
"   c #2A1C0A",
".  c #220F09",
"X  c #382908",
"o  c #3D310E",
"O  c #2E2213",
"+  c #392D15",
"@  c #3F3319",
"#  c #3A2922",
"$  c #472D08",
"%  c #45330C",
"&  c #58380C",
"*  c #423415",
"=  c #42341B",
"-  c #453A1C",
";  c #4D3D1C",
":  c #4C3819",
">  c #533C1B",
",  c #573D14",
"<  c #502F04",
"1  c #4C3C22",
"2  c #4B3D2A",
"3  c #483826",
"4  c #543D26",
"5  c #44362D",
"6  c #4F411D",
"7  c #55441C",
"8  c #5C441B",
"9  c #5B491D",
"0  c #584317",
"q  c #5A400F",
"w  c #614415",
"e  c #63441C",
"r  c #67491C",
"t  c #4E4125",
"y  c #4E422E",
"u  c #544423",
"i  c #5A4524",
"p  c #5C4A24",
"a  c #53452B",
"s  c #564A2D",
"d  c #5C4B2C",
"f  c #57472A",
"g  c #5D522C",
"h  c #4E4532",
"j  c #4B4539",
"k  c #534433",
"l  c #5A4B32",
"z  c #574A39",
"x  c #5D5332",
"c  c #5B543E",
"v  c #57513B",
"b  c #634C24",
"n  c #634D2C",
"m  c #6A4D2C",
"M  c #684926",
"N  c #645326",
"B  c #65522D",
"V  c #6B532B",
"C  c #6D5526",
"Z  c #715426",
"A  c #75542C",
"S  c #735A2B",
"D  c #7A5D2E",
"F  c #785927",
"G  c #624E33",
"H  c #6A4C32",
"J  c #635234",
"K  c #6A5433",
"L  c #63533B",
"P  c #69553A",
"I  c #6C5A3A",
"U  c #6B5A36",
"Y  c #735B33",
"T  c #7B5D32",
"R  c #745C3B",
"E  c #765837",
"W  c #734E22",
"Q  c #75602E",
"!  c #6F6431",
"~  c #7C6335",
"^  c #75623D",
"/  c #7B643B",
"(  c #7B6635",
")  c #5D5543",
"_  c #5D5649",
"`  c #5F5F5D",
"'  c #625644",
"]  c #635A45",
"[  c #645B4B",
"{  c #6A5A45",
"}  c #745C43",
"|  c #685E51",
" . c #6A614A",
".. c #7B6645",
"X. c #756A4B",
"o. c #7A6C4C",
"O. c #786547",
"+. c #6B6457",
"@. c #7C6C52",
"#. c #7C6E5C",
"$. c #746A58",
"%. c #7E7254",
"&. c #7C715C",
"*. c #6B6B6B",
"=. c #686766",
"-. c #736D63",
";. c #766E68",
":. c #767165",
">. c #7B7364",
",. c #7E7966",
"<. c #74726D",
"1. c #7B756A",
"2. c #7D796D",
"3. c #6E6E72",
"4. c #716F72",
"5. c #747473",
"6. c #797673",
"7. c #767975",
"8. c #7C7974",
"9. c #76767A",
"0. c #79777B",
"q. c #7D7D7C",
"w. c #74797B",
"e. c #6F716F",
"r. c #805E2E",
"t. c #81622D",
"y. c #836A3C",
"u. c #8B6C3C",
"i. c #836336",
"p. c #89723C",
"a. c #846D43",
"s. c #8B6E42",
"d. c #826C4B",
"f. c #826543",
"g. c #8C7244",
"h. c #8C744A",
"j. c #8E794B",
"k. c #857247",
"l. c #92754B",
"z. c #93794C",
"x. c #9A7A4E",
"c. c #967545",
"v. c #876F51",
"b. c #857452",
"n. c #8C7C55",
"m. c #83745C",
"M. c #8C7C5C",
"N. c #87785A",
"B. c #937C53",
"V. c #9B7E53",
"C. c #927D5A",
"Z. c #967751",
"A. c #827664",
"S. c #8B7D64",
"D. c #837B6C",
"F. c #877A67",
"G. c #837C73",
"H. c #817E7B",
"J. c #8E7E71",
"K. c #957F68",
"L. c #7E807D",
"P. c #8E805B",
"I. c #958155",
"U. c #9C8355",
"Y. c #93825B",
"T. c #9B855C",
"R. c #9E895E",
"E. c #97885F",
"W. c #A28455",
"Q. c #A48B5D",
"!. c #A6895C",
"~. c #AE955F",
"^. c #8A826A",
"/. c #958363",
"(. c #998464",
"). c #9D8D64",
"_. c #92846B",
"`. c #9C8B6B",
"'. c #97896B",
"]. c #868174",
"[. c #8B8374",
"{. c #83817C",
"}. c #8B857C",
"|. c #8F887B",
" X c #928673",
".X c #948A73",
"XX c #928B7C",
"oX c #998B76",
"OX c #9D927B",
"+X c #9A9077",
"@X c #A38C63",
"#X c #AA8E61",
"$X c #A28E6C",
"%X c #A58B68",
"&X c #AB9264",
"*X c #A3936B",
"=X c #AC946B",
"-X c #AB996B",
";X c #B1976B",
":X c #A49475",
">X c #A2947B",
",X c #AC9574",
"<X c #AF966F",
"1X c #7D7E81",
"2X c #817F81",
"3X c #887F82",
"4X c #7E8282",
"5X c #828282",
"6X c #8A8682",
"7X c #8C8A84",
"8X c #85868A",
"9X c #8C8C8B",
"0X c #868886",
"qX c #928C83",
"wX c #928E8B",
"eX c #998F85",
"rX c #969082",
"tX c #9B9184",
"yX c #93918D",
"uX c #99948C",
"iX c #9E9986",
"pX c #8D8D91",
"aX c #918F90",
"sX c #939293",
"dX c #989696",
"fX c #A79A85",
"gX c #AB9D89",
"hX c #B8A994",
"jX c #BCB29B",
"kX c #ACA48A",
"lX c #CDBD9C",
"zX c #C9BFB1",
"xX c #C6BCAF",
"cX c #D9D1BC",
"vX c #D2C7B2",
"bX c #E2D9BC",
"nX c #E3DCC2",
/* pixels */
"H.H.5X7.5.<.fXo.n.B U -  X<.5.5.5Xq.5X9XsX9X8XyX0X*.` <.8XsX9X0Xq.5X0.3.0.1.'.*Xn.p l XX5.9.5.5Xq.q.",
"3XH.0.7.<.:.kXb.h.V p : F.:.<.<.q.q.{.wXyXyXyXyX6X<.=.<.6XwX6X{.{.q.0.*.6.,.N.I.n.p t OX<.9.9.q.5X5X",
"3Xq.q.5.1.>.:Xa.!.b M > >X>.1.2.G.G.[.XXqXXXXXXX[.-.+.:.XXiXXX].G.|.2.1.D.m.*X<Xj.N d .X>.;.8.8.q.q.",
"q.q.q.dXXX>XT.U.x.e < X P oXA.F.F.^._..X.X.X X_.+X+XOXOXOX+XOXOX>X_.>X.X:X$X..a.~ e 8 O.fXgXhXG.9.5.",
"q.{.].].#.M.x.!.#XW & $ K M.O.o.d.b.M.C././.(.Y.(.).$X$X*X*X$X$X:X`.`.P.C.B.h.x.D Z 8 ^ N.N.J.D.<.5.",
"q.8.2.iXoX=XW.c.x.e < $ n b.b.Y.h.j.B.T.T.R.R.R.R.@X@X@X@X@X@X@X$X).E.T.I.B.Z.l.i.A Z / (._.oX>.6.5.",
"5Xq.2.+.{ R l.c.W.D w , p I I I R ~ / / / / / / / / / / / / / / U R ^ / Y Y R E A r e V O.X.$.1.q.q.",
"5Xq.6.[ z d Y c.u.Z b 7 d } J d J B B B n n B B n n n n n n n d p u d d 0 i H m A A m n l l z G.H.5X",
"q.q.6._ z z ..z.g.Y B d t ' 3 k y y y y y y k h 2 y k h y y y 2 3 = y - t G 4 } H m G L ' h +.G.{.5X",
"H.q.q.8.G.D.'.B B : % - $.D.;.;.-.-.>.1.D.G.].].].}.|.}.G.2.G.G.D.D.G.D.A.fXf G m u 3 A.D.1.8.{.q.q.",
"H.q.2X9XwXqX_.o U 7 o + ,.}.H.8.=.*.5.0.5X0XwXsXyX0XH.{.5X5Xq.5.<.<.<.5.1.vXk a 4 :   [.1.8.8.L.{.5X",
"q.q.0X8XsXqXF.t u ; * + >.}.q.q.=.*.5.9.1X8X9XpXsX8X0.0.5X5X0.5.<.5.5.e.;.xX3 1 1 =   G.<.5.7.7.5X5X",
"{.q.8X8XsXuXXX{ I p ; 1 2.H.0.1X3.5.5.5.0.q.2X5X0Xq.9.0.0.5.0.5X5Xq.1X5X].zXl O.P d @ ].{.0X5X5.5.5.",
"{.L.4X8XsXuXgXO.`.R u l [.<.5.5.5.5.5.5.5.5.5.5.0.5.5.9.9.5.q.8XsXsX9XyXrXcXb.).d.K y [.wX9X0X5.*.*.",
"q.L.4X9X9XrXkXo.v.m > a [.1.7.5.5.5.5.5.5.5.5.5.5.*.5.0.5.*.5.8XsXsXyXrXrXcXn.T.k.i a F.uXsX0X*.*.*.",
"7.q.4X0X}.[.:XR f.E m i @.A.>.1.>.>.1.1.1.1.1.1.G.1.1.D.1.-.>.].qX}.XXXX.XlXj.U.l.8 n m. X|.H.=.5.5.",
"e.7.1.XXN.C.Y 8 e M T , K =Xb.`.(./.(.(.(.C.d.^ ..d.d.O...d...J d 6 N.T.R.U.T z.y.b M m K.#.tX}.{.5X",
"<.<.1.[./.R.y.r m M A 8 ~ =XQ.#X&X#X#X&X&XQ.V.h.h.z.l.g.g.z.g.~ 9 7 j.&X!.&Xg.x.t.< e R gX>XOX1.{.5X",
"q.8.8.D.N.k.a.C T M 8 8 Y j.I.h.h.g.g.g.g.g.a.i.( i.y.~ ~ i.~ S N p k.h.y.z.U.u.u.Z Y / ..O.m.>.8.0.",
"9X9XuX+.a d k.;X<Xf.m R n u d ; 9 7 0 , 0 9 9 9 p b b p b N p 7 7 7 7 ; % Y ;X&Xs.8 0 K G L ' #.*.*.",
"sXdXwX+.y f a.=X%XE 4 { f 1 a t d f u u f g g x x x x x x J x s - s l d d ..@XI.W.Y n P L ) _ :.=.=.",
"8X5X6X=._ %.P.*X,X} k z ' '  . .v v v v v c ) ) c c ) ) ) c v v [ _ z j z X.C.<X/ K u l k 5 [ -.<.5.",
"5X{.5X{.].[.N.; i : 3 5 D.D.1.<.7.6.6.8.8.8.8.H.6.6.8.6.<.;.<.6.6.G.6.<.>.jXd , V % + #.}.H.8.7.q.q.",
"5Xq.5Xq.H.G..X; i 4 2 . G.<.<.5.5.3.3.5.5.4.4.5.5.5.9.5.*.=.*.5.0.5.9.5.>.vX6 b 0 %   D.H.q.5X5X5X5X",
"q.L.4X5X5XH.^.u G * 3 # ;.1.7.w.5.5.5.5.5.5.5.5.9.5.5.5.<.*.*.5.0.0.0.0.1.jXu N 7 X + D.H.0X5X0.5X5X",
"q.{.5X8X9X7XkXM.:X@.{ z XX6X8X4X<.<.9.q.q.H.q.q.q.8.q.5X5X{.0X9XpX9X8X0XqXnXn.-Xj.N I ,.7X8XpXpX9X9X",
"7.L.8X8XsXeXjX/.$X} l k XXrXsX8X*.<.0.q.5X5X5Xq.0Xq.q.0XsXsXdXdX9XsXdXrXrXbXn.).a.p a >.eXwXsXaXsXsX",
"{.7.8X0X6XXXhXY.$X..K P .XtX|.8.<.<.8.8.q.H.q.7.{.7.5.H.7XyXwX7XwXwX7X}.+XvX).&XI.b G #.eXwXaXsX9X9X",
"7.L.q.H.[.N.v.k.C.K > > I S.A.F.>.,.,.,.,.D.^.D.D.&.$.>.D.[.^.D.^.[.[.F.M.$XB.&Xg.7 i m.oXeXwX0X0X0X",
"5X{.q.tXF.*XB.Z.Z.Y e m R %X/.`.'.'.S.%.o.X.o.X.@.X.X.X.@.%.%.%.^.^.M.M.T.!.@X;Xl.e b K S.$.qX8.{.4X",
"L.{.8.XXb.@Xl.u.s.A w V R %X@X=X@XQ.U.j.h.j.z.z.z.j.h.h.h.j.z.I.Y.).R.U.!.W.!.W.s.& e E `.'..XD.q.q.",
"L.{.8.>.I ( g.x.V.T , b M / E R ~ Q S C C Z D D S S Z Z S S D ~ ! ! Q S ~ u.W.!.c.r e V ^ I X.].{.5X",
"q.0XG.+.a i s.#XV.y.8 K K ; 4 i 7 8 8 7 8 9 b b b b b b b b b p u I 9 N N S &XV.s.e b b J l ] }.{.5X",
"5XH.{._ 3 P d.V.!.f.> ; l a a 2 t t u a s s s s l s s l l l l l c v t - p U T.=Xk.V Y i a 2 | 8.H.q.",
"5.5.q.8.G. XK.R d.b > 1 #.>.1.G.}.}.}.}.}.}.G.8.G.G.G.G.].G.].{.}.}.}.[. XgXL P G : 1 #. X7X5X5.5.5.",
"*.*.=.5.{.}.oXd K $ 1 + G.<.5.q.5XH.q.q.2X2Xq.0.8X9XpXaXsXsXsXaXq.5Xq.H.G.zX2 a 4 +   G.qXdX5X3.*.*.",
"*.=.3.4.7.].[.1 P % 1   1.<.5.q.q.q.q.q.2X5X5X{.5X9XsXyXaXsXwX0X1X4X5X{.8.zX3 L s = O 1.9XdX8X*.*.*.",
"5.4.w.w.0.G.tX{ ..p J = [.7.5.5.q.q.0.7.7.0.q.q.0.8XsX9X9XsX9X0.1Xw.5.7.G.vXz { x - + 1.{.0X4Xw.5.5.",
"5X5Xq.q.5.:.hX`.$X^ P a  X:.<.0.<.5.5.5.5.5.5.5.7.9XsX9X9XdX9Xq.5.5.<.<.:.cXF.:X .* + >.8.0.7.q.L.q.",
"q.{.q.7.>.&.hX(.<X^ B a >X>.1.<.<.5.6.5.<.<.<.<.8.7XyX9XwXdXrXH.5.<.1.1.>.vX/.`.b.* : #.-.-.5.q.5X5X",
"q.q.H.}.D.S.,Xf.V.A R d S.A.F.D.[.G.D.1.1.1.>.>.1.[.XX}.[.}.[.G.-.-.>.&.N.lXC.B./ : X m.F.D.].7X5X0X",
"q.q.7XtX#.N.K A D w V n P @.} m._._._._.^.S.m.@.@.S._._.^._.S.m. . .%.M.Y.B.y.V.~ V 8 K N.$.eXqX9X9X",
"q.{.}.tXoX,XY & & w C Y ..v.C.(.=X=X=X=X=X@XI.j.B.@X=X=X=X=X@XT.N.P.Y.-XQ.p.p.u.t.w w ~ %X:XOXqXyXsX",
"q.H.}.D.X.C.u.r.F t.r 7 V ..d.R a.s.g.h.h.s.i.D D y.g.g.g.g.g.y.b.o.U a.( ( &Xc.u.w q S ..N.A.XX7X8X",
"{.H.}._ a i y.c.u.t.w 8 i i d u i b b V V V b i 8 b n b n V V B x J u p 0 S &XU.z.r 8 K d l ) ].{.5X",
"H.{.8.[ v d f.u.u.r 8 V n 1 1 s a a d J P J l a d d d d d l G J t c l a ; I R.=XB.V n I { k _ ].q.q.",
"8.q.8.8._  ...j.W.Z b > x [ j ) ' ] [ [ | [ ] ) ] ] ] [ [ ] [ [ +.[ _ z { o.M.,X..I d L | j 1.{.q.q.",
"9.5.5.5.1.D._.i Y , 7 X F.$.-.<.wXqX7X7X7X7X}.].G.8.G.].{.G.H.].].G.G.2.1.A.1 o u * * A.G.H.q.7.L.4X",
"5.5.5.5.5.1. Xu J u : * F.+.*.7.yXyXyXyX9X0X5Xq.H.H.H.H.{.{.H.H.{.q.7.5.<.<.O 3 * = X ,.G.{.L.q.4X4X",
"5.5.5.5.5.1.[.a J u : * D.+.*.0.sXsXsXsX9X8X5Xq.q.q.q.q.q.{.q.q.5Xq.0.5.5.<.O 3 @ - X >.q.4X4Xq.4X4X"
};
