/* XPM */
static char *d42c106593994446a60451ae40d58293wP2jbdQMAdNwYiUW[] = {
/* columns rows colors chars-per-pixel */
"64 64 126 2 ",
"   c #170F0D",
".  c #190F0D",
"X  c #1B110E",
"o  c #1E1311",
"O  c #1F1816",
"+  c #221514",
"@  c #241916",
"#  c #22161A",
"$  c #251B19",
"%  c #291D1C",
"&  c #27201D",
"*  c #2A211F",
"=  c #2E2322",
"-  c #2F2926",
";  c #312524",
":  c #332826",
">  c #342C2A",
",  c #382928",
"<  c #36312E",
"1  c #39322F",
"2  c #3C3532",
"3  c #3E3935",
"4  c #3E3638",
"5  c #3F3A38",
"6  c #403736",
"7  c #403937",
"8  c #413B39",
"9  c #47413E",
"0  c #49423F",
"q  c #474340",
"w  c #4C4543",
"e  c #4D4945",
"r  c #554E4C",
"t  c #56524E",
"y  c #565452",
"u  c #5C5654",
"i  c #5D5956",
"p  c #5F5C5B",
"a  c #615956",
"s  c #625D5C",
"d  c #66605F",
"f  c #68605D",
"g  c #656160",
"h  c #6B6664",
"j  c #6D6966",
"k  c #6E6A69",
"l  c #736D6B",
"z  c #73706E",
"x  c #757270",
"c  c #787471",
"v  c #7B7875",
"b  c #7D7C7B",
"n  c #817E7D",
"m  c #82807E",
"M  c #858584",
"N  c #898685",
"B  c #878887",
"V  c #898987",
"C  c #868788",
"Z  c #888788",
"A  c #898A89",
"S  c #8D8B89",
"D  c #8A8C8B",
"F  c #8D8C8A",
"G  c #898A8C",
"H  c #8A8B8D",
"J  c gray55",
"K  c #8C8C8D",
"L  c #8C8D8F",
"P  c gray56",
"I  c #908F8E",
"U  c #8E908F",
"Y  c #91908E",
"T  c #93908F",
"R  c #8F8F91",
"E  c #8F9091",
"W  c #929292",
"Q  c #999594",
"!  c #989897",
"~  c gray60",
"^  c #9B9B9B",
"/  c #9B9C9D",
"(  c #A09F9F",
")  c #9E9FA0",
"_  c #9FA0A1",
"`  c gray64",
"'  c #A4A4A4",
"]  c #A7A6A6",
"[  c #A6A9A9",
"{  c #A9A9A9",
"}  c #ACACAC",
"|  c #B0B0AF",
" . c gray69",
".. c #B8B7B7",
"X. c #B9B9B7",
"o. c #BBBBBB",
"O. c gray",
"+. c #C0BEBF",
"@. c #C0C0BF",
"#. c #BFC0C0",
"$. c #C1C1C1",
"%. c gray77",
"&. c #C7C7C7",
"*. c #C6C8C7",
"=. c #C9C7C8",
"-. c #C8C9C8",
";. c #CBCBCB",
":. c #CFD0D0",
">. c LightGray",
",. c #DADADA",
"<. c gainsboro",
"1. c #DFDFDF",
"2. c #E2E2E2",
"3. c #E4E5E5",
"4. c #E5E5E5",
"5. c #E8E6E7",
"6. c #E6E8E7",
"7. c #E7E9E8",
"8. c gray91",
"9. c #ECECEC",
"0. c #F0EDEE",
"q. c #EFF1F0",
"w. c #F2F2F2",
"e. c #F9F7F6",
"r. c #FBF8F5",
"t. c #FAF9F9",
/* pixels */
"  X o . X X X X X . X X X X X X X X X X X X X X . X X X X X . X o X X . X X X . . . X X X . X . X $ % % @ o . . o + $ % = * > u ",
"+ $ $ @ $ $ @ @ @ @ @ @ @ @ @ @ @ @ @ @ @ @ @ @ @ @ @ @ @ + @ $ o @ @ @ @ @ @ @ @ @ @ @ @ @ @ @ @ ; ; : = * % * ; : : = : : 1 s ",
"+ $ + $ $ @ $ @ @ @ @ @ @ @ @ @ @ @ @ @ @ @ @ @ @ @ @ @ @ @ + @ @ @ $ @ @ @ @ @ @ @ @ @ @ @ @ @ @ = : : : = = : , > - = ; ; 2 g ",
"o @ $ w u u u u u u u u u u u u u u u u u u u u u u u u y > @ @ $ t i u u u u u u u u u u u u u u a s d d s s g g d s 1 * * w ~ ",
"o @ * j S A A A A A A A A A A A A A A A A Z A A Z A A A n 7 @ + $ n V Z Z A A Z M A A Z C Z Z M M M H L R R E R L A m 3 @ @ r &.",
"@ $ & k V M A A A A A A A A A A A A A A A A A A A A A L m 8 + + * n A C A A A A A A A A A A A A A C A H L L L L H C b 1 + @ r ;.",
"X @ $ l L A L I I Y F N V V F I I Y A V V A Y I I F N A m 5 @ + $ n D A A L L Y F M N V S L L F N M M V F F L M M C b 3 @ % r &.",
"X $ * j I M / 2.1.2.$.A A A &.4.2.2.~ M M ' 1.2.9.O.M L M 8 @ + $ n L A { 1.1.9. .M A L &.2.4.>.M A A ' ,.1.2.` M C b 3 % = e ' ",
"X $ * j I M / 2.1.2.$.A A A &.4.2.2.~ M M ' 1.2.9.O.M L M 8 @ + $ n L A { 1.1.9. .M A L &.2.4.>.M A A ' ,.1.2.` M C b 3 % = e ' ",
"X @ * j L M ` 9.w.w.;.A M A ;.w.9.9.~ M M { 9.q.e.&.M A M 8 @ + $ n L A } 9.9.w...M M W >.w.w.1.M M M { 9.9.w.{ M C M 9 * = w ( ",
"o @ * j L M ` 9.9.9.&.A A A ;.w.9.9.~ M A { 9.9.w.$.M A M 8 @ + $ n L C { 4.9.w...M A L ;.9.9.,.M A M { 4.9.9.{ M R N 9 ; ; 9 ~ ",
"+ @ * k I M _ 9.9.w.;.A A A ;.w.9.9.~ M M { 9.9.w.&.M L M 8 @ + $ n H C { 9.9.w...M A W >.w.w.1.M A M { 8.9.9.{ M L M 9 * % 0 | ",
"+ @ * k I M _ 9.9.w.;.A A L ;.w.9.9.~ M A { 4.9.w.&.M A n 8 @ + $ n H A } 4.9.9...M W ~ >.9.w.1.A A A } 4.9.9.{ M H M 9 % + w &.",
"X @ * j L M ` 9.9.w.;.A A A ;.w.9.9.~ M M { 9.9.w.&.M L M 8 @ + $ n A C { 4.9.w...A W ~ >.w.w.2.L H M { 4.9.9.{ M C m 2 + X 0 &.",
"o $ * j S M ` 9.9.w.;.A A A ;.w.9.9.~ M M ' 4.9.w.&.M A M 8 @ + $ n A C { 4.9.w...A W W >.9.w.2.L L A { 4.9.w.{ M M n 2 + + w O.",
"+ $ * j I M ` 9.9.w.;.A A A ;.w.9.9.~ M M ' 9.9.w.&.M A M 8 @ + $ n A M { 4.9.w.O.A L L ;.9.w.2.L L M { 4.9.9.{ M A b 2 + o 8 ' ",
"+ $ * j I M ` 9.9.w.;.A A D ;.w.9.9.^ M M { 4.9.w.&.M A M 8 + + $ n A M { 4.9.w.O.M A L >.w.w.2.M A M { 4.9.9.{ M A b 2 + + 4 ! ",
"+ $ * j I M ` 9.9.w.;.A A D ;.w.9.9.^ M M ' 4.9.w.&.M A M 5 + + $ n A M { 2.9.w.O.A L W >.w.w.,.M M A  .9.9.9.{ M C n 2 + + 8 ~ ",
"+ $ * j L M ` 9.9.w.;.A A D ;.w.9.9.~ M Z ' 4.9.w.&.M A m 8 $ @ $ b A C { 4.9.w.O.A L ~ >.9.9.>.M A L  .9.9.9.} M A m 3 + o 7 ~ ",
"+ $ * j I M ` 9.9.w.;.A A D ;.w.9.9.~ M Z ' 4.9.w.&.M A n 8 @ + $ b A M ' 2.4.w.O.A W ~ >.9.9.>.M L W  .9.9.9.{ M A n 2 + + 7 ~ ",
"+ $ * j I M ` 9.9.w.;.A A D ;.w.9.9.~ M M ' 4.9.w.&.M A n 5 @ @ % n L A } 4.8.w...A W ~ >.9.w.1.L W W  .9.9.9.{ M A b 2 + + 3 ~ ",
"+ @ * j F M ` 9.9.w.;.A A D ;.w.9.9.~ M M ' 4.9.w.;.A L n 3 @ % : N W R ..9.9.w...A W ~ >.w.w.2.L W I  .9.9.9.{ M A n 2 + o 7 ~ ",
"+ @ * j S M _ 9.9.w.;.A A D ;.w.9.9.~ M M ' 4.9.w.;.A L M 8 % * : N W R  .9.9.w...M L ~ >.w.w.2.L L L } 4.9.w.{ M B m 3 + + 7 ~ ",
"+ @ * j S M _ 9.9.w.;.A A D ;.w.9.9.~ M M ' 4.9.w.;.A W N 9 = ; > N W L  .9.9.w.O.M M W >.w.w.2.A A A { 4.9.9.{ M A b 2 + o 3 ~ ",
"+ @ * j F M ` 9.9.w.;.A A D ;.w.9.9.~ M M ' 4.9.w.;.A W N 9 = ; > N W L  .9.9.w.O.M M W >.w.w.2.A A A } 5.9.9.{ M A n 2 + o 3 ~ ",
"+ @ * j F M ` 9.9.w.;.A B D ;.q.9.9.~ M M ' 4.9.w.*.A W A w : : : M A C } 9.9.w.O.M M W ;.9.9.1.M M M } 9.9.9.{ M A n 2 + o 8 ~ ",
"+ @ * j F M ` 9.9.w.;.A A D ;.q.9.9.~ M M ' 4.9.q.&.A W S e : ; = n M M ' 4.9.w.O.M A L ;.9.9.,.M M N } 9.9.9.{ M A m 2 + + 3 W ",
"+ @ * j F M ` 9.9.w.;.A A D ;.w.9.9.~ M M ' 4.9.q.$.M W S e : ; = b M M { 2.9.w.O.M A W ;.9.9.,.M A A } 9.9.w.{ M A m 2 + + 2 N ",
"+ @ * j F M ` 9.9.w.;.A A D ;.9.9.4.~ M M ' 2.4.q.#.b A N w : : : n A M ' 1.9.w.O.A A W ;.9.9.1.M A A } 9.9.w.} M A M 2 + + 2 M ",
"+ @ * j L M _ 9.9.9.&.A A D ;.9.9.4.~ M M [ 9.e.e.&.V L N e > = > N Y S } 9.r.t.+.A C W ;.9.9.1.M A A } 9.w.w.} M A m 2 + + 2 V ",
"+ @ * j L M ` 9.9.w.;.A B A ;.9.9.4.~ M A v s u a r 5 4 6 : = = = 0 w 8 e u s h n W A W >.9.w.1.M A A } 9.9.w.} M C m 2 + + , p ",
"o @ * j L M ` 9.9.w.;.A M A ;.w.9.4.~ M L h % @ % $ % % + @ $ % : * = * $ @ % @ i W M W >.9.w.1.A A A } 9.9.w.} M H b 2 + + = y ",
"+ @ * j L M ` 9.9.w.;.A M A ;.9.9.4.~ M L k > : , ; ; : = % $ + : ; ; : ; ; , % s L M W >.9.w.1.A A A } 9.9.w.} M A n 2 + @ : y ",
"+ @ * j L M ` 9.9.9.&.M M A ;.9.9.4.~ M W z < : ; : = ; : : * + $ = : ; : ; : $ i F M W >.9.w.1.M A A } 9.9.w.} M A m 2 + + > j ",
"+ $ * j L M _ 9.9.9.;.A B A ;.9.9.4.~ M W z > = % * = ; ; ; : * o % ; ; : ; = o y L M W :.9.w.1.M A A } 9.9.w.} M H m 2 + + 6 ! ",
"+ $ = j L M _ 9.9.9.;.A A A ;.9.9.4.~ A W x > @ % % + : > = : : + $ $ = = * $ o i L M W >.9.w.1.A A A } 9.q.w.} M C m 2 + + 6 ~ ",
"+ $ = j S M ` 9.9.w.;.L L D ;.9.9.2.~ A W z > @ * $ O $ = = : ; % $ @ $ $ $ $ O u I M W :.9.w.1.A A A } 9.9.w.} M A m 4 + + 7 ~ ",
"o @ * j S M _ 9.9.w.;.W L L ;.9.4.2.~ L W W Q Y W v y i i 7 ; = = t i u k Y Q Q L M B W >.9.w.1.A A A } 9.9.w.} M A n 2 + + 8  .",
"X @ * j L M _ 9.9.9.;.W E E ;.9.4.2.~ L L } 9.9.9.@.M V M w : : = b S M } 9.0.w...M B W >.w.w.1.A A A } 9.9.w.} M A m 2 + + w &.",
"X @ * j L M ) 7.7.9.;.L E W ;.9.9.2.W A L } 9.9.9.O.b M m w = : % b A M } 4.9.w...M D W >.w.w.1.A A A } 9.9.w.} M H m 2 @ o 0 &.",
"X @ * j L M ) 7.7.9.;.L E W ;.9.9.2.W A L } 9.9.9.O.b M m w = : % b A M } 4.9.w...M D W >.w.w.1.A A A } 9.9.w.} M H m 2 @ o 0 &.",
"o @ * j L M ) 9.9.9.&.A L W :.w.9.4.W M L } 9.w.e.$.M L A e : : * v B M } 4.9.q...M M W >.w.w.1.A A A } 9.9.w.} M A m 2 + X 0 $.",
"+ @ * j L M _ 9.9.9.&.A L W ;.w.9.9.~ M A } 9.9.e.;.L L V w = % $ b A A } 4.9.w.X.M A W >.w.w.1.A A A } 9.9.w.} M B n 2 + + 3 ~ ",
"+ $ * j S M ) 4.4.9.&.L E W :.w.9.9.( M M ' 9.9.w.=.L W S q % $ $ n A C } 5.9.w.X.M A W >.w.w.1.A A A } 9.9.w.} M B m 2 + o 3 ~ ",
"+ @ % j S M ) 7.4.9.;.W E E ;.w.9.9.` A M ' 4.9.w.;.A L M 8 @ @ @ n A C } 9.9.w...M A W >.w.w.1.A A A } 9.9.w.} M A n 2 + + 3 ~ ",
"+ @ * j S M ) 7.7.9.;.L L D &.9.9.9.` L L ' 2.9.9.$.M A M 8 + + $ n A A } 9.9.w...M A W >.w.w.1.A A A } 9.9.w.} M A b 2 + + 3 ~ ",
"+ $ * j S M ) 6.6.9.;.L L A &.9.4.9.` L L { 4.4.9.$.M A m 8 + @ $ n A A } 9.9.w...M A W >.w.w.1.A A A } 9.9.w.} M H n 2 + o 4 ~ ",
"o @ * j S M ~ 6.6.w.;.L D B &.4.2.4.~ L L } 9.9.9.$.M A m 8 @ @ $ n A C } 9.9.w...M A W >.w.w.1.A A A } 9.9.w.} M A n 2 + o 4 ~ ",
"+ @ % j S M ~ 6.7.w.;.L L A &.9.4.2.~ L L } 9.9.9.$.M A m 8 + @ $ n A A } 9.9.w...M A W >.w.w.1.A A A } 9.9.w.} M A n 2 + + 3 ~ ",
"@ $ % j S M ~ 4.6.9.;.W L L ;.9.4.2.~ A L } 9.9.w.$.M A M 8 @ @ $ n S A } 9.9.w...M A W >.w.w.1.A A A } 9.9.w.} M A n 2 + + 2 S ",
"* % = j S M ~ 4.6.9.;.W L W ;.9.4.4.~ L L } 4.9.w.$.M A M 8 @ @ $ n A A } 9.9.w...M A W >.9.w.2.M A A } 9.w.w.} M A m 2 + + < M ",
"; = > z L M ~ 4.4.9.;.L L W >.9.9.9.` W L { 4.9.w.$.M A n 8 + @ $ n H A } 9.9.w...M A W >.w.w.1.A A A } 9.w.w.} M V m 2 + + 1 M ",
"; : > c W V ` 4.4.9.&.L L W ;.9.w.4.` L A ' 4.9.w.&.M A M 8 + @ $ n A M { 9.9.e...M L W >.w.w.1.A A A } 9.9.w.} A A m 2 + + 2 Y ",
"= = > x W A { 9.8.9.$.M L W >.w.9.9.` A M ' 4.9.0.$.M A M 8 @ @ $ n A A } 9.q.w...M A W >.w.w.2.M A A } 9.w.w.} M H m 2 + o 7 ~ ",
"% $ > z W F ' 9.9.w.;.M A A ;.9.9.9.~ M M ' 4.9.w.&.M A M 8 + @ $ n H A } 9.w.w...M A W >.w.w.2.M L A  .9.9.w.} M H m 2 + o 8 ~ ",
"= % = j L L ` 2.4.4.;.L A A $.2.2.,.~ M M ' 1.2.9.o.M L n 8 + @ $ n L A { 1.4.9. .M A W ;.4.4.>.A M M } 2.4.4.' M A M 2 + o 3 ~ ",
"= % = j L L ` 2.4.4.&.L A A $.2.2.,.~ M M ' 1.2.9.O.M L n 8 + @ $ n L A { 1.4.9. .M A W ;.4.5.>.A M Z } 2.4.4.' M A M 4 + o 3 ~ ",
": ; % j A A W ` ` ` ~ L L L ~ ~ ~ W A M M L ~ ~ ~ W M A n 8 @ @ $ n A A L ~ ~ ~ W A A L W ~ ~ ! A A A W ~ ~ ~ W H A M 2 + + 8 ~ ",
"= : : j L L E L W W W W W W U A M B H B C B A A H A A H m 8 O + % m A C A A A A A B B A A C D A C H H A B A A B B H b 3 @ o 5 ~ ",
": = > l W W W L F A A W W L S A M A A A A A A A A A A L n 3 $ @ $ n L L V V V V V V V A A A A A Z S A A A A A A A A M 1 X o 3 ` ",
"; : > a l l l j h g h j j j h h h h h h h h h h h h h j d 2 @ + % f h h h h h h h h h h h h h h h h h h h j j h h j d > + + 1 b ",
"= : = : > : * $ $ $ $ @ $ $ $ $ $ $ $ @ @ @ $ $ $ $ $ $ $ $ @ @ + $ $ $ $ $ $ $ $ $ $ @ @ $ $ $ $ @ $ $ $ $ $ $ $ $ $ @ @ + = 5 ",
"% = : = = = $ @ + + @ + + @ @ + @ $ + @ @ @ @ + @ @ @ @ @ @ @ @ @ $ @ @ @ @ @ @ @ @ + + + @ $ @ @ @ @ @ @ @ + + @ $ + + @ @ = 2 ",
"+ $ : = = $ O + o o + @ + + @ o + # + @ @ + + + + + + + + + + @ + @ + + + + + + + + + o + + @ @ o # + + + + o o o + + + + + $ 4 "
};
