/* XPM */
static char *xpm_[] = {
/* columns rows colors chars-per-pixel */
"50 50 194 2 ",
"   c #3A2D1D",
".  c #432E19",
"X  c #413117",
"o  c #4C351C",
"O  c #543A1D",
"+  c #5A3C1F",
"@  c #54361A",
"#  c #473624",
"$  c #4E3B21",
"%  c #4C3E2B",
"&  c #553C23",
"*  c #5B3D24",
"=  c #543F2B",
"-  c #5B3F29",
";  c #58421B",
":  c #4E412C",
">  c #554125",
",  c #5C4225",
"<  c #55422A",
"1  c #5C422B",
"2  c #5E4A2B",
"3  c #5D4924",
"4  c #4F4233",
"5  c #524434",
"6  c #5B4531",
"7  c #564931",
"8  c #5D4B33",
"9  c #5C4D3C",
"0  c #5F5236",
"q  c #624326",
"w  c #614E25",
"e  c #62452C",
"r  c #68462C",
"t  c #644A2D",
"y  c #6A4B2E",
"u  c #69512C",
"i  c #634631",
"p  c #654B33",
"a  c #6B4D34",
"s  c #644E3A",
"d  c #6B4E39",
"f  c #714E33",
"g  c #714F3C",
"h  c #645336",
"j  c #6D5135",
"k  c #64523C",
"l  c #6D523A",
"z  c #6E5A3C",
"x  c #725236",
"c  c #73543B",
"v  c #79573B",
"b  c #75593D",
"n  c #7A5A3E",
"m  c #765D34",
"M  c #75613C",
"N  c #7B623B",
"B  c #5D5344",
"V  c #5F5549",
"C  c #6A4F41",
"Z  c #655344",
"A  c #6A5542",
"S  c #645846",
"D  c #6E5B43",
"F  c #635549",
"G  c #6C5B4B",
"H  c #745641",
"J  c #795640",
"K  c #745B43",
"L  c #7B5C42",
"P  c #715549",
"I  c #745E4A",
"U  c #7C5F49",
"Y  c #695D50",
"T  c #756043",
"R  c #7C6244",
"E  c #73624D",
"W  c #7C6249",
"Q  c #7F6F4E",
"!  c #6B6253",
"~  c #756454",
"^  c #7B6652",
"/  c #7B6B53",
"(  c #746B5D",
")  c #7E6F5E",
"_  c #7F735B",
"`  c #6F6F67",
"'  c #6E6D68",
"]  c #766D63",
"[  c #7A6F63",
"{  c #746D6B",
"}  c #786F68",
"|  c #6C716D",
" . c #7A7265",
".. c #7B736B",
"X. c #78786E",
"o. c #77726C",
"O. c #757372",
"+. c #7A7571",
"@. c #7D7A75",
"#. c #797778",
"$. c #737E78",
"%. c #7E7D7B",
"&. c #717C76",
"*. c #805C3F",
"=. c #82623F",
"-. c #815E43",
";. c #866245",
":. c #836145",
">. c #8A6445",
",. c #826A44",
"<. c #8C6A46",
"1. c #85644A",
"2. c #8A664A",
"3. c #876A4D",
"4. c #8D6B4A",
"5. c #8C694D",
"6. c #916C4E",
"7. c #84704F",
"8. c #8C754C",
"9. c #836650",
"0. c #856B54",
"q. c #8D6C52",
"w. c #826E5A",
"e. c #916D52",
"r. c #85755D",
"t. c #8C7B5F",
"y. c #8D7455",
"u. c #957B5A",
"i. c #837464",
"p. c #897764",
"a. c #867C64",
"s. c #8C7B63",
"d. c #83756A",
"f. c #8D7769",
"g. c #857A6D",
"h. c #8B7B6C",
"j. c #987F61",
"k. c #937968",
"l. c #927E63",
"z. c #847D72",
"x. c #8C7E73",
"c. c #837E7A",
"v. c #8B7D7D",
"b. c #77807B",
"n. c #7E817D",
"m. c #8E8066",
"M. c #8F8369",
"N. c #948363",
"B. c #9C8364",
"V. c #94846B",
"C. c #9D8B6B",
"Z. c #9B8369",
"A. c #838176",
"S. c #85817B",
"D. c #8B827B",
"F. c #8F8979",
"G. c #8C8372",
"H. c #958676",
"J. c #9C8676",
"K. c #908875",
"L. c #92857A",
"P. c #958B7D",
"I. c #998879",
"U. c #A18669",
"Y. c #A38C6C",
"T. c #AA8D6F",
"R. c #A28865",
"E. c #A7916C",
"W. c #A9936E",
"Q. c #A88F79",
"!. c #A19072",
"~. c #AC9272",
"^. c #AF957C",
"/. c #7E7F84",
"(. c #7C8180",
"). c #848483",
"_. c #888782",
"`. c #8E8983",
"'. c #848188",
"]. c #8B8A8B",
"[. c #88878B",
"{. c #998783",
"}. c #948B82",
"|. c #998D83",
" X c #958C8B",
".X c #9A9186",
"XX c #97928D",
"oX c #9A928C",
"OX c #978E91",
"+X c #949193",
"@X c #999490",
"#X c #A19282",
"$X c #AB9F85",
"%X c #A8A08D",
/* pixels */
"p y K K D 1 s h q y c o K. .O.&.c.g.D.}..Xk j v J n ;.<.<.x + , r -.L v A d d s a l K K K 1 & , p d ",
"a c U K K > , , + x e o a.) X.` z.A.D..XZ l j b n v ;.6.4.x + > r n J H s d c s k j K R K e * 1 p d ",
"a c L c x + + + R.r y j h r.i.g.g.z.M.L.9 s i c n v *.;.,.c e y p v J H r p d 6 a p a j a i i i p j ",
"c f v J x r r q u.q x x p h l A G h.I.I.6 1 = v -.v v n b c a j b L L c & - 1 & - 1 * e 1 p j l a a ",
"v U a a j y y T.~.y h j d a d U D E t.s.= - 1 v n n n n b j j h j n v c , - * q & * + + + i c a a x ",
"K c d d j t Y.b c l l h - 1 e i s D l Z.p - i a c v v v c v j c x b b c i e * y y y a a i f d p x c ",
"b j a h l K W T l l d p e & i i x a n T a j d g f f f f c c K n c a j p y a v 0.>.2.2.2.2.v k g -.2.",
"n K W K z 8 D D D a d s i i * d a x x n U j d a f y r a a j n L n a j a a c v 5.2.2.5.5.2.c i a :.2.",
"n n L K 1 6 / < 1 t q e i a d c c u x x a a d c v x x x v v v c j j a j p j x :.-.>.2.2.2.c d a -.>.",
"b R P f.d.G.V.h > ; * q H c - c x a y j a g a 9.<.<.>.1.2.1.L n L T b b a j a x v v n v c e - * v n ",
"s C x.{.}.}.K.  > 3 + q e h z h j d l p d l d -.2.2.>.5.2.:.n b n L K b a j j y a r n L L 1 - * x n ",
"F v.v. XXX.Xa.: 3 O b L W l D 7 5 < ^ I ^ s A W 2.1.1.5.2.-.n b L n b K a a d p c f v J v e 1 i x b ",
"c./.[.'.+X@XP.D z 3 & & A E A 7 5 5 i.i.p.A p s c g x n n x a a x c b H d l h r * q a a d v K K L -.",
"%./.(.].+X@X%XE C.K p A J.w.i./ ..} } } [ i.s A d d v J L b c c c L W b d d p = * - p c d L K L v n ",
"$.(.[.].]..X%XQ 3.j l p C C H I } #.O.+...[ Z Z s d v K v c a a f c K l k l s p i 1 i a a v K U K L ",
"&.%.b._.P.h.E.z h y j a s d I K Y d.} } ..) r.s - i p j x a g d p r 1 e i 1 1 p p p c c a d c d j h ",
"| X.X.K.r.m.b m f f r e - e y s l l V.V.C.l.W h - - e j a a j a p q * * - * e g j a d a g p f g a j ",
"O.` X.K.M.D T c f g r - & q s a j L m W.W.R.B.1 * * t x t j g g p * * - - * 1 a j c g d g d f r f x ",
"$.@.b.r.m.D T z d d g d i - a d g H c N 7.8.R ,.,.u m =.=.*.-.J v p p x -.J L J c c e q q L 1.1.:.:.",
"XX}..X! 4 7 < 2 i i i i i d A c d j b j m ; 3 ; w w m <.=.<.e.e.-.y y c q.q.9.n b b 1 * * 1.q.q.2.2.",
"XXoX.X! 4 7 Q : & = i l d d d d a a a y h t h 0 8 h R 1.6.2.e.-.:.f f n 1.5.3.b K m q * q :.1.2.2.<.",
"`.D.D.( 0 ( M.: < = , s j l a j d l a k h k S B S 9 k U -.-.-.-.-.n n *.v n m b U z , & , b :.:.-.*.",
"S.A.A.M.m.M.t.$ 1 K K U l H r e < E E / g.g.+.c...g.d.f.l a r n :.6.6.;.a y j x b m 2 , q v H n v v ",
"V 5 : 7 h m.V.> < & $ A I P = 5 4 [ ( ..{ { { +.} ..d.C s c L n n 5.>.*.y x x n b b 1 & * b J J L L ",
"P 9 - - a a j., s . #   ] ..@.o.+.o.O.X.#.o...} d.Y A 8 s l K n n :.;.-.*.L n b b c p i e H H c v v ",
"C i i i -.-.L u.^.^ G 9 F._._.).O.O.#.%.g.z.x.G E I D < 1 3 b b n n x :.2.2.1.p j a a l p a g a a s ",
"v f c c 5.4.>.c R.R 7 5 }..X@X].{ { @.@.v.x.s k v c h & , 1 O :.n n n n 5.e.1.a a p d d d c d a a a ",
"i g y f :.5.4.y j W k k H.|.|...} ..} x.F k K j L b K e 1 1 c j b c n m U 1.J v c K d p l d i r b x ",
"c :.L L :.:.n n c c O ; D r.r.t._ r.p.i.A K I b a i d a d J 9.* > j y j L L L J c J a c s , - c * * ",
"c :.6.2.n b n n b R j 2 M C.N.E.C.N.l.j l U n c f c d a d H 1.y.t h j j c v n L 1.L a K L K b K 1 q ",
"v 6.1.q.J c b U L c j j M E.B.~.C.E.B.x c n c m y y j y x h u.u.N.3 t j v n v f -.L g c j j l l p p ",
"f v :.b J J U a d h j h y T b M N b 1.1.1.L m M R c b y a m M M T m M e y + x q.q.-.a a c p j l d j ",
"a a y f v -.U - - - i x p & < < 1 O 3.3.:.n v b L c K h e e u 2 3 j l 3 > + x q.0.:.a g r c d i a a ",
"k s x x n L v i - - i c j < % : % = & 0.L v J L K T A 8 8 9 2 2 h R R j a e j R L c e e r g f g -.-.",
"k 1 j p a c p p - i p k s 9 g.g.}.c.L.x.k A a d A ~ g.g.G.g.G.G.T 3.3.b f r g -.J a , q r d c c 2.2.",
"6 & , * * q - p H l s l d 1 w.g.v.c.c.x.k.A s k.!.I.|..XoXoX}.5 I 1.5.v r a J J J c - & 1 a d c 5.4.",
"1 - * * + * 1 p l s d g j 6 5 f.c.%.g.h.A s k p p P G }.|..X}.9 K -.-.-.v -.v f a f a p a l a j n n ",
"1 a r y f r a y j d v f j d i i.g.z.g.9 A l r j p ^ G I I.#XS s J L -.-.5.q.v @ * p L L L l h j a a ",
"c 5.2.2.>.6.;.b j j -.2.e.2.q.^ r.I D h h a q e - a a l K k j j v *.v -.5.e.J * q r U c j p d c d d ",
"c 5.2.>.>.6.;.x a r *.5.2.2.q.q.K K K a j r e @ e a d j b b y y x n n -.-.-.g r i e U J K p i d e p ",
"f >.>.>.>.>.:.x x r -.>.>.-.6.2.H K H l p a i e - d d d H J U * c n b b b n x x f c L L c - 1 q - 1 ",
"f f f f n v b e q + c *.*.*.-.J A 2 6 - i p p i d H g c d c g g c n n n n n x a f c K b h * * - * - ",
"g a f a n m U , - * c n L v J J H Q., 1 & e d c r a a a g d p d j m m c n x x a c c b J v i 1 1 r r ",
"d a j a L J K i 1 1 j v L H H U l d & * - 1 a j l j d p c p h j j j j j x x c n J v a a a p a c q.5.",
"C 6 - e a a H l I K U n L c a h j t j j L W K l c 2 - 2 U W W a y j y y a y c n J c j j c a l v 6.2.",
"p - * e a a d A K K b b n c d d c a u h p h A I A 2 = = 6 j c a j c v x x c v v J c a a a i d j 2.-.",
"d a - * r g l K L K n n n x a j j j h K G G Z B Y F A G H s a a :.2.>.2.2.1.:.-.n J J L K a j a f f ",
"i i r f c g a d l c a x j a a j n 1.9.W J.P.v.c.@.z.z.x.x.A s d :.5.2.2.5.2.-.n n L L n b s j l a a ",
"i d c a d a d d a j j j j j d a L 2.6.2.w.I.v.%.n.%.c.c.c.z.k a 1.1.2.:.2.5.:.v v n b n x j j d d d ",
"1 a d d j d d j p a j j d j a a L 5.5.2.9.I.v.%.n.n.c.S.A.c.A a f c f x v v v y f x b n x j h j i e "
};
