/* XPM */
static char *_100f5c1ecae4910b6b3b6091ace3a24noxrF9KrPLmCZg4I[] = {
/* columns rows colors chars-per-pixel */
"50 50 256 2 ",
"   c black",
".  c #010101",
"X  c #020202",
"o  c gray1",
"O  c #040404",
"+  c gray2",
"@  c #060606",
"#  c #070707",
"$  c gray3",
"%  c #090909",
"&  c gray4",
"*  c #0B0B0B",
"=  c #0C0C0C",
"-  c gray5",
";  c #0E0E0E",
":  c gray6",
">  c #101010",
",  c #111111",
"<  c gray7",
"1  c #131313",
"2  c gray8",
"3  c #151515",
"4  c #161616",
"5  c gray9",
"6  c #181818",
"7  c #191919",
"8  c gray10",
"9  c #1B1B1B",
"0  c gray11",
"q  c #1D1D1D",
"w  c #1E1E1E",
"e  c gray12",
"r  c #202020",
"t  c gray13",
"y  c #222222",
"u  c #232323",
"i  c gray14",
"p  c #252525",
"a  c gray15",
"s  c #272727",
"d  c #282828",
"f  c gray16",
"g  c #2A2A2A",
"h  c gray17",
"j  c #2C2C2C",
"k  c #2D2D2D",
"l  c gray18",
"z  c #2F2F2F",
"x  c gray19",
"c  c #313131",
"v  c #323232",
"b  c gray20",
"n  c #343434",
"m  c #353535",
"M  c gray21",
"N  c #373737",
"B  c gray22",
"V  c #393939",
"C  c #3A3A3A",
"Z  c gray23",
"A  c #3C3C3C",
"S  c gray24",
"D  c #3E3E3E",
"F  c #3F3F3F",
"G  c gray25",
"H  c #414141",
"J  c gray26",
"K  c #434343",
"L  c #444444",
"P  c gray27",
"I  c #464646",
"U  c gray28",
"Y  c #484848",
"T  c #494949",
"R  c gray29",
"E  c #4B4B4B",
"W  c #4C4C4C",
"Q  c gray30",
"!  c #4E4E4E",
"~  c gray31",
"^  c #505050",
"/  c #515151",
"(  c gray32",
")  c #535353",
"_  c gray33",
"`  c #555555",
"'  c #565656",
"]  c gray34",
"[  c #585858",
"{  c gray35",
"}  c #5A5A5A",
"|  c #5B5B5B",
" . c gray36",
".. c #5D5D5D",
"X. c gray37",
"o. c #5F5F5F",
"O. c #606060",
"+. c gray38",
"@. c #626262",
"#. c gray39",
"$. c #646464",
"%. c #656565",
"&. c gray40",
"*. c #676767",
"=. c #686868",
"-. c DimGray",
";. c #6A6A6A",
":. c gray42",
">. c #6C6C6C",
",. c #6D6D6D",
"<. c gray43",
"1. c #6F6F6F",
"2. c gray44",
"3. c #717171",
"4. c #727272",
"5. c gray45",
"6. c #747474",
"7. c gray46",
"8. c #767676",
"9. c #777777",
"0. c gray47",
"q. c #797979",
"w. c gray48",
"e. c #7B7B7B",
"r. c #7C7C7C",
"t. c gray49",
"y. c #7E7E7E",
"u. c gray50",
"i. c #808080",
"p. c #818181",
"a. c gray51",
"s. c #838383",
"d. c #848484",
"f. c gray52",
"g. c #868686",
"h. c gray53",
"j. c #888888",
"k. c #898989",
"l. c gray54",
"z. c #8B8B8B",
"x. c gray55",
"c. c #8D8D8D",
"v. c #8E8E8E",
"b. c gray56",
"n. c #909090",
"m. c gray57",
"M. c #929292",
"N. c #939393",
"B. c gray58",
"V. c #959595",
"C. c gray59",
"Z. c #979797",
"A. c #989898",
"S. c gray60",
"D. c #9A9A9A",
"F. c #9B9B9B",
"G. c gray61",
"H. c #9D9D9D",
"J. c gray62",
"K. c #9F9F9F",
"L. c #A0A0A0",
"P. c gray63",
"I. c #A2A2A2",
"U. c gray64",
"Y. c #A4A4A4",
"T. c #A5A5A5",
"R. c gray65",
"E. c #A7A7A7",
"W. c gray66",
"Q. c #A9A9A9",
"!. c #AAAAAA",
"~. c gray67",
"^. c #ACACAC",
"/. c gray68",
"(. c #AEAEAE",
"). c #AFAFAF",
"_. c gray69",
"`. c #B1B1B1",
"'. c #B2B2B2",
"]. c gray70",
"[. c #B4B4B4",
"{. c gray71",
"}. c #B6B6B6",
"|. c #B7B7B7",
" X c gray72",
".X c #B9B9B9",
"XX c gray73",
"oX c #BBBBBB",
"OX c #BCBCBC",
"+X c gray74",
"@X c gray",
"#X c gray75",
"$X c #C0C0C0",
"%X c #C1C1C1",
"&X c gray76",
"*X c #C3C3C3",
"=X c gray77",
"-X c #C5C5C5",
";X c #C6C6C6",
":X c gray78",
">X c #C8C8C8",
",X c gray79",
"<X c #CACACA",
"1X c #CBCBCB",
"2X c gray80",
"3X c #CDCDCD",
"4X c #CECECE",
"5X c gray81",
"6X c #D0D0D0",
"7X c gray82",
"8X c #D2D2D2",
"9X c LightGray",
"0X c gray83",
"qX c #D5D5D5",
"wX c gray84",
"eX c #D7D7D7",
"rX c #D8D8D8",
"tX c gray85",
"yX c #DADADA",
"uX c gray86",
"iX c gainsboro",
"pX c #DDDDDD",
"aX c gray87",
"sX c #DFDFDF",
"dX c gray88",
"fX c #E1E1E1",
"gX c #E2E2E2",
"hX c gray89",
"jX c #E4E4E4",
"kX c gray90",
"lX c #E6E6E6",
"zX c #E7E7E7",
"xX c gray91",
"cX c #E9E9E9",
"vX c #EAEAEA",
"bX c gray92",
"nX c #ECECEC",
"mX c gray93",
"MX c #EEEEEE",
"NX c #EFEFEF",
"BX c gray94",
"VX c #F1F1F1",
"CX c gray95",
"ZX c #F3F3F3",
"AX c #F4F4F4",
"SX c gray96",
"DX c #F6F6F6",
"FX c gray97",
"GX c #F8F8F8",
"HX c #F9F9F9",
"JX c gray98",
"KX c #FBFBFB",
"LX c gray99",
"PX c #FDFDFD",
"IX c #FEFEFE",
"UX c white",
/* pixels */
"i.u.t.0.6.5.7.0.5.7.8.7.6.5.6.8.u.y.d.b.N.c.x.n.j.1.O.1.k.N.c.f.p.s.9.2.9.8.4.q.2.2.5.8.8.8.q.y.u.u.",
"i.u.r.9.4.3.5.8.1.3.4.4.2.2.4.5.r.r.d.b.B.m.n.B.j.2.+.1.j.M.z.a.y.i.7.1.8.7.2.8.5.5.5.5.4.5.9.r.a.a.",
"i.y.e.9.5.5.8.w.6.8.0.9.8.8.0.w.i.i.d.z.c.z.l.c.d.2.$.3.k.N.x.a.i.d.e.8.r.9.<.4.8.9.9.6.5.7.0.e.y.y.",
"u.y.t.w.q.r.a.h.f.h.k.j.h.h.j.l.c.k.d.p.t.w.w.e.r.1.=.6.l.C.M.k.j.b.k.f.j.r.>.;.7.e.t.e.q.e.r.e.8.8.",
"y.y.y.t.u.f.c.B.M.B.V.V.N.M.N.V.C.n.d.0.2.1.2.3.6.3.2.w.l.C.C.n.x.V.M.b.n.u.=.#.2.w.p.u.y.i.t.9.4.4.",
"u.y.t.e.t.a.z.M.b.n.m.b.x.z.z.c.n.x.p.6.1.4.6.6.4.0.t.i.g.c.n.v.j.m.v.x.v.y.-.%.2.r.s.u.t.i.t.6.7.7.",
"i.y.q.6.4.6.w.i.y.u.u.t.q.9.9.0.y.i.r.5.4.9.0.7.8.s.z.f.t.t.p.p.p.h.s.i.h.i.6.7.r.h.l.i.r.p.u.8.r.r.",
"a.y.8.,.*.&.;.<.3.4.3.<.;.*.&.*.1.7.9.5.5.9.8.1.r.x.B.h.8.3.5.7.t.p.w.0.s.s.i.g.z.B.m.s.t.s.d.r.i.i.",
"t.w.7.<.-.-.,.3.8.q.8.<.>.1.,.&.8.7.7.6.6.5.5.4.q.k.B.x.w.3.6.e.u.u.u.u.u.u.u.u.j.x.n.b.h.y.r.y.i.i.",
"y.t.t.t.t.t.t.r.0.r.r.0.9.w.8.1.1.2.5.9.e.y.p.s.p.h.l.g.i.e.e.e.e.e.e.e.e.e.e.e.t.u.p.u.e.q.e.u.y.y.",
"y.u.s.k.v.c.f.u.t.i.p.p.a.d.i.0.=.:.3.q.p.k.b.M.v.g.i.i.s.s.t.0.5.5.5.5.5.5.5.5.2.3.3.2.2.6.q.t.i.i.",
"u.u.s.l.m.b.d.w.s.p.u.u.a.d.i.r.=.:.3.0.i.j.c.n.M.f.w.e.p.i.e.8.4.4.4.4.4.4.4.4.3.5.4.2.4.9.q.0.i.i.",
"i.u.p.j.n.n.k.i.k.i.0.8.q.e.w.q.1.2.5.8.w.t.i.p.h.r.8.0.w.q.w.u.u.u.u.u.u.u.u.u.p.d.d.p.a.f.u.6.9.9.",
"i.i.a.k.m.V.N.n.c.u.4.2.5.6.6.7.6.6.6.6.6.6.6.5.9.4.4.9.8.5.e.l.n.n.n.n.n.n.n.n.v.N.N.b.m.M.f.5.;.;.",
"r.y.s.k.c.n.m.m.c.t.4.4.8.7.5.6.7.7.6.6.5.4.4.4.6.2.4.0.6.<.0.l.M.M.M.M.M.M.M.M.x.n.b.z.b.M.d.<.;.;.",
"0.r.a.g.g.g.g.h.x.t.5.0.r.q.7.7.5.5.6.6.7.7.8.8.e.6.7.w.6.:.4.a.l.l.l.l.l.l.l.l.p.g.s.u.f.z.y.=.4.4.",
"3.8.0.6.1.3.r.g.t.t.t.u.p.p.y.e.6.1.1.4.5.3.5.9.9.u.g.u.,.@.>.t.e.r.y.u.y.e.0.7.0.5.4.4.;.$.3.g.i.i.",
"<.4.7.6.4.6.e.a.t.t.t.u.p.i.y.e.7.3.4.8.7.3.1.4.0.e.u.e.<.%.>.q.i.i.u.y.e.0.6.4.5.4.4.3.>.-.2.w.a.a.",
"e.r.y.u.u.y.t.t.u.t.t.y.i.i.y.e.6.5.0.u.p.e.0.w.u.e.w.w.7.2.4.0.s.a.p.u.y.t.r.r.0.r.t.w.0.q.8.3.w.w.",
"m.b.b.n.n.z.a.e.p.u.y.u.i.i.y.r.3.6.y.z.n.c.z.c.k.p.r.u.p.y.r.y.a.p.p.a.d.k.c.b.j.b.n.l.x.v.a.2.:.:.",
"C.B.N.B.V.n.f.r.s.i.y.y.i.i.u.t.4.7.i.b.C.B.N.V.c.s.y.p.d.a.i.p.u.u.u.p.f.x.M.V.n.C.V.m.B.C.g.2.*.*.",
"k.h.h.l.x.l.d.y.a.u.r.e.r.t.r.w.7.8.t.h.z.j.h.l.d.y.e.t.r.q.q.r.t.r.e.e.t.p.f.j.k.k.j.k.c.c.i.2.3.3.",
"i.u.u.p.a.a.p.u.y.e.9.8.9.0.9.8.8.5.7.e.r.0.0.e.0.9.9.9.3.:.<.9.q.0.9.8.7.9.0.q.y.9.8.t.d.a.r.0.r.r.",
"a.a.p.u.y.y.u.i.e.9.5.4.5.6.5.4.6.2.1.4.5.2.3.8.3.5.8.6.-.@.=.6.7.7.6.5.5.5.6.6.q.,.>.q.p.y.y.s.i.i.",
"y.u.i.p.p.i.y.t.y.w.7.4.6.8.8.8.7.7.7.7.7.6.6.6.8.6.7.8.3.:.>.4.0.0.0.9.8.7.5.4.7.5.6.w.p.d.p.r.p.p.",
"r.u.s.h.l.z.z.l.k.0.=.;.w.j.j.a.3.6.0.t.u.u.y.t.y.r.t.s.f.s.f.z.k.l.l.z.l.l.k.k.h.h.h.j.k.l.z.z.x.x.",
"e.u.f.z.n.M.N.N.B.0.O.%.i.V.N.h.,.3.0.y.a.a.i.y.f.i.i.k.m.B.V.A.M.M.N.N.B.B.B.B.B.V.V.M.b.b.M.C.N.N.",
"t.u.d.j.l.z.z.l.b.q.&.;.y.c.k.u.3.6.0.r.y.y.t.r.d.w.9.i.l.v.c.x.c.c.x.z.z.z.x.x.c.c.c.v.b.n.m.m.v.v.",
"i.i.i.u.t.e.q.9.q.7.3.5.q.r.q.7.8.8.9.0.q.r.y.u.t.3.:.6.u.s.p.i.f.s.p.y.t.r.r.r.r.q.w.s.v.M.x.d.f.f.",
"a.i.r.9.6.3.1.1.;.2.8.0.6.3.4.5.4.3.2.2.5.9.r.u.9.>.*.2.e.i.i.p.r.w.9.5.3.2.2.2.5.1.3.t.c.N.k.y.i.i.",
"a.u.w.8.6.7.9.q.5.6.7.6.5.5.6.7.8.7.7.7.9.q.e.r.8.,.-.2.w.y.i.s.i.y.w.9.7.7.8.9.9.6.7.y.k.v.h.u.u.u.",
"p.y.w.9.0.t.s.h.h.t.4.1.5.9.9.6.h.h.h.h.f.s.i.u.9.1.:.2.8.q.r.i.v.x.k.h.g.h.k.l.t.e.r.i.f.h.f.a.i.i.",
"a.a.p.t.r.a.x.V.M.e.,.4.9.6.7.r.N.m.n.M.M.l.e.1.7.:.*.<.3.3.w.h.n.n.n.n.n.n.n.n.l.a.t.u.u.r.t.a.i.i.",
"a.p.i.u.u.s.k.v.b.t.5.8.0.6.7.t.M.n.b.n.m.z.u.8.4.;.=.<.3.3.9.i.b.b.b.b.b.b.b.b.p.u.t.y.p.s.i.t.u.u.",
"8.8.9.e.i.d.g.g.l.u.w.r.w.5.7.t.j.g.d.g.h.d.t.9.t.w.e.u.p.i.a.g.g.g.g.g.g.g.g.g.i.f.f.s.h.x.s.5.7.7.",
"*.*.:.6.y.d.s.p.d.i.u.i.w.5.7.t.i.y.t.t.i.i.t.w.j.x.b.m.M.M.n.c.y.y.y.y.y.y.y.y.h.m.M.z.v.N.f.>.-.-.",
"&.*.:.5.r.i.y.e.t.y.i.u.q.5.7.e.i.u.t.y.i.p.p.p.a.x.M.m.m.B.v.f.u.u.u.u.u.u.u.u.f.m.N.z.c.M.f.,.-.-.",
"7.7.8.0.w.w.0.8.0.w.r.w.8.5.7.0.w.w.q.q.w.e.t.t.w.l.m.x.x.M.z.r.q.q.q.q.q.q.q.q.q.a.f.a.s.j.a.7.7.7.",
"u.u.y.w.8.6.6.7.5.7.8.6.5.5.7.7.5.5.5.5.4.5.6.7.q.x.B.c.c.C.b.r.4.4.4.4.4.4.4.4.5.8.q.0.9.0.w.r.u.u.",
"u.i.y.0.3.1.5.9.3.4.3.1.3.6.7.5.5.7.7.7.5.5.5.6.q.c.V.x.c.Z.m.t.5.5.5.5.5.5.5.5.7.6.6.7.2.>.5.y.i.i.",
"r.y.i.p.i.y.e.q.9.r.u.u.e.q.e.y.s.y.w.9.8.8.6.4.0.s.l.g.s.f.s.t.>.<.3.7.0.q.w.w.9.8.0.t.t.r.p.k.d.d.",
"r.u.d.k.x.v.b.v.z.c.v.v.c.x.x.v.n.x.g.p.u.r.q.8.5.0.q.8.9.q.6.>.-.;.,.3.7.q.t.u.u.e.r.g.x.x.x.c.c.c.",
"r.i.f.x.m.V.Z.A.V.N.M.N.B.V.N.M.B.b.k.d.i.r.0.7.5.4.<.,.2.5.<.%.=.;.>.2.7.w.y.p.s.r.t.l.V.V.m.v.m.m.",
"y.i.s.g.k.l.z.z.l.g.s.d.h.k.g.s.l.g.a.u.t.w.8.5.q.0.8.7.8.0.9.7.5.6.9.w.t.y.u.u.u.0.0.a.l.l.j.j.l.l.",
"i.i.p.p.i.i.u.u.y.q.7.7.0.w.0.7.w.q.9.9.0.0.8.5.w.t.p.i.r.e.p.k.g.j.z.c.z.h.a.y.q.7.6.9.0.9.e.a.i.i.",
"i.i.u.u.u.u.u.u.e.0.7.6.6.7.7.7.<.<.<.2.5.6.4.2.8.e.a.s.t.q.a.v.N.B.C.V.m.z.d.u.q.7.5.5.3.1.8.i.t.t.",
"r.e.e.e.r.t.y.u.q.q.9.6.3.3.6.8.9.8.8.9.q.q.8.5.9.0.y.a.y.q.y.k.b.v.x.k.g.a.u.y.w.6.3.6.8.8.q.y.y.y.",
"9.9.8.7.8.9.0.0.6.7.6.2.:.;.1.6.v.x.z.z.z.j.d.i.y.w.r.s.s.t.y.d.s.i.r.0.8.9.q.w.e.4.<.8.y.u.r.e.i.i.",
"6.6.6.6.6.6.6.6.7.3.5.8.1.&.:.q.m.n.n.n.v.l.s.t.u.u.u.u.u.u.u.u.i.y.q.8.5.5.5.6.5.5.6.0.t.i.i.u.i.i.",
"6.6.6.6.6.6.6.6.7.3.5.8.1.&.:.q.m.n.n.n.v.l.s.t.u.u.u.u.u.u.u.u.i.y.q.8.5.5.5.6.5.5.6.0.t.i.i.u.i.i."
};
