/* XPM */
static char *xpm_[] = {
/* columns rows colors chars-per-pixel */
"64 64 124 2 ",
"   c #381F14",
".  c #002D00",
"X  c #003000",
"o  c #003F00",
"O  c #313608",
"+  c #3A3F0B",
"@  c #2E2D13",
"#  c #342116",
"$  c #3E2513",
"%  c #302C15",
"&  c #2F3214",
"*  c #293C12",
"=  c #472F0C",
"-  c #4B2A0E",
";  c #45320D",
":  c #423A0C",
">  c #422612",
",  c #4D2B14",
"<  c #4D2B1A",
"1  c #542D16",
"2  c #582F16",
"3  c #532D18",
"4  c #57301A",
"5  c #5D321B",
"6  c #63341C",
"7  c #68391F",
"8  c #653620",
"9  c #663820",
"0  c #6C3A23",
"q  c #743D27",
"w  c #773F28",
"e  c #783F28",
"r  c #004400",
"t  c #004C00",
"y  c #1D4E0C",
"u  c #005400",
"i  c #005C00",
"p  c #135404",
"a  c #155F04",
"s  c #2C4B09",
"d  c #314508",
"f  c #314B08",
"g  c #3A4E0B",
"h  c #2C5E07",
"j  c #305509",
"k  c #315B09",
"l  c #274E10",
"z  c #006400",
"x  c #006B00",
"c  c #186205",
"v  c #176C04",
"b  c #007400",
"n  c #007C00",
"m  c #127B05",
"M  c #206306",
"N  c #2C6309",
"B  c #306409",
"V  c #277207",
"C  c #287707",
"Z  c #386910",
"A  c #524C17",
"S  c #554819",
"D  c #6B462B",
"F  c #754224",
"G  c #794226",
"H  c #774028",
"J  c #7B4129",
"K  c #734B2E",
"L  c #7B4E31",
"P  c #83462B",
"I  c #854A2D",
"U  c #8C4B2E",
"Y  c #914E2F",
"T  c #8D5432",
"R  c #925231",
"E  c #965B35",
"W  c #995F35",
"Q  c #996137",
"!  c #976338",
"~  c #9B673A",
"^  c #008400",
"/  c #008C00",
"(  c #0F8E03",
")  c #118305",
"_  c #188505",
"`  c #178904",
"'  c #009400",
"]  c #0B9505",
"[  c #009800",
"{  c #009A00",
"}  c #009B00",
"|  c #009D00",
" . c #099802",
".. c #179305",
"X. c #189605",
"o. c #31810E",
"O. c #00A000",
"+. c #00A300",
"@. c #00A400",
"#. c #00A600",
"$. c #00A700",
"%. c #00A900",
"&. c #00AB00",
"*. c #00AD00",
"=. c #00AE00",
"-. c #00B000",
";. c #00B100",
":. c #00B300",
">. c #00B400",
",. c #00B600",
"<. c #00B800",
"1. c #00BB00",
"2. c #00BD00",
"3. c #00BE00",
"4. c #00C100",
"5. c #00C200",
"6. c #00C300",
"7. c #00C400",
"8. c #00C900",
"9. c #00CF00",
"0. c #00D200",
"q. c #00D400",
"w. c #00DB00",
"e. c #00DD00",
/* pixels */
"z 8.8.8.8.8.1.t x z b n 9.w.w.w.0.5.b ^ [ | / ' [ / ^ ^ 3.3.1.8.8.9.9.9.8.9.7.-.,.%.x u ' ^ x 0.[ 3.=./ 7./ x b u b n | -.=.%.[ ",
"b 8.8.8.7.5.b ^ b x ' q.q.w.w.w.w.q.[ / O.O.O.$.O.O.O./ [ 3.1.8.=.$.-.1.5.1.%.x / x X x x x 8.5./ 3.^ b z x b / n u i t ^ x ^ b ",
"z 8.8.8.8.| r ^ n O.q.q.w.w.w.q.q.q.n O.$.| )  .=.O.%.[ O.O.: 3./ 1.5.5.=.[ ^ x 1.-.| / ,.-.=.[ ^ 5./ ^ x ^ b %.| n z u ^ i ' / ",
"^ =.8.7.-.z ^ x / ^ =.9.q.w.w.w.q.w./ =.| N 1 q - q q q 5 - 0 - 6 1 V 3.' / ^ | [ 5.1.%.z n ^ ^ ^ / O.1.3.0.=.^ 1.[ b ^ ^ / ' -.",
"[ z ,.| / ,.3.=.%.^ ^ [ 3.w.w.q.0.O.%.=.; 0 J e q J I I Y U q q q U 6 - 7 h C - ` | ' 5.[ i ' / b 1.9.w.e.e.1.1.1.,.x b x i t i ",
"n b ' ^ 3.3.5.5.[ n n b n 3.[ [ / [ h 5 - q Y Y Y Y Y Y Y Y Y Y Y U q q U 6 5 q q N - - -.n ,.[ =.0.q.w.e.e.3.^ 3.3.[ / -.' ^ ^ ",
"' 3.5.5.3.5.5.5.^ ^ ^ n o b x ' n %.6 q q Y Y Y ~ Y ~ ~ ~ Y Y Y Y Y Y Y Y G G Y e q q q - =.0.$.5.w.0.q.0.w.7.^ 1.1.-.' ,.3.,.b ",
"=.5.5.5.3.1.3.=.$.%.$.O.z u n =.| ; P Y Y W ~ ~ ~ ~ ~ ~ ~ ~ ~ ~ ~ R Y Y Y Y Y Y Y Y Y Y q q 1 , - - - w.9.q.^ z ,.,.,.[ 1.3.3.n ",
"3.5.5.5.5.1.3./ ,.=.=.=.n ' 6 6 9 - Y Y Y E ~ ~ ~ ~ ~ ~ ~ ~ ~ ~ ~ ~ ~ ~ Q ~ ~ R R R ~ Y Y Y q q q q 2 w.[ =.[ [ | ' [ n ^ 1.1./ ",
"1.5.5.3.3.1.=./ 1.,.$.^ m q 6 J J Y Y ~ ~ ~ ~ ~ ~ ~ ~ ~ ~ ~ ~ ~ ~ ~ ~ ~ ~ ~ ~ ~ Q ~ Q Y Y Y Y Y Y Y 0 - = O.-.5.5.3.5.O.[ ^ 1./ ",
"1.5.3.,.=.[ ' / / 2 5 - 0 Y Y Y Y Y E ~ ~ ~ ~ ~ ~ ~ ~ ~ ~ ~ ~ ~ ~ ~ ~ ~ ~ ~ ~ ~ ~ ~ ~ ~ ~ ~ Y Y Y Y e q q 2 N 8.0.9.9.8.-.^ 1.n ",
"$.=.O.[ [ ^ u n ' 2 6 - 0 Y Y Y Y Y E ~ ~ ~ ~ ~ ~ ~ ~ ~ ~ ~ ~ ~ ~ ~ ~ ~ ~ ~ ~ ~ ~ ~ ~ ~ ~ Q Y Y Y Y J q q 2 h 9.q.8.0.0.0.[ i u ",
"' [ | [ 0.0.^ ^ [ 6 I q Y Y Y ~ ~ ~ ~ ~ R E ~ ~ ~ ~ ~ ~ ~ ~ ~ ~ ~ ~ ~ ~ ~ ~ ~ ~ ~ ~ ~ ~ ~ Y Y Y Y R Y Y U - d 3.8.8.9.0.0.7.^ r ",
"q.q.0.0.0.0.9.' O.- U Y Y Y Y Y Y ~ ~ ~ ~ ~ ~ ~ ~ ~ ~ ~ ~ ~ ~ ~ ~ ~ ~ ~ ~ ~ ~ ~ ~ W Y T Y Y Y Y R R ~ W Y G 6 = [ 9.9.0.0.0.| / ",
"q.0.0.0.9.8.X.Y Y Y U R Y Y Y Y Y Y E ~ ~ E ~ ~ ~ ~ ~ ~ ~ ~ ~ ~ ~ ~ ~ ~ ~ ~ ~ ~ ~ ~ ~ R ~ Y Y Y Y R ~ ~ Y Y Y Y 6 - 8.0.9.0.%.x ",
"[ / 0.0.9.9.8.; F Y ~ ~ Y Y Y Y Y R ~ ~ R Y ~ ~ ~ ~ ~ ~ ~ ~ ~ ~ ~ ~ ~ ~ ~ ~ ~ ~ ~ ~ ~ ~ ~ ~ ~ W Y Y Y Y Y Y Y Y 6 3.1.5.1.,.' t ",
"r i 1.9.0.0.8.= Y R ~ E Y Y Y Y Y ~ ~ ~ ~ ~ ~ ~ ~ ~ ~ ~ ~ ~ ~ ~ ~ ~ ~ ~ ~ ~ ~ ~ ~ ~ ~ ~ ~ ~ ~ ~ Y Y Y Y Y Y Y Y 5 $.%.b b z x ^ ",
"^ z b / 7.3.6 Y Y Y Y Y Y Y Y Y Y ~ ~ ~ R E ~ ~ ~ ~ ~ ~ ~ ~ ~ ~ ~ ~ ~ ~ ~ ~ ~ ~ R W Y ~ ~ ~ Y Y Y Y Y Y Y Y Y Y 6 - / b [ [ | ' ",
"-.%.[ x f f 6 U Y Y Y Y Y Y Y ~ ~ ~ ~ Q Y W ~ ~ ~ Y ~ ~ Y R ~ ~ ~ ~ ~ ~ ~ ~ ~ ~ ~ Y Y W ~ ~ Y Y Y Y Y Y Y Y Y U 6 5.[ [ -.,.-.-.",
"-.-.%.i 6 6 Y Y Y Y Y Y Y Y Y Y Y Y Y Y Y ~ ~ R E Y Y Y ~ ~ ~ ~ ~ ~ ~ ~ ~ W E Y ~ ~ E W ~ ~ ~ E Y R ~ ~ Y Y Y F 7 ^ ^ O.=.-.-.1.",
",.-.' ^ | / ,.= Y Y Y Y Y ~ ~ Y Y Y Y Y Y ~ Q Y Y Y ~ ~ ~ ~ ~ ~ ~ ~ ~ ~ Y E E Y Y ~ ~ ~ ~ ~ ~ E Y Y Y ~ R Y Y , - k ^ ^ -.-.,.,.",
"-.-.^ n - - Y Y Y Y Y Y R ~ E Y Y Y Y Y Y W Q Y E R ~ ~ ~ ~ ~ ~ ~ ~ ~ ~ ~ ~ ~ ~ ~ ~ ~ ~ ~ Y Y Y Y Y Y Y Y Y Y Y Y Y = n n ,.-.,.",
"-.| [ [ - - 6 Y q Y q q q Y Y Y Y Y Y Y Y Y ~ ~ ~ ~ ~ ~ R ~ ~ ~ ~ ~ ~ ~ ~ ~ ~ ~ ~ ~ ~ ~ ~ ~ Y Y Y Y Y Y Y Y Y Y Y j 5.=.[ ^ =.-.",
"O./ x -.2 2 I q q Y Y Y Y Y P q q q Y Y W E Y Q ~ ~ ~ ~ Y ~ ~ ~ ~ ~ ~ ~ ~ ~ ~ Y ~ ~ ~ R Y Y Y E ~ ~ ~ Y Y Y Y Y Y Y = 8.1.^ [ O.",
"z x ' O.[ x v q q Y Y Y ~ Q q q q Y Y ~ ~ ~ Y Y E ~ Y Y W ~ ~ E R Y E ~ ~ E E Y Y E ~ Y E ~ ~ E R Y ~ W Y Y q Y Y Y U - - / n b ",
"| . t x d f q q Y Y Y W ~ q q q q q R ~ ~ ~ Q Y Y Y Y Y E ~ ~ E R R Y Y ~ E E Y Y Y Y Y Y ~ ~ ~ ~ ~ Y Y Y Y P q P 9 7.=.9.$./ =.",
"7.x i n 6 9 q q Y Y Y J q q q q q Y T ~ ~ ~ ! Y Y R R R Y ! ! ~ ~ Y E Y Y Y Y Y Y Y Y Y Y Y W E Y Y R Y Y Y Y Y e q = ,.1./ -.8.",
"8.O.u - q q q Y Y Y q q q q q q q q q q ! ~ Y Y E ~ ~ ~ E Y Y Y Y Y Y Y Y Y Y Y Y E ~ ~ ~ Y Y Y Y Y q q Y Y Y Y Y 9 , O.-./ [ 8.",
"8.1.c 6 q q q q I Y Y P q q q q q q q q q q Y Y ~ ~ ~ ~ E Y ! Y Y Y Y R ~ E E Y W ~ ~ ~ ~ ~ R Y Y Y I q q Y Y Y Y q q 2 2 %.7.8.",
"8.k 2 q q q q Y Y Y Y J q q q q q q q q q q q U ! Q ~ ! E R ~ R Y Y Y Y ~ ~ ~ Y ~ ~ ~ ~ E Y Y Y Y Y Y Y Y Y Y Y Y P - - - - 7.8.",
"8.3.2 q q q J Y Y Y Y P q U P q q q q q q Y Y Y Y Y Y Y Y R ~ Y Y Y Y Y Y R Y Y Y ~ ~ ~ ~ Y Y Y Y Y Y q J U Y Y Y Y R q q q q X.",
"8.9 q q q q Y Y Y Y Y Y Y Y Y q q q q q q Y Y Y Y Y Y Y Y Y Y Y Y Y Y Y Y q q Y Y Y ~ Y E Y Y P q q U I q I Y Y Y q q q q 7 - 8.",
"- q q q q q q I Y U q q Y Y Y q q q Y U Y Y Y Y Y Y Y Y Y Y Y ~ ~ J q Y Y q q q I Y Y Y Y Y J I q q q q Y Y Y Y Y q q q q k 3.8.",
"- q q q q q q I Y P q q Y Y Y w q q Y I U Y Y Y Y Y Y Y Y Y Y ~ ~ w q Y Y q q q U Y Y Y Y Y e I q q q q Y Y Y Y Y q q q q k 1.8.",
"/ 1.4 q q q q Y Y w I Y Y Y P Y Y Y Y q q P Y Y Y Y Y Y q Y Y ~ E Y q U Y P P q U Y Y Y Y Y J q q q q Y q Y Y Y Y Y q q q q - 1.",
"1.j q q q q q q q Y Y Y Y q P Y Y Y P q q q q q Y Y e w q Y Y E q U Y Y e q q e Y Y Y Y Y Y J q Y U q P q q Y Y e q q 2 2 - - / ",
",.=._ - q q q q q q q Y I q P U U q q q U q q q P Y e e q U q Y q q q Y e P P Y Y Y q U Y Y Y q Y Y Y Y Y q P Y Y I q q q d n ,.",
"$.| ' - q q q , , q q Y I Y Y w q q q e Y q q q q e e e P q q Y q q q q U Y Y Y Y Y q Y I q J q q q I Y Y Y Y Y e q q q q d O.O.",
"u z b - 5 5 - , 8 q q q w Y Y U U q q J e q q q q Y Y Y Y q U Y U U P q U Y Y U q q q U P q q q q q q P Y Y U q e q e q q O x b ",
"i -.^ ' | [ c - 8 q q q w Y Y I U q q q q q q q P Y Y Y Y Y Y Y Y Y Y Y Y Y Y Y Y q q q q q q q q q q Y Y Y Y q q 7 5.- - / z b ",
"u O.1.-.5.5.$.- q q 3 8 q q q q q q q q q q q q P Y Y Y Y Y Y Y Y U Y Y Y I I Y Y P q q q q q q q q q P U q q q - B 8.8.1.[ b u ",
"n 1.3.-.[ $.` q q 0 , 6 , , q q q q q 0 , q q q q Y J w w Y w P Y e q q q q q q Y P q q 0 q q q q q 3 q q q q q - 5.7.5.-.3.x ^ ",
"' %.3./ | ,...- , , , , , , q 0 8 q q , , , q 3 , 3 q q q q q q q q q q q q q q q q q q 6 < q q q q 4 , q q q q 4 B 5.1.-.,.b ,.",
"' $.,.^ $.3.3.' ^ , , , - , 5 , 3 - , + [ - 0 , , < 0 0 q q q q , 0 5 < , q q q q q q 4 , , 5 q q q q , , , 9 q 4 k 1.1.,.3.[ 0.",
"0.[ | $.,.$.,.$.' - - / a , , - - , 1 d [ s - , 5 w q q q q q 6 , 5 > , , , , q q 5 q 3 , , , , q q q q , , , O.$.-.5.7.3.1.x 5.",
"$.8./ / | ^ / / $.^ $.n ' = - ^ n ^ M / | O.m , 6 0 0 q q q q 0 - # # # , , , , , , , , , , , 3 , , , , 3 - N ^ n O.8.8.5.5.' | ",
"z ^ [ ^ x i u z ' $.=.%.^ O.x ^ $.$.%.,.-.3.7.: 6 - > - 0 0 > >   # # # , , , - - , , 3 - : g , , , , 1.9.3.5.| z / 3.5.7.-./ 5.",
"b [ [ u i n z r x ' %.O.=.1.5.^ [ ' O.%.7.3.,.& > # # # > - # # # # # # # # # / [ - - - N 3.5.n - - p -.0.1.-.O.z x [ %.1.[ ^ $.",
"z / / u ^ =.' / [ 3.7.| O./ / $.[ / %.,.,.-.3.& # # # # # # # # # 5 # # 5     1./ ^ -.-.^ %.[ / =.n n %.7.5.| / i ^ n / | / 3.| ",
"/ 7.,.r n -.O.%.7.5.5.=.,.[ O.,.| O.| -.,.3.O.% # # $ > # # # < 9 6 K K 8 < < n z z / [ -.-.| 3.7.5./ n | $.' ,.z [ b O./ / -.' ",
"/ 8.^ b / n n %.5.5.7.%.7.,.5.7.5.,.[ 1.& # # # # > $ $ $ $ $ 3 6 6 K 8 5 < < % %.^ b / %.| 7.9.9.8.7.[ z n %.| n b r b %.-.[ / ",
"[ / x $.=.^ [ %.3.' [ ^ 8.,.1.5.5.3.' -.,.# # $ # $ $ > 6 $ $ 3 9 K K D 5 6 6 5 # ,.^ x z O.8.8.8.8.0.7.[ n z / b [ i ^ [ [ z [ ",
"5.-.-.[ [ | u i $.i / x 1.3.%.=.,.,./ $.%.y # $ $ > $ > 6 $ $ 3 9 K K K 8 3 3 6 8 <   # t | 8.9.9.8.8.8.-.%.%.3.%.O.b ^ b / =.3.",
"9.0.9.5.| ,.x r z ^ | n x %./ 7.=.=.O.] # # # $ # $ 5 6 6 $ $ 3 9 K K K 6 6 6 $ $ $ > 6 3 @ 8.8.8.9.8.1.n [ ^ b b ,.^ [ 7.7.8.9.",
"0.9.9.1.x / / x [ -.5./ n / [ | ^ / O.] # # # $ $ $ 5 5 6 > $ 3 9 K K K 6 6 6 $ $ $ > 9 < @ 3.7.9.7.1.$.b %.n ^ | ' b | 9.9.9.0.",
"0.0.0.-./ %.^ ' -./ [ %.=.,.-.) m $ # # # # $ $ # > 6 5 6 $ > 3 L K K H 6 6 8 8 $ # #   $ 5 # 5.1.%.b n n ' / ' / ^ ^ 5.8.9.9.0.",
"0.9.=.[ n ^ x n ^ / -.3.3.% # #   # #   # $ # # $ $ $ $ $ $ # 3 K K K D $ 3 < 6 6 < % | -./ ' [ b z ^ | | %.%.=.$./ b 9.9.9.9.9.",
"9.%.i ^ n x / z $.3.3.1.1.3.3.1.^ [ [ # # # > $ > > $ $ $ $ > 3 K K $ $ $ > > 6 6 6 4 [ | ' [ [ n i [ %.%.-.-.-.-.$.x [ ' ' 0.0.",
"u z z O.3.=./ x 1.5.3.1.3.3.5.%.b / l   $ # # # #   $ $ > $   5 K < #   # $ $ $ $ < 6 ..=.[ 5.8.[ / =.-.=.=.,.,.,.i ^ =.%.| [ / ",
"' z | 5.7.7./ b 1.3.5.3.3.3.,./ =.3.%.[ O.7./ | ,.# #   $ $   6 9 $ u n [ -.,.' * $ > 5 Z ' 7.7.[ -.-.=.=.-.-.-.,.[ ,.3.3.3.,.-.",
"3.=.^ / 8.8.-.n 3.5.3.3.5.3.%.' ,.3.-.b ^ O.%.5.[ %.[ | # # 5 6 A 1.n $.3.5.5.=.3.1.1.5.%.7.7.^ [ -.1.=.-.-.,.^ ' 1.3.3.3.5.3.3.",
"3.3.-.[ 7.8.8./ 3.3.3.1.=.^ x i 3.3.3./ | 1.=.5.7.[ O.%.$.  6 8 8.,.1.5.5.7.7.=.5.1.5.,.8.8.5./ O.-.,.,.-.-.=.^ -.3.5.3.3.3.3.5.",
"5.,.[ 7.8.8.7./ $.[ O./ i t i b z ^ / | 3.5.| 5.5.' =.-.,.] 5 o.8.5.-.7.7.8.9.O.5.5.5./ 8.7.-.b z | / | [ / t ^ -.3.3.5.3.3.5.5.",
"=.| / 8.8.8.8.t i b n i b / 8.3.[ b r ,./ / x ^ / z =.3.1.1.S 8.8.9.8.9.9.9.9.| 8.7.-.b 1.3.' ' ^ z z z / i n i b [ =.3.5.3.3.1."
};
