/* XPM */
static char *bd4f0fc024e84a0ffe526c7dc78c0babxyLNZ4XdBcx3UOQg[] = {
/* columns rows colors chars-per-pixel */
"64 64 182 2 ",
"   c #1A1B1E",
".  c #241E1F",
"X  c #2C1D1D",
"o  c #002D00",
"O  c #023403",
"+  c #043F08",
"@  c #103D0C",
"#  c #072E1F",
"$  c #0D2E1B",
"%  c #1D2E16",
"&  c #05341D",
"*  c #0C3418",
"=  c #043C1D",
"-  c #0B3C19",
";  c #1D3C16",
":  c #2F2117",
">  c #2B211A",
",  c #372415",
"<  c #3C2514",
"1  c #342419",
"2  c #38231A",
"3  c #203E17",
"4  c #243A1B",
"5  c #0E1B20",
"6  c #101820",
"7  c #072622",
"8  c #0A2321",
"9  c #032C23",
"0  c #0A2A23",
"q  c #112723",
"w  c #013223",
"e  c #0A3425",
"r  c #043D25",
"t  c #0D3A27",
"y  c #292425",
"u  c #362523",
"i  c #352A28",
"p  c #3D2E2A",
"a  c #353824",
"s  c #412714",
"d  c #442915",
"f  c #4A2B16",
"g  c #522E19",
"h  c #573019",
"j  c #5C321B",
"k  c #62351C",
"l  c #65391F",
"z  c #432F29",
"x  c #47332B",
"c  c #553723",
"v  c #643B22",
"b  c #6A3F25",
"n  c #004400",
"m  c #0A4707",
"M  c #004C01",
"N  c #10480C",
"B  c #005400",
"V  c #005C00",
"C  c #0B550D",
"Z  c #08590F",
"A  c #145E0F",
"S  c #004E13",
"D  c #00431C",
"F  c #0A441A",
"G  c #024C1B",
"H  c #1D4316",
"J  c #144B17",
"K  c #1D4C16",
"L  c #114719",
"P  c #005213",
"I  c #0A5514",
"U  c #005913",
"Y  c #095B13",
"T  c #01521A",
"R  c #015C1A",
"E  c #165111",
"W  c #1D5316",
"Q  c #1D5C16",
"!  c #17551B",
"~  c #23451A",
"^  c #28551C",
"/  c #315F18",
"(  c #006400",
")  c #006B00",
"_  c #0A6B07",
"`  c #08640F",
"'  c #006D08",
"]  c #11620D",
"[  c #116D0D",
"{  c #007400",
"}  c #007C00",
"|  c #0A7B07",
" . c #03740C",
".. c #0B7408",
"X. c #007809",
"o. c #12790E",
"O. c #016413",
"+. c #006A12",
"@. c #1D6316",
"#. c #166D11",
"$. c #1E661E",
"%. c #1F681C",
"&. c #007B11",
"*. c #25640C",
"=. c #2A6A09",
"-. c #2F7006",
";. c #2D740D",
":. c #337604",
">. c #357A05",
",. c #397E00",
"<. c #30770A",
"1. c #327808",
"2. c #216415",
"3. c #266D15",
"4. c #286F13",
"5. c #226A1A",
"6. c #297111",
"7. c #074127",
"8. c #084326",
"9. c #064D24",
"0. c #074428",
"q. c #094628",
"w. c #0A4B29",
"e. c #104D20",
"r. c #104428",
"t. c #104C2A",
"y. c #0D532B",
"u. c #0F592C",
"i. c #105224",
"p. c #155E27",
"a. c #10562C",
"s. c #115C2C",
"d. c #334921",
"f. c #166026",
"g. c #1A6422",
"h. c #2C6C22",
"j. c #407F08",
"k. c #6C4127",
"l. c #6F442A",
"z. c #72482D",
"x. c #744B30",
"c. c #008400",
"v. c #008C00",
"b. c #00830E",
"n. c #078808",
"m. c #009400",
"M. c #0A9107",
"N. c #009C00",
"B. c #019209",
"V. c #099909",
"C. c #3E8100",
"Z. c #00A300",
"A. c #0AA107",
"S. c #00AB00",
"D. c #08A806",
"F. c #00B400",
"G. c #00BC00",
"H. c #438300",
"J. c #4A8600",
"K. c #4E8800",
"L. c #548B00",
"P. c #598E00",
"I. c #5C8F00",
"U. c #5E9000",
"Y. c #629200",
"T. c #639200",
"R. c #6B9600",
"E. c #6F9800",
"W. c #729900",
"Q. c #749A00",
"!. c #799D00",
"~. c #7B9E00",
"^. c #7EA000",
"/. c #00C200",
"(. c #00C500",
"). c #00CA00",
"_. c #00CF00",
"`. c #00D200",
"'. c #00D600",
"]. c #00D900",
"[. c #00DD00",
"{. c #81A100",
/* pixels */
"( ).).).).).G.M ) ( { } `.].].].`./.{ c.N.N.v.m.N.v.c.c.G.G.G.).(._._._._._.(.S.F.S.) B m.c.) `.m.G.F.v.).v.) { B } } N.F.S.S.N.",
"{ ).).).(./.{ c.{ ) v.'.].].].].].'.N.v.Z.Z.Z.Z.Z.Z.N.v.N.G.G.).F.S.F.G./.G.Z.) v.) O ) ) ) _./.v.G.c.{ ( ) { v.} M ( M c.) } { ",
") ).).).).N.n c.} Z.'.'.].].].].`.'.} Z.Z.N.N.Z.S.Z.Z.N.Z.N.S.G.v.G./.(.S.N.c.) G.F.N.m.F.F.S.m.c./.v.c.) c.{ S.N.} ( V c.V m.v.",
"c.S.).(.S.( c.{ m.} S._.'.].].].'.].m.S.N.O.N.S.b.T w >.M v.*.w >.r r F :.} G w w &.G.Z.( } v.c.} m.Z.G.G._.S.c.G.N.{ c.} v.m.F.",
"m.( G.N.v.F.G.S.Z.c.c.N./.].].].`.Z.S.B.I F $.$.*.g.,.h.,.,.<.,.5.,.,.,.s.s.j./ / Q q.E u.u.X.X.{ G._.].[.[.G.G.G.F.) } ) ( M V ",
"} { m.c.G.G././.N.} } { } G.m.m.U O.O.+.q.<.<.<.,.;.U.P.H.H.L.T.,.L.L.,.T.C.P.,.,.<.,.;.3.3.q.q.R `.'.].].[.G.c.G.G.m.v.S.m.c.c.",
"m.G././.G./././.c.c.c.} + { { m.P O.U S q.<.<.<.,.;.U.P.H.H.L.T.,.L.L.,.T.C.P.,.,.<.,.;.3.3.q.q.R ].`.'.'.].(.c.G.G.F.v.G.G.F.{ ",
"S./.(.(.G.G.G.S.Z.S.S.Z.( B } D p.,.,.p.p.,.{.{.!.W.{.!.E.E.H.{.L.{.{.!.{.!.W.K.K.!.,.,.W.W.,.,.g.9.9.[._.'.c.( F.F.G.m.G.G.G.} ",
"G././././.G.G.v.F.F.S.F.} m.b.8.K.W.W.H.H.I.H.H.!.T.C.{.{.{.{.{.{.{.{.{.H.!.{.!.!.L.R.{.!.!.H.H.f.e.e.- v.S.N.N.N.m.m.} c.G.G.v.",
"G././././.G.S.v.G.F.S.c.+.&.r 6.C.I.I.C.L.{.{.{.Q.,.!.{.{.{.{.{.{.{.{.{.{.{.{.{.{.E.{.!.P.P.I.P.K.;.;.2.q.D F./.(.G./.Z.m.c.G.v.",
"G./.G.F.S.m.m.v.v.c.F.D w w $.<.H.,.,.W.!.{.{.{.{.!.{.{.{.{.{.{.{.{.{.{.{.{.{.{.{.{.{.{.{.{.J.R.{.!.!.3.g.*.G.G T _.`.).F.c.G.} ",
"S.S.Z.N.N.c.B } m.m.v.} w w p.J.{.{.{.!.L.H.{.{.{.{.{.{.{.{.{.{.{.{.{.{.{.{.{.{.{.{.{.{.{.{.{.{.E.{.{.C.,.g.>.w w (._.`.`.m.V B ",
"m.N.N.m.`.`.c.v.N.N. .G <.<.,.,.P.{.{.T.T.{.{.{.{.{.{.{.{.{.{.{.{.{.{.{.{.{.{.{.{.{.{.{.{.{.{.{.T.L.L.P.K.>.5.q.q.F._.`.`.(.c.n ",
"'.'.'.'.`.`._.m.Z.T w 2.,.,.{.C.L.{.{.E.!.{.{.{.{.{.{.{.{.{.{.{.{.{.{.{.{.{.{.{.{.{.{.{.{.{.{.L.W.!.!.R.J.,.,.y.y.F._.`.`.`.N.v.",
"'.`.`.`._.).(.N.Z.m.y.,.,.,.,.,.Q.{.{.,.{.{.{.{.{.{.{.{.{.{.{.{.{.{.{.{.{.{.{.{.{.{.{.{.{.{.{.{.,.^.^.^.{.,.,.,.,.r _.`.`._.S.) ",
"m.v._.`.`._.).v.w s.>.g.,.,.T.,.H.,.,.{.!.{.{.{.{.{.{.{.{.{.{.{.{.{.{.{.{.{.{.{.{.{.{.{.{.{.{.{.{.{.{.P.W.>.s.,.,.! +./.G.G.v.M ",
"n V G.`.`.`.R R w.s.s.>.,.,.H.,.R.{.{.{.,.!.{.{.{.{.{.{.{.{.{.{.{.{.{.{.{.{.{.{.{.{.{.{.!.!.{.{.K.H.H.L.H.W.,.,.,.=.B.{ { ( ) c.",
"c.( { v.).G.T G w.s.s.>.,.,.H.,.R.{.{.{.,.!.{.{.{.{.{.{.{.{.{.{.{.{.{.{.{.{.{.{.{.{.{.{.!.!.{.{.K.H.H.L.H.W.,.,.,.=.X.) N.N.Z.m.",
"F.S.m.) m.c.' ' s.,.<.,.,.,.L.E.,.,.,.{.{.{.{.{.{.{.{.{.{.{.{.{.{.{.{.{.{.{.{.{.{.{.{.{.{.{.{.,.E.L.L.,.L.{.,.s.s.r  .N.F.F.F.F.",
"F.F.Z.V ) } L L J $.s.<.H.H.E.!.C.,.,.J.{.J.{.{.W.{.{.{.{.{.{.{.{.{.{.{.{.{.{.W.W.L.L.E.,.,.{.H.U.K.K.P.,.;.;.s.s.3.<.r S.S.F.F.",
"F.F.m.c.N.T i.i.,.5.;.>.J.J.H.{.{.,.,.L.T.{.W.W.H.,.L.^.{.{.{.{.{.{.{.{.{.{.{.{.{.W.E.,.{.{.,.C.E.T.T.R.<.$.4.s.s.3.<.! B.B.F.F.",
"F.F.c.} c.w s.s.s.s.;.,.s.s.L.{.!.!.!.H.R.T.{.{.!.{.C.{.{.{.{.{.T.C.C.{.^.C.J.{.{.T.T.,.H.H.,.!.,.T.T.U.,.g.,.,.,.s.s.u.S O.F.F.",
"F.N.m.m.{ r <.<.s.s.s.;.,.,.,.L.,.E.E.,.H.{.{.{.H.{.{.,.Q.Q.T.T.{.{.{.{.{.{.J.{.{.{.U.W.H.H.W.W.{.L.L.H.f.<.s.s.s.6.3.5.p.p.T F.",
"Z.v.( F.Z.G q.q.4.,.%.5.,.,.L.!.T.,.,.I.H.H.W.W.R.{.{.T.{.{.T.{.J.{.{.{.,.!.{.W.W.E.K.T.{.{.T.P.,.J.J.E.6.5.s.5.5.3.,.,.-.-.= N.",
"( ) m.Z.& 7.s.s.s.,.>.,.,.,.,.,.{.!.!.{.J.!.{.{.C.J.H.^.{.{.{.P.,.H.H.,.H.H.L.!.!.P.,.,.H.H.,.H.;.5.5.3.;.s.>.s.s.p.;.6.3.3.r ) ",
"N.o M S w y.r r s.f.s.4.5.5.,.,.>.,.,.J.,.,.!.!.{.H.,.^.,.,.J.P.!.{.{.K.,.,.,.,.,.L.,.E.H.H.,.,.p.3.3.,.p.s.,.s.s.;.5.u.u.u.q.T ",
"(.) V } 5 7 w w s.3.s.>.;.;.;.,.s.3.3.,.J.P.,.,.H.,.U.{.T.T.{.J.J.R.R.U.,.P.,.R.R.,.W.E.P.P.{.3.%.,.,.,.>.3.,.s.s.%.w y.s.s.r # ",
").N.B { * e s.s.s.<.s.5.,.,.,.,.,.,.,.,.W.J.L.L.!.T.K.,.,.,.K.J.{.H.H.^.,.{.!.H.H.H.C.5.,.,.J.,.>.,.,.6.,.s.s.<.<.%.s.w u.u.w.$ ",
").G.} Z.- e s.s.s.<.s.5.,.,.,.,.,.,.,.,.W.J.L.L.!.T.K.,.,.,.K.J.{.H.H.^.,.{.!.H.H.H.C.5.,.,.J.,.>.,.,.6.,.s.s.<.<.%.p.w u.u.w.$ ",
").G.G.I 7 w r r >.s.s.6.s.s.3.g.;.>.>.>.,.,.!.!.,.R.H.,.!.!.R.,.L.!.!.Q.!.H.W.L.L.T.,.<.,.,.,.,.>.5.5.5.;.s.,.s.s.>.s.q.8 8 q.9 ",
")./.F.Y - e s.s.q.7.s.5.5.5.f.s.s.s.s.s.f.s.<.<.,.,.U.,.R.R.L.P.R.R.R.,.,.,.T.>.>.T.,.,.,.,.6.,.s.;.;.;.;.$.s.6.6.w.r e I I $ ).",
")._._._.5 7 y.y.s.r g.<.p.p.>.<.>.s.s.p.s.s.f.f.%.,.p.s.>.>.;.H.T.<.<.f.g.,.s.g.g.6.,.1.%.%.s.6.;.,.,.5.g.s.r u.s.w q.r  . .G.).",
"(._._.).7 u.y.y.w u.s.w.q.q.,.g.>.,.,.,.g.s.,.,.,.,.>.,.s.s.s.,.,.,.,.,.,.s.s.6.6.3.,.,.s.s.s.s.;.6.6.,.,.,.s.w w s.w 6 Y Y G.).",
"F.S.F.I = r w.w.r w y.y.y.y.s.s.3.$.$.4.;.%.$.$.<.g.,.s.s.s.<.>.%.;.;.1.;.s.g.p.p.s.,.>.p.p.,.s.5.f.f.;.s.y.7.s.s.7 * & N.G.G.).",
"v.G./.(.` - 5 8 e u.w w q.q.q.y.s.,.,.s.f.f.w.w.s.s.$.s.s.s.<.s.s.p.p.s.,.s.>.,.,.;.<.,.,.,.s.>.g.6.6.%.y.s.7.7 7 O.Z.N.Z.N.S.G.",
"G.G.G.G.m.v.6 6 9 w 5 w q.q.w w w s.s.>.s.s.s.s.r s.w s.y.y.s.3.3.g.g.s.s.p.g.s.s.3.,.s.s.s.w u.w.8.8.q.w s.u.9 9 6 F.m.B N.v.v.",
"G.S.F.Z.} N._./.S.m.$ 8 s.s.7.s.w w w y.q.r r r u.r r w r r q.y.7.g.g.s.r w.q.w w 7.s.3.r r s.w q.w w 9 y.r 7 7 7 } N.N.V { } F.",
"Z.N.N.m.{ v.'.S.).S.N.5 0 0 F Y r.s.s.a.w 7 e e s.s.0.s.7.7.r r y.s.s.r s.q.q.y.y.q.w y.q.q.w 9 r e e t.0 7 9 m.N.Z.m.N.{ } Z.N.",
"B ( { c.c.} N.S.'.`.G./.G.S.`.5 w 5 5 5 V.5 8 8 w.r 9 s.w w 5 w q.8 8 w u.w w w.w.t w $ O V w X.* ` C ( 5 m.m.v.S.S.G.F.m.M ) { ",
"V F.c.m.N.N.v.m.S.S.'.F.v.S.`.5 w 5 5 5 B.5 8 8 w.r 9 s.w w 5 w q.8 8 w u.w w w.w.t w * B M w n.- Z + { 5 m.m.c.Z.S.).(.S.c.( { ",
"B Z.G.F././.Z.c.Z.S.).N.c.(.} G.).'.].].N.S.8 8 * m.* $ , , . a.q k k 8 7 t.q * - & S.F.} m.G.F.F.( n ) G.(.S.N./.).).).G.m.{ B ",
"} G.G.F.N.Z.F.N.F.v.Z.N.G.m.m.G.G.`.].'.N.Z.F./.(.G./.Z.< < g c c k k j < s I v.G.F.S.c.N.G./.F.S.{ } F.Z.S./.Z.(.(.).(.F.G.) c.",
"m.S.G.v.N.G.G./.N.S.S.F.).Z.v./.`.).).G.m.N.(.).`._.`.).< < g x.b h h l < X | v.v.c.F.v.S./.(.G.N.c.v.F.G.m.Z.Z.G././.G.F.F.) F.",
"m.Z.F.c.Z.G.G.m.c.N.Z.G.m.Z.v.F.F.(.S.v.N.m.G._.'.).`.`.< < g z.b h h l < X m } m.m.v.} S.(.(.(.S.N.S.G.G.Z.F.S.F.F.G.G.F.G.N.`.",
"`.N.N.Z.F.Z.F.Z.m.N.m.v.{ G.N.N.c.m.{ c.m.} } G._.)._.`.< < j b v h h l < 2 _ v.N.N.N.v./.(.(.(./.Z.m.S.Z.Z.(.Z.Z.F././.G.G.) /.",
"Z.(.v.v.N.c.v.v.Z.c.S.} m.G.S.c.} c.v.v.Z.Z.m.c.N._._.`.< < k k c k k z.< s A.m.Z.Z.N.m./.(.(.(.m.Z.Z.S.F.F.(.c.} Z.).)././.m.N.",
"( c.m.v.) V B ( m.Z.S.S.v.N.) } Z.S.S.F.F.G.(.S.m.G._.`.< < l.k c k k x.< s V.N.Z.N.N.S.G.(.(./.v.{ c.G._.G./.N.( v.G.).(.F.v./.",
"{ m.N.B V } ( n { m.Z.Z.S.G./.c.m.N.Z.S.).G.F.N.c.G.G./.X X l.k b h h x.< s A.v.m.v.S.m.S./.(.} m.) ( F.`.G.F.N.( ) m.S.G.N.c.Z.",
"( v.v.B c.S.m.v.m./.(.N.Z.m.v.Z.m.v.S.F.F.F.G.F.v.Z.Z.{ X X l.h b h h b < h A.G.v.c.S.F.c.Z.N.v.S.} } Z.(./.N.v.( c.} v.N.v.G.N.",
"v.).F.n } S.Z.S.(.(.(.S.F.m.Z.F.N.Z.N.F.F.G.Z.Z.v.v.v.) < < l.g x.h h l < j | c.( ( v.N.F.F.N.G.(.G.v.} Z.Z.m.F.) m.{ Z.v.v.F.m.",
"v.(.c.{ v.c.} S././.(.S.(.F./.(./.F.m.G./.F.m.v.c./.N.N.< < l.g x.h h l < j _ } Z.c.{ v.S.N.(.).).).(.m.( } Z.N.} { n { Z.F.N.v.",
"N.v.) Z.S.c.m.S.G.m.m.c.(.F.G./.(.G.m.F.F.S.N.N.m.c.c.Z.< < h h b h h l < j M.F.F.F.c.) V Z.).).)._._.).m.} ( m.{ N.V c.N.m.( m.",
"/.F.F.N.N.N.B V Z.V v.) G.G.Z.F.F.F.v.Z.Z.v.c.Z.F.S.c.c.< < g v k.j j l < j M.F.F.F.F.V M N.).)._._._.).F.S.Z.G.Z.Z.{ c.{ v.S.G.",
"`._._./.N.F.) n ( c.Z.} ) S.v.(.S.S.Z.G.G.Z.c.c.v.F.N.} < < g b k k k l < j M.F.F.F.N.{ { v.).)._._.).G.} m.c.{ { F.v.N./.).)._.",
"`.`._.G.) v.v.) N.F.G.v.} v.N.N.c.v.Z.G.V.W Q Q Q n.D.Q < < < b k.h h l < < ~ W Q Q #...Q K Q @.(.).G.Z.} S.} c.N.m.{ N._._._.`.",
"`.`.`.F.v.S.} m.F.c.N.S.S.F.F.Z.[ ] [ o.K W Q @.@.Q Q @.< < d b k.h h l < s 3 K W Q K Q @.K Q @.Q #.E { } m.v.m.v.c.c.(._._.`.`.",
"`._.F.N.} c.) } c.v.F.G.G.G.G.Q W K K K ; H @.@.@.@.Q Q < < f b k.h h l < < 3 W W W ; W Q K K W H ; K N.N.Z.Z.S.S.v.{ _._.`._.`.",
"_.Z.V c.c.) m.( S.G.G.G.G.G.G.M.K W W Q ; H W @.@.@.@.Q < < f b x.h h l k < 4 K Q Q Q K W K W W H ; K Q Q F.F.F.F.Z.) m.m.m.`.`.",
"B ( ( N.F.S.c.) G./.G.G.G./.@.Q H K H H ; K K Q @.@.@.d.< < f k x.h h l k f u 3 ~ Q @.Q Q W @.@.W K Q Q M.S.F.F.F.( c.S.S.Z.N.v.",
"v.( N.G.(.(.v.} G.G.G.G.@.@.Q K Q Q Q K Q @.K W Q @.  < < < f g k.h h l k j 2 i i Q Q @.Q K @.@.K Q Q Q Q o.F.F.F.m.F.G.G.G.F.F.",
"G.S.c.v.(.).F.} G././.G./.G.n.K Q @.Q H K Q Q @.W Q z < h h < g k.g g d k h j < < 4 Q @.Q @.@.K W Q Q Q Q Q F.c.m.G.G.G.G.G.G./.",
"/.G.F.m.).).).v.G./.G.F.S.c.C ; Q @.@.K W Q Q @.@.W z < h h < g k.g g d k h j < < 4 @.Q @.@.@.K Q Q Q Q Q Q S.c.F.G.G.G.G.G././.",
"/.F.m.).).).).v.Z.N.Z.v.N @ ; H ; K K Q Q @.Q @.@.H > > y y > g h < < : g X y 4 ~ ^ @.K @.@.Q H ; W K Q W ..M } F.G.G.G.G./././.",
"S.N.v.).).).).n V { } V ) c.@.Q W H % Q K K ; K K ; Q ^ Q Q a 1 : p p x p   Q W @.@.Q H Q Q K W H ; ; ; A V } V { N.F.G././.G.G."
};
