/* XPM */
static char *_53b6ee6b10140b099bf18e933d250f2V2vfqC0oXOgyCu38[] = {
/* columns rows colors chars-per-pixel */
"50 50 133 2 ",
"   c #54361E",
".  c #58381F",
"X  c #553721",
"o  c #563C25",
"O  c #5A3C25",
"+  c #573D2A",
"@  c #5A3E29",
"#  c #57412A",
"$  c #5C422C",
"%  c #5E4431",
"&  c #5F4931",
"*  c #634125",
"=  c #62452D",
"-  c #68462B",
";  c #65492E",
":  c #6A492E",
">  c #624631",
",  c #654A33",
"<  c #6B4D34",
"1  c #664D38",
"2  c #6B4E39",
"3  c #714F35",
"4  c #714E38",
"5  c #6D5136",
"6  c #6D513A",
"7  c #725236",
"8  c #7A5736",
"9  c #7F5837",
"0  c #73543B",
"q  c #79563B",
"w  c #76593D",
"e  c #7F5C3C",
"r  c #7F5C3E",
"t  c #7A5A3E",
"y  c #725640",
"u  c #755641",
"i  c #755740",
"p  c #7A5741",
"a  c #765A41",
"s  c #795940",
"d  c #785A40",
"f  c #7A5A41",
"g  c #795B43",
"h  c #7B5B42",
"j  c #7C5A41",
"k  c #7E5A40",
"l  c #7A5C40",
"z  c #7B5E40",
"x  c #7B5D43",
"c  c #7E5C41",
"v  c #7F5D41",
"b  c #7C5C43",
"n  c #7D5E42",
"m  c #7E5F42",
"M  c #7A5C44",
"N  c #7D5D44",
"B  c #7F5F46",
"V  c #7B5C41",
"C  c #7E6046",
"Z  c #7D6247",
"A  c #7E6045",
"S  c #805F3E",
"D  c #815D3E",
"F  c #87603F",
"G  c #88623E",
"H  c #8B653E",
"J  c #88603D",
"K  c #805D41",
"L  c #815E40",
"P  c #825D43",
"I  c #815E42",
"U  c #805E43",
"Y  c #815F43",
"T  c #825F43",
"R  c #815E42",
"E  c #855F48",
"W  c #846141",
"Q  c #846143",
"!  c #826044",
"~  c #826045",
"^  c #836145",
"/  c #856244",
"(  c #876245",
")  c #846247",
"_  c #856347",
"`  c #866347",
"'  c #856445",
"]  c #846244",
"[  c #8B6242",
"{  c #886442",
"}  c #8C6641",
"|  c #8E6740",
" . c #8F6442",
".. c #8C6642",
"X. c #8A6747",
"o. c #8B6747",
"O. c #8C6546",
"+. c #8D6647",
"@. c #8F6646",
"#. c #8B6546",
"$. c #8D6947",
"%. c #8D6846",
"&. c #876549",
"*. c #846349",
"=. c #886348",
"-. c #8A6548",
";. c #8A674B",
":. c #8E6748",
">. c #8C674A",
",. c #8B664A",
"<. c #8B6848",
"1. c #8B684A",
"2. c #8D6949",
"3. c #8F6849",
"4. c #8E6A4A",
"5. c #8B684C",
"6. c #8A684D",
"7. c #8E694C",
"8. c #8D694B",
"9. c #906545",
"0. c #906747",
"q. c #916646",
"w. c #956946",
"e. c #926A47",
"r. c #91664A",
"t. c #916848",
"y. c #936F4D",
"u. c #936F4F",
"i. c #916A4B",
"p. c #876750",
"a. c #8E6C51",
"s. c #906D51",
"d. c #947050",
/* pixels */
"H ..7.t j t t w t 7 5 < < < < w ..0.,.t w m t t l < 2 6 2 1 6 $ # $ < 7 < < 6 1 0 u...Q 0 2 0 ..#.#.",
"$.o.1.t q t t l t 5 < 2 6 7 5 g #.#._ q 0 g t m w 2 2 2 6 , 6 $ + + , 0 2 2 6 , q 2.J r 6 2 7 [ 2.2.",
"6.&._ m t m w g w 6 6 2 6 6 , 6 >.,._ t t g 0 g 0 0 0 < 0 < 7 * $ $ , 6 2 2 7 < q o.u.` 2 2 u a.,.,.",
"0 7 7 w 0 t , = = , 2 2 6 6 2 y L t t t g 0 ; = $ , 2 : _ Q <.t 0 7 6 6 6 g _ { m 8 S 7 $ % @ = ; ; ",
"2 2 < t l C , O o = 6 2 2 2 2 0 t q t g m 0 O X $ 2 < < ,.2.2.t t t 7 , 2 t i.w.~ w t < = > @ @ @ @ ",
"7 < < 7 w w , O $ 1 6 2 2 7 < 7 M w g g l 0 = $ O 2 < 7 =.,.1.! t t 0 < 5 L o.0._ l C 5 * O O o $ $ ",
"_ Y ~ 0 0 0 2 , & > = = 7 _ L r 6 6 7 5 7 6 , > < N L L t 0 7 6 < 6 2 < 2 < < < < $ $ < j L N 2 , , ",
"#.,.6.0 , , 2 5 6 > o o 0 s.2.D 1 2 7 < < 6 2 6 7 ,.7.6.7 < 2 6 6 2 2 6 6 > + + @ @ @ < 7.r.,.2 2 2 ",
">.2.,.0 2 , 2 : < $ # @ 7 i.2.L < 2 2 6 2 , 5 ; 7 _ 8.,.< < < 5 5 1 < 5 < = $ $ $ @ . < &.7.) < 6 2 ",
"t L m < > > 0 L L 6 , > 7 Q D 7 $ = > 6 2 7 Y L S L _ m t 0 0 7 5 2 5 0 7 2 , > 6 g q t L Q C < 2 2 ",
"0 t t = o $ g 7.7.w 2 , 7 L t < # o $ 6 < 0 >.>.,.t q 7 m g g < < 5 7 l l w 6 2 0 1.2.Q 8 8 t < 6 6 ",
"w l t = O $ t >.1.0 < < 0 g a 0 O X $ 2 < q 6.i.6.t w w l g a 0 < 5 7 a a 0 5 2 q 2.u.o.8 t w 5 2 2 ",
"w t t , > , q R Q t t m 0 2 2 2 4 < 2 0 2 7 t l t w t l < 2 2 6 5 2 2 2 2 2 2 < 0 L Y m < 7 2 6 6 6 ",
"g t t 5 6 6 t t t Q i.7.7 o @ > ) j p 0 2 5 , < < w g g $ O @ > 6 2 > $ $ ; 2 5 0 t u 7 O @ @ 1 2 2 ",
"t t t 5 6 6 0 t 0 Q e.i.7 o $ ; t t 0 2 2 6 2 6 7 w N a = @ $ > 6 2 = o @ > 2 5 0 g g 0 O $ $ 6 2 2 ",
"0 0 0 , , , 7 t w S J { 7 $ , < w t w = , 2 = , < < 7 2 , $ , > 2 2 , $ $ , 2 < 5 0 w 0 $ , = 0 g g ",
"1 6 1 $ $ @ 0 t w w t t 7 < 6 0 m t 0 @ $ $ + $ + @ $ $ , 6 2 < 6 6 > + $ > 2 6 6 , , 6 6 , 0 $.0.#.",
", < , @ @ @ 7 r t l l w 7 < < 7 t 0 6 @ @ @ $ @ o O O O , 6 2 < 2 2 = O $ , 2 6 < < < 6 6 2 0 o.#.#.",
"q t w ; $ > 6 0 7 0 w 0 7 5 7 7 g w 0 = = = < - < : : : 2 6 2 7 0 7 < < < , < < 7 7 5 6 6 2 7 ! ( ( ",
"o.Q 1.7 2 6 6 7 2 6 7 5 7 g g t , 2 2 2 5 0 7.>.,.2.>._ 0 6 < ~ 2.>.>.,.,.j 7 6 0 t w 7 6 2 7 t q q ",
"2.2.8.0 2 2 2 < < < < < 7 g g 0 6 6 2 2 < 7 7.#.o.$.i.,.7 , < ) #.>.>.i.7.t < < 0 l l 0 6 2 5 w t t ",
"` _ ~ 5 2 , 7 0 0 0 7 0 0 t 0 7 5 2 2 , 5 7 _ _ ` o.o.o.7 2 , ) o.o.( >.,.t 5 6 6 0 w 7 7 6 7 w w t ",
"< 5 5 2 2 7 _ 1.,.,.,.&.~ m t t l g w < 2 2 < 7 7 t q q = $ @ 7 t t t t t 7 2 2 2 6 5 7 w a 0 t m l ",
", 5 2 2 6 < ! o.#.#.>.,.~ t w g t w t , 6 6 < 6 < t t g $ $ @ 0 a t w t t 7 2 6 2 2 < 7 l m t t t t ",
"5 < 6 , 2 7 ~ 6.,.o.<.o.L t w t t m 7 < < 2 2 2 2 M a a = = = 7 0 t w w g 0 2 2 6 , 5 6 0 g q t t t ",
"t w a 6 6 < < 7 3 7 8 8 0 < < 7 0 t 0 5 5 2 = $ $ , < 6 7 g w g m m 0 < 6 2 1 2 2 2 5 , $ $ = < 5 5 ",
"t t w 6 6 2 6 7 2 0 m r 0 2 6 7 t l 7 5 5 , $ X = 2 6 6 w g g 0 q 0 < < 6 6 6 6 2 6 6 1 $ + $ 6 6 6 ",
"m t 7 5 6 6 2 2 2 0 a w 0 2 2 5 a a 7 6 2 1 > $ $ , 6 2 0 g l l m g 0 6 6 5 < < < < 5 , $ @ $ 2 2 2 ",
"7 7 7 w g 0 , @ % 1 5 6 6 6 6 2 $ $ $ $ $ > , , 2 0 6 2 5 7 5 < 5 5 2 2 < t =.>.( Q ` t 2 2 2 w t t ",
"< < < t l g , O $ > < < < 2 2 , $ @ @ @ @ > 2 6 , 2 2 2 < 5 < 5 5 5 6 2 < j >.r.i.i.i.! < , < t t t ",
"6 6 < w t t , @ @ , 5 < < < < - $ O @ @ O = < 2 6 6 6 2 5 < < < < 5 2 2 2 m 7.>.( [ o.m 7 2 5 t g g ",
"2 5 < t t m < , , w ~ ~ Y ~ L t , , 6 l l t t 7 0 = $ $ C N *.C _ j 7 = $ 6 ~ r L r m t w a 0 7 6 6 ",
"6 2 < 0 g 0 7 5 < A 2.....i.2.R 1 2 0 $.i.2.q g 7 $ @ @ _ r.i.#.#.i.3 O O < m t w 0 t t m 0 g 2 < < ",
"2 2 7 t g g 7 < < m 2.i.#.2.>.L 2 < t _ ,.o.t m 0 $ $ $ _ >.r.#.o.7.< O $ , M g w l l t t w M 2 6 6 ",
"7 7 7 7 7 7 6 2 < w ~ L S L L L m m L q t t w t w $ $ $ j L L L S ~ < , , , 2 , < t t 0 7 0 6 > $ $ ",
"t t t < < 2 6 2 2 7 t t q q t m i.>._ < < 5 0 t 0 $ o @ 0 t q t w t 5 6 6 > $ X < N t w < 6 , @ $ $ ",
"w t m 5 6 2 6 < 6 7 g l m t t m i.#._ < < 6 w l 0 $ + $ 0 t w a l t 6 6 2 > $ @ , N w 0 < 5 , @ O O ",
"7 7 w , , > 6 7 7 7 7 0 w t t l L S ~ t m l 7 7 0 , $ > 6 w 0 y w 7 6 2 6 1 > > , w 5 7 t j w 0 0 0 ",
"5 < 6 o $ @ 0 l g 7 < < 5 w t t t t L o.1._ < 2 7 2 2 1 < 7 , 2 2 2 2 2 6 5 , 2 6 6 < q 7.2.7.7.>.>.",
"2 1 2 $ $ O 7 l t 7 < < 7 l m t a w t i.i.o.< 2 < 2 6 6 < 7 , 2 1 2 2 2 5 5 < 6 2 2 ; 7 u.#.o.#.0.0.",
"1 6 6 < : < 7 7 0 6 < 5 2 , 6 0 0 0 g ~ ) m 0 0 7 2 , 6 2 > ; 7 8 t < > , 2 6 2 7 0 w t Q o.F D Q Q ",
"6 2 5 7 t w 7 6 2 2 < 6 2 @ @ $ 5 < 7 q t t w t a 5 6 1 % o $ m o.,.< @ @ > 6 1 t ,.7.~ t t q q t t ",
"5 < < w C l 0 2 6 6 < < , o $ = 5 5 7 w t t l C M 2 6 , @ o O C u.7.7 O o > 6 1 9 2.d.` t w a a w w ",
"7 5 5 7 w 0 2 1 = 5 7 0 2 = > = > > 2 0 w 7 5 6 6 5 w 7 < < < w L m 7 ; , 2 6 5 7 S L t t l l g t t ",
"w t 0 5 6 2 , @ $ t 6.6.g 6 6 2 $ $ > 2 6 2 $ @ : _ <.2.i.7.,.8 < 7 0 0 a 0 2 2 6 6 5 7 t t t 8 t t ",
"t m w 6 < 2 =   X w 7.,.0 < 2 , @ + $ , 6 , $ + O Q $...#.>.2.7 < < w m M 0 , 2 1 2 2 7 t t 8 r m m ",
"t t w 6 2 < < : = t o.2.L 7 6 , $ $ > 2 7 2 > $ , ` <.[ O.,.&.0 2 2 7 0 0 7 < 7 2 6 6 7 w w 0 w 7 7 ",
"t t a 6 2 7 N 6.6.~ 8 t t q a w 6 2 6 t l 0 5 < 2 w r 8 t j 0 6 2 2 6 < 7 t 7 l t m t 7 0 6 1 $ $ $ ",
"t t t 5 6 2 ~ >.#.S t t g j t 0 6 2 7 t t 0 < 5 5 w t t t t g 7 2 2 6 2 2 7 t t t t t 0 < 6 2 $ $ $ ",
"t t t 5 6 2 ~ >.#.S t t g j t 0 6 2 7 t t 0 < 5 5 w t t t t g 7 2 2 6 2 < 7 t t t t t 0 < 6 2 $ $ $ "
};
